<svg width="29" height="22" viewBox="0 0 29 22" fill="none" xmlns="http://www.w3.org/2000/svg">
<path d="M28.0217 15.2053C27.3021 14.7379 26.6049 14.2174 25.9479 13.6567C22.9696 11.117 20.8266 7.79978 19.7487 4.06167C19.6781 3.81589 19.6106 3.56368 19.5431 3.29059L19.3953 2.68337L18.7704 2.6657C16.9182 2.61269 15.148 2.0135 13.6492 0.932382L13.3006 0.680176L12.8942 0.824753C11.3954 1.35487 10.0107 2.23839 8.89262 3.38216C8.838 3.43677 8.78821 3.49139 8.7368 3.54762C7.1834 2.07615 5.12399 1.24563 2.96658 1.24563C2.48626 1.24563 1.9947 1.289 1.50635 1.37414L0.630859 1.52836L0.85415 2.3894C1.46459 4.74118 3.59147 6.38453 6.02358 6.38453C6.89907 6.38453 7.74243 6.1741 8.50226 5.7741C9.29262 6.90341 9.72313 8.256 9.72313 9.64394H11.3649C11.3649 7.90259 10.8203 6.20462 9.81952 4.79258C9.89984 4.70423 9.98177 4.61748 10.0669 4.53074C10.9135 3.66488 11.9416 2.97573 13.058 2.51951C14.5697 3.5187 16.2966 4.11789 18.1022 4.27211C18.1247 4.35564 18.1471 4.43757 18.1712 4.51789C19.3375 8.56604 21.6588 12.158 24.8828 14.9081C25.4145 15.3628 25.972 15.7933 26.5471 16.1933C25.8531 17.6069 24.7479 18.7667 23.3664 19.533C22.7013 19.1491 22.009 18.8069 21.3005 18.5113C19.1174 17.6021 16.8058 17.1411 14.4251 17.1411C13.9062 17.1411 13.3713 17.1651 12.8396 17.2117C11.9866 17.2856 11.1384 17.4238 10.3143 17.6165L10.6902 19.2149C11.4372 19.0382 12.2083 18.9145 12.9825 18.8487C13.4693 18.8053 13.9544 18.7828 14.4251 18.7828C16.5873 18.7828 18.6885 19.2021 20.6708 20.0262C21.4435 20.3474 22.1953 20.733 22.9101 21.1699L23.2925 21.4045L23.6957 21.2101C25.8258 20.1804 27.4756 18.3989 28.3398 16.1949L28.584 15.5716L28.0217 15.2053ZM6.02518 4.74278C4.6774 4.74278 3.46457 4.01508 2.81718 2.88899C2.86859 2.88738 2.91839 2.88738 2.96818 2.88738C4.58423 2.88738 6.1312 3.46569 7.34565 4.50022C6.92798 4.65925 6.48461 4.74278 6.02518 4.74278Z" fill="white"/>
</svg>
