<svg width="21" height="18" viewBox="0 0 21 18" id="exit" fill="currentColor" xmlns="http://www.w3.org/2000/svg">
<path d="M8.25391 13.2476L12.5508 8.9585L8.25391 4.66943V6.771C8.25391 7.29053 7.83594 7.7085 7.31641 7.7085H2.62891V10.2085H7.31641C7.83594 10.2085 8.25391 10.6265 8.25391 11.146V13.2476ZM14.5039 8.9585C14.5039 9.40771 14.3242 9.8374 14.0078 10.1538L9.47266 14.6772C9.13281 15.0171 8.67188 15.2085 8.19141 15.2085C7.19141 15.2085 6.37891 14.396 6.37891 13.396V12.0835H2.62891C1.59375 12.0835 0.753906 11.2437 0.753906 10.2085V7.7085C0.753906 6.67334 1.59375 5.8335 2.62891 5.8335H6.37891V4.521C6.37891 3.521 7.19141 2.7085 8.19141 2.7085C8.67188 2.7085 9.13281 2.8999 9.47266 3.23975L14.0078 7.76318C14.3242 8.07959 14.5039 8.50928 14.5039 8.9585ZM14.1914 15.8335H17.3164C18.1797 15.8335 18.8789 15.1343 18.8789 14.271V3.646C18.8789 2.78271 18.1797 2.0835 17.3164 2.0835H14.1914C13.6719 2.0835 13.2539 1.66553 13.2539 1.146C13.2539 0.626465 13.6719 0.208496 14.1914 0.208496H17.3164C19.2148 0.208496 20.7539 1.74756 20.7539 3.646V14.271C20.7539 16.1694 19.2148 17.7085 17.3164 17.7085H14.1914C13.6719 17.7085 13.2539 17.2905 13.2539 16.771C13.2539 16.2515 13.6719 15.8335 14.1914 15.8335Z" fill="currentColor" />
</svg>
