<svg width="21" height="18" viewBox="0 0 21 18" id="exit" xmlns="http://www.w3.org/2000/svg" fill="currentColor">
    <path fill="currentColor" d="
        M 8.25391 13.2476
        L 12.5508 8.95850
        L 8.25391 4.66943
        V 6.77100
        C 8.25391 7.29053 7.83594 7.70850 7.31641 7.70850
        H 2.62891
        V 10.2085
        H 7.31641
        C 7.83594 10.2085 8.25391 10.6265 8.25391 11.1460
        V 13.2476
        Z
        M 14.5039 8.95850
        C 14.5039 9.40771 14.3242 9.83740 14.0078 10.1538
        L 9.47266 14.6772
        C 9.13281 15.0171 8.67188 15.2085 8.19141 15.2085
        C 7.19141 15.2085 6.37891 14.3960 6.37891 13.3960
        V 12.0835
        H 2.62891
        C 1.59375 12.0835 0.75391 11.2437 0.75391 10.2085
        V 7.70850
        C 0.75391 6.67334 1.59375 5.83350 2.62891 5.83350
        H 6.37891
        V 4.52100
        C 6.37891 3.52100 7.19141 2.70850 8.19141 2.70850
        C 8.67188 2.70850 9.13281 2.89990 9.47266 3.23975
        L 14.0078 7.76318
        C 14.3242 8.07959 14.5039 8.50928 14.5039 8.95850
        Z
        M 14.1914 15.8335
        H 17.3164
        C 18.1797 15.8335 18.8789 15.1343 18.8789 14.2710
        V 3.64600
        C 18.8789 2.78271 18.1797 2.08350 17.3164 2.08350
        H 14.1914
        C 13.6719 2.08350 13.2539 1.66553 13.2539 1.14600
        C 13.2539 0.62650 13.6719 0.20850 14.1914 0.20850
        H 17.3164
        C 19.2148 0.20850 20.7539 1.74756 20.7539 3.64600
        V 14.2710
        C 20.7539 16.1694 19.2148 17.7085 17.3164 17.7085
        H 14.1914
        C 13.6719 17.7085 13.2539 17.2905 13.2539 16.7710
        C 13.2539 16.2515 13.6719 15.8335 14.1914 15.8335
        Z"
    />
</svg>
