<?xml version="1.0" encoding="UTF-8" standalone="no"?>
<svg
        version="1.1"
        id="Camada_1"
        x="0px"
        y="0px"
        viewBox="0 0 256 256"
        xml:space="preserve"
        width="256"
        height="256"
        xmlns:xlink="http://www.w3.org/1999/xlink"
        xmlns="http://www.w3.org/2000/svg"
><defs
   id="defs34" />
    <style
            type="text/css"
            id="style2">
			.st0{fill:#605E5B;}
			.st1{fill-rule:evenodd;clip-rule:evenodd;fill:#FFFFFF;}
			.st2{clip-path:url(#SVGID_00000080911265014668079420000015308888967478399920_);fill:url(#SVGID_00000123437736986615627350000002072127660171454613_);}
			.st3{fill:#FFFFFF;}
			.st4{fill-rule:evenodd;clip-rule:evenodd;fill:#605E5B;}
			.st5{clip-path:url(#SVGID_00000134963138317262449200000002501251573464125360_);fill:url(#SVGID_00000069365297648890811070000009552883645865901956_);}
		</style>
    <g
            id="g29"
            transform="translate(-105.82,-29.344998)">


			<g
                    id="g21">
				<defs
                        id="defs9">
					<path
                            id="SVGID_00000101100829860485950920000016358901672703807921_"
                            d="m 133.17,87.73 c 0.44,-0.01 0.88,-0.02 1.3,-0.02 13.79,0 27,4.94 37.37,13.77 -3.57,1.36 -7.37,2.07 -11.28,2.07 -11.5,0.01 -21.86,-6.21 -27.39,-15.82 m 86.05,-17.62 c -12.8,4.53 -24.61,12.07 -34.16,21.83 -0.46,0.45 -0.89,0.93 -1.34,1.41 -13.26,-12.55 -30.84,-19.64 -49.26,-19.64 -4.11,0 -8.3,0.36 -12.46,1.1 l -7.49,1.32 1.91,7.35 c 5.21,20.07 23.37,34.09 44.13,34.09 7.47,0 14.67,-1.79 21.16,-5.2 6.74,9.64 10.42,21.19 10.42,33.03 h 14.01 c 0,-14.86 -4.65,-29.36 -13.19,-41.41 0.68,-0.75 1.39,-1.5 2.11,-2.23 7.23,-7.39 15.99,-13.28 25.53,-17.17 12.9,8.53 27.64,13.65 43.07,14.96 0.19,0.71 0.39,1.41 0.58,2.1 9.96,34.56 29.77,65.23 57.29,88.7 4.54,3.88 9.31,7.55 14.21,10.98 -5.93,12.06 -15.37,21.98 -27.16,28.51 -5.67,-3.28 -11.59,-6.2 -17.63,-8.72 -18.63,-7.76 -38.38,-11.69 -58.7,-11.69 -4.43,0 -8.99,0.2 -13.54,0.6 -7.28,0.64 -14.52,1.81 -21.55,3.45 l 3.2,13.65 c 6.37,-1.5 12.97,-2.57 19.57,-3.13 4.15,-0.37 8.29,-0.56 12.32,-0.56 18.46,0 36.4,3.58 53.32,10.62 6.59,2.74 13.02,6.03 19.12,9.76 l 3.27,2 3.44,-1.67 c 18.18,-8.78 32.27,-23.99 39.64,-42.81 l 2.08,-5.32 -4.8,-3.12 c -6.14,-3.99 -12.1,-8.44 -17.71,-13.21 -25.42,-21.68 -43.72,-50.01 -52.91,-81.92 -0.6,-2.11 -1.19,-4.25 -1.75,-6.59 l -1.27,-5.19 -5.34,-0.15 c -15.82,-0.45 -30.93,-5.57 -43.72,-14.8 l -2.97,-2.15 z"/>
				</defs>
                <clipPath
                        id="SVGID_00000148634496026206076120000012293411874477335699_">
					<use
                            xlink:href="#SVGID_00000101100829860485950920000016358901672703807921_"
                            style="overflow:visible"
                            id="use11"/>
				</clipPath>
                <linearGradient
                        id="SVGID_00000057827196999014064730000013610685654933960080_"
                        gradientUnits="userSpaceOnUse"
                        x1="-909.27887"
                        y1="655.867"
                        x2="-900.42792"
                        y2="655.867"
                        gradientTransform="matrix(26.3083,0,0,-26.3083,24039.416,17412.066)">
						<stop
                                offset="0"
                                style="stop-color:#73BEAB"
                                id="stop14"/>
                    <stop
                            offset="1"
                            style="stop-color:#BCCE00"
                            id="stop16"/>
					</linearGradient>
                <rect
                        x="114.52"
                        y="68.879997"
                        style="fill:url(#SVGID_00000057827196999014064730000013610685654933960080_)"
                        width="238.63"
                        height="176.92"
                        clip-path="url(#SVGID_00000148634496026206076120000012293411874477335699_)"
                        id="rect19"/>
			</g>



		</g>
	</svg>
