<svg width="81" height="105" viewBox="0 0 81 105" fill="none" xmlns="http://www.w3.org/2000/svg">
<path d="M12.2068 35.9318C13.8658 35.3316 15.558 34.8982 17.1838 34.1646C19.1082 33.2977 20.9331 32.2307 22.5589 30.7969C22.6585 30.6969 22.758 30.5302 23.0566 30.5969C23.1562 30.9303 23.0898 31.2971 23.0898 31.6972C23.0898 31.9639 22.9903 32.164 22.7248 32.264C22.2935 32.4307 22.0944 32.8309 21.8621 33.231C18.9091 38.5326 15.2262 43.1673 10.6142 46.8685C10.4483 47.0018 10.3156 47.1019 10.1497 47.2352C8.49067 48.5356 8.29159 48.569 6.53306 47.502C3.38097 45.6014 1.55608 42.6338 0.759766 38.866C1.32382 38.866 1.88788 38.8994 2.41876 38.866C3.31461 38.8327 4.24365 38.9327 5.1395 38.766C7.09712 38.3659 8.95519 37.5323 10.8133 36.8321C11.311 36.632 11.9414 36.5653 12.2068 35.9318Z" fill="#EDDCDD"/>
<path d="M60.3169 97.9171C61.0137 97.6503 61.7104 97.3502 62.4404 97.0835C62.4072 97.617 62.1749 98.0171 61.81 98.3839C60.1842 100.051 58.1934 101.085 56.0367 101.952C53.9464 102.785 51.7565 103.319 49.5334 103.619C48.2726 103.819 46.9786 103.986 45.6514 104.019C44.6892 104.052 43.6938 104.152 42.7316 104.152C41.0726 104.152 39.4468 103.986 37.7878 103.852C35.6311 103.652 33.5076 103.252 31.4172 102.752C29.1278 102.185 26.9048 101.418 24.8145 100.318C25.1131 100.118 25.4117 99.9177 25.7103 99.7176C27.8006 100.218 29.891 100.618 32.0145 100.851C34.0053 101.085 35.9961 101.285 38.02 101.285C40.1435 101.285 42.267 101.351 44.3574 101.185C45.4191 101.085 46.5141 101.051 47.609 100.951C49.7989 100.718 51.9556 100.485 54.1123 100.051C55.8376 99.6843 57.563 99.3509 59.2551 98.8507C59.7196 98.684 60.1178 98.4172 60.3169 97.9171Z" fill="#F5EBEB"/>
<path d="M70.8345 9.72393C68.6778 9.69059 67.052 8.69029 65.758 7.0898C64.8621 5.98947 64.7626 4.68907 65.4262 3.65543C66.2225 2.38838 67.7488 1.65482 69.0428 2.0216C69.5737 2.15497 69.8723 2.05494 70.2373 1.65482C71.0668 0.75455 72.1617 0.521146 73.323 0.75455C74.0529 0.887923 74.5506 1.42142 74.8493 2.08829C75.347 3.15528 75.4133 4.25561 75.1479 5.38929C74.7497 7.05646 73.7211 8.29017 72.4271 9.32381C71.9958 9.72393 71.3654 9.75728 70.8345 9.72393ZM66.322 5.75606C66.8861 7.25652 69.2087 8.79032 71.3654 8.55691C71.5313 8.52357 71.664 8.49023 71.7967 8.3902C72.6262 7.6233 73.4225 6.82306 73.8207 5.72272C74.1857 4.68907 74.2852 3.68877 73.8539 2.65513C73.5552 1.95491 73.0575 1.72151 72.3608 1.82154C71.664 1.92157 71.0999 2.255 70.7018 2.88853C70.3368 3.48871 70.1377 3.52205 69.4409 3.32199C69.2087 3.25531 68.9764 3.18862 68.7773 3.12193C68.4124 2.98856 68.0474 3.05525 67.7156 3.22196C67.1847 3.52205 66.687 3.82215 66.3884 4.38898C66.0234 4.85579 66.0234 5.3226 66.322 5.75606Z" fill="#C6404A"/>
<path d="M66.2564 13.0915C66.19 14.8921 65.5596 16.4592 64.2656 17.7596C63.8674 18.1597 63.4361 18.3598 62.872 18.3931C61.4785 18.4598 60.284 17.8597 59.1227 17.1928C58.3928 16.7927 57.7624 16.1925 57.2978 15.4923C56.3688 13.9918 56.767 12.3246 58.3264 11.4911C59.1227 11.0576 59.9522 10.7908 60.8813 11.0909C61.1467 11.191 61.3126 11.1243 61.4785 10.8909C61.8435 10.4241 62.2748 10.0573 62.8057 9.79054C63.967 9.2237 65.0619 9.55714 65.7255 10.6575C66.19 11.4244 66.2896 12.258 66.2564 13.0915ZM65.0951 12.9582C65.0951 12.7581 65.0951 12.4914 65.0287 12.2246C64.9956 12.0246 64.9292 11.8245 64.8628 11.6244C64.531 10.7242 63.8011 10.4908 63.0048 11.0242C62.673 11.2577 62.4075 11.5244 62.1753 11.8578C61.7108 12.6581 61.6776 12.6581 60.8149 12.3246C59.9522 11.9912 58.7577 12.3246 58.2269 13.0915C57.7624 13.7251 57.9283 14.5587 58.6914 15.3589C58.7246 15.3922 58.7577 15.4256 58.7909 15.4589C59.8527 16.5259 61.2131 16.9927 62.6398 17.2261C63.0048 17.2928 63.2702 17.0928 63.5356 16.8594C64.5642 15.7924 65.0619 14.5253 65.0951 12.9582Z" fill="#D45B5F"/>
<path d="M71.3 22.0611C70.5037 22.0611 69.7405 21.8277 69.0106 21.5276C67.9488 21.0608 67.3516 20.2272 67.0861 19.0936C66.688 17.3264 68.3802 15.7926 70.1055 16.226C70.6032 16.3594 70.935 16.2927 71.3 15.9926C71.7645 15.6258 72.3286 15.3591 72.959 15.3258C73.7221 15.2591 74.2862 15.5925 74.618 16.2594C75.0493 17.0596 75.0161 17.8932 74.7507 18.6934C74.3193 19.9605 73.4899 20.9275 72.4945 21.761C72.1295 22.1278 71.6981 22.0611 71.3 22.0611ZM72.7599 16.6262C72.2622 16.6928 71.864 16.9596 71.5654 17.293C71.1341 17.7598 70.7027 17.8265 70.1719 17.4931C70.0391 17.4264 69.8732 17.3597 69.7405 17.3597C68.7783 17.193 68.0484 17.9599 68.2474 18.9268C68.347 19.4603 68.6124 19.9272 69.0769 20.2272C69.8069 20.694 70.6032 20.9275 71.4659 20.9275C71.665 20.9275 71.8309 20.8941 71.9636 20.7607C72.6935 20.0605 73.3571 19.327 73.6557 18.3267C73.8216 17.7598 73.9212 17.193 73.4567 16.7262C73.2576 16.3594 73.0253 16.4594 72.7599 16.6262Z" fill="#D38489"/>
<path d="M56.8672 25.0952C57.0331 25.2286 57.2322 25.362 57.3981 25.5287C57.4312 25.8621 57.6303 26.0288 57.9289 26.1289C57.9621 26.2956 57.9953 26.4623 58.0285 26.629C57.8294 26.7957 57.5971 26.9291 57.4644 27.1625C56.9335 26.5623 56.9667 25.7954 56.8672 25.0952Z" fill="#BD865F"/>
<path d="M57.9274 26.129C57.6287 26.029 57.4297 25.8622 57.3965 25.5288C57.5624 25.5288 57.6951 25.5622 57.861 25.5622C57.9274 25.7289 57.9274 25.9289 57.9274 26.129Z" fill="#B87C58"/>
<path d="M39.2812 55.0708C28.5309 41.9668 54.2785 71.4424 54.378 71.3757C54.378 72.1093 56.5015 73.8431 56.6342 74.5433C56.8665 76.0771 57.1319 77.5776 57.3974 79.1114C57.6628 80.5118 57.696 81.9456 58.3596 83.246C58.4591 83.4127 58.4591 83.6461 58.4591 83.8461C58.4259 84.313 58.5255 84.7464 58.6582 85.2132C59.0895 86.9137 59.5209 88.5809 59.919 90.2814C60.2508 91.6818 60.6822 93.0156 60.8812 94.4493C58.99 95.1829 56.9992 95.583 55.0084 95.9165C48.5052 97.0168 41.9687 97.3169 35.3659 96.9168C32.5457 96.7501 29.7254 96.4166 26.9714 95.7164C25.9097 95.4497 25.3456 95.383 25.3788 94.2826C25.4452 92.7155 25.6774 91.0817 25.7438 89.5145C25.7438 89.3478 25.7438 89.1811 25.6111 89.0477C25.0802 88.4809 24.9475 88.0808 24.118 87.9474C22.8571 87.7473 21.5631 87.6806 20.2691 87.6473C19.6719 87.614 19.6719 87.6139 19.6719 87.0138C19.8046 83.9462 19.9373 80.8786 20.07 77.811C20.3355 72.0092 20.6009 66.2408 20.8332 60.4391C21.0986 54.3372 21.364 48.2354 21.6295 42.1335C21.8617 36.8986 21.4968 31.7637 21.729 26.5288C21.7622 25.9953 21.5963 24.8616 21.9613 24.4281C22.094 24.2948 22.2931 23.828 22.3594 23.6279C22.7576 22.5609 23.9853 22.4275 24.8479 21.6606C25.3124 21.9274 25.6111 22.3942 26.0092 22.7276C27.0046 24.4948 27.9668 26.2287 28.9622 27.9959C29.3272 28.6628 30.2562 30.4967 30.4885 31.2302C29.095 31.7637 28.2323 32.0638 27.2037 33.1641C26.5401 33.8643 26.341 33.4642 26.0092 34.3645C25.8101 34.9313 25.4452 35.5315 25.8101 35.6982C26.1751 35.8649 25.6442 35.7649 25.8765 35.1647C25.9097 35.098 25.9429 34.998 25.976 34.9313C26.9714 32.9641 28.4977 31.7304 30.6544 31.2636C30.6544 31.6303 30.8203 31.9304 30.953 32.2305C31.4839 33.4309 31.9152 34.6646 32.3134 35.8983C32.4461 36.2651 32.8775 39.3993 32.8775 39.7995C32.1143 39.9995 33.0102 39.466 32.4461 40.0329C32.1143 40.3663 32.3798 40.7664 32.048 40.533C30.7871 39.5994 32.7116 39.266 31.6498 40.433C30.8867 41.2332 32.3466 39.8328 32.4461 40.9665C80.9882 32.9974 30.4553 40.433 31.7162 41.3666C32.5788 41.6334 31.6166 42.9671 32.4461 42.4669C33.2093 42.0335 32.5457 44.2008 33.2424 43.7007C33.541 44.6676 34.271 47.4018 34.7355 48.3687" fill="#EDDCDD"/>
<path d="M35.8642 51.5364C36.6937 51.403 35.101 49.0689 34.7361 48.3354C34.2715 47.3684 33.3093 44.1675 33.0107 43.2005C33.4752 42.6337 31.5176 42.3336 31.9158 41.6667C32.7121 40.333 33.4752 40.8998 33.0107 39.3993C32.5794 38.0323 34.2715 38.1323 32.3803 38.4324C32.3803 38.0323 32.4135 36.2984 32.2808 35.9316C31.8494 34.6979 31.4513 33.4642 30.9204 32.2638C30.8208 31.9304 30.8208 32.1638 30.8208 31.797C31.3185 31.497 31.1195 31.6303 31.6503 31.4636C32.148 31.2969 32.1812 31.7304 32.1149 31.3636C32.0153 30.9968 32.3803 30.8634 31.8826 30.9301C31.7499 30.9301 31.4513 30.9301 31.3185 30.9635C30.7545 31.0968 31.0199 31.0968 30.4559 31.2302C30.2568 30.4966 29.3277 28.6628 28.9296 27.9959C27.9674 26.2287 26.972 24.4948 26.0098 22.7276C26.0429 22.3942 26.3084 22.3609 26.5738 22.3609C27.337 22.3609 28.1001 22.2275 28.8632 22.1608C30.1904 22.0608 31.5176 21.8607 32.8448 21.8607C36.8596 21.8607 40.8743 21.8607 44.8891 21.8607C45.6854 21.8607 46.4817 21.694 47.2449 21.594C48.008 21.4939 48.7711 21.3939 49.4679 21.8274C49.667 21.9607 49.8661 22.0274 50.1315 22.0274C51.6246 22.0274 53.1177 22.2608 54.6108 22.3609C56.0043 22.4275 56.7675 23.0277 57.9288 23.7279C58.1278 23.8613 59.0237 24.895 59.256 24.7282L59.5546 25.2617C59.6541 26.0286 59.6541 25.7952 59.6541 25.8619C59.455 27.2957 59.6209 28.7294 59.6873 30.1299C59.7205 31.2302 59.7868 32.2972 59.7537 33.3975C59.5214 33.5976 59.5878 33.8643 59.5878 34.1311C59.5878 35.1314 59.6541 36.1317 59.7205 37.132C59.8532 38.9659 59.7537 40.7664 59.8864 42.6003C60.0523 44.9344 59.9196 47.2684 60.0855 49.6358C60.185 50.8695 60.1186 52.0698 60.2182 53.3036C60.3177 54.8374 60.3841 56.3712 60.4173 57.9049C60.4504 59.1387 60.7159 60.339 60.6163 61.5727C60.6163 61.6394 60.6827 61.7061 60.7159 61.8061C60.7822 63.2399 60.8486 64.6737 60.915 66.1074C61.114 72.3093 61.3131 78.5112 61.5122 84.7464C61.6117 87.5139 61.7113 90.2814 61.8108 93.0823C61.844 94.1493 61.844 94.1826 60.7822 94.4827C60.5832 93.0489 60.1518 91.7152 59.82 90.3148C59.4219 88.6143 58.9573 86.9471 58.5592 85.2466C58.4596 84.8131 58.3601 84.3463 58.3601 83.8795C58.3601 83.6794 58.3601 83.446 58.2606 83.2793C57.597 81.9789 57.5638 80.5451 57.2983 79.1447C57.0329 77.6443 56.7675 76.1105 56.5352 74.5767C56.4357 73.8765 53.8808 71.6758 53.8808 70.9756C53.8808 70.7088 55.3739 67.8413 55.5066 67.6079C56.9002 62.6397 58.2606 61.7061 57.5306 56.6712C57.232 54.6039 53.0845 54.2705 51.89 52.5033C50.8283 50.9362 50.231 51.8698 48.373 51.403C46.9794 51.0695 47.7426 51.3363 46.3158 51.503C43.7278 51.8364 44.5241 52.1699 41.8697 52.2699C40.2107 52.3366 39.713 52.5033 38.054 52.2699C37.49 52.1699 36.4946 51.8364 35.8642 51.5364ZM49.1693 41.5333C48.7711 41.5 49.302 41.5333 48.937 41.7C47.6762 42.3002 47.3444 40.9665 47.4439 42.3669C47.643 44.8677 46.5481 41.8334 48.9702 42.4669C49.5674 42.6337 48.8043 42.9671 49.4016 42.7003C51.3592 41.8001 48.6716 43.9674 49.6006 42.0001C50.231 40.6331 49.7002 43.5673 49.1029 42.2335C48.4725 40.8331 51.6578 40.7331 50.1647 41.0665C49.5011 41.2332 50.3306 40.5997 49.8661 41.0665C49.4679 41.4333 49.9988 41.7 49.6338 41.3666C49.2357 41.0332 49.7997 41.5 49.1693 41.5333ZM49.1361 30.5633C48.5389 30.5633 47.7426 31.4303 47.4771 31.1635C47.0126 31.2969 48.0412 30.1966 48.1407 30.53C48.2071 30.8968 48.6384 30.6967 49.1361 30.5633C51.9232 29.9298 51.6246 30.5633 53.1841 32.7973C53.4827 33.1975 53.7149 33.4642 53.9804 33.8643C54.2458 34.2978 54.5444 34.8313 54.8762 34.6312C55.208 34.4645 54.5444 33.6309 54.3122 33.1641C53.6154 31.697 52.8854 32.0304 51.5582 31.0968C50.3969 30.2966 50.5297 30.5967 49.1361 30.5633Z" fill="#EDDCDD"/>
<path d="M61.8099 89.2812C61.8099 90.3482 61.8099 91.2819 61.8099 92.1821C61.8099 93.1491 61.7767 94.116 61.8099 95.1164C61.8099 95.5498 61.6771 95.7832 61.3453 96.0166C60.4163 96.6502 59.3877 97.0169 58.326 97.3504C56.4015 97.9505 54.4439 98.3173 52.4531 98.6174C51.3914 98.7841 50.2965 98.8508 49.2015 98.9842C45.3195 99.451 41.4043 99.2509 37.5222 99.2509C36.5932 99.2509 35.6641 99.1176 34.7351 99.0175C33.7397 98.9175 32.7775 98.7841 31.7821 98.6508C30.1895 98.4174 28.6632 98.0172 27.1701 97.5171C26.4733 97.2837 24.6484 96.7835 24.6484 96.0166C24.6484 94.8496 24.6484 93.7159 24.6484 92.5489C24.6484 92.3488 24.6484 92.1154 24.6816 91.9154C24.7812 91.3485 24.8475 91.3152 25.4116 91.4819C26.8383 91.8487 30.0568 92.4489 31.4835 92.6823C32.9766 92.9157 34.5028 93.0157 35.9959 93.0824C38.7499 93.2158 41.5038 93.1491 44.2577 93.0824C44.8881 93.0824 45.5186 93.0157 46.1158 92.949C46.9785 92.849 47.8743 92.8157 48.7702 92.6823C49.666 92.5823 50.5619 92.4489 51.4909 92.3488C53.9794 92.0154 56.4015 91.4819 58.7905 90.715C59.7859 90.3482 60.7149 89.8814 61.8099 89.2812Z" fill="#161616"/>
<path d="M17.9805 93.1493C18.0136 91.082 18.2127 89.0147 18.4118 86.9474C18.4782 86.2472 18.5445 85.547 18.6109 84.8135C18.7104 83.8465 19.4404 83.3464 20.0376 82.7462C20.2035 82.5795 20.5021 82.6461 20.7344 82.6128C21.8625 82.6128 22.9574 82.7128 24.0856 82.8129C24.4174 82.8462 24.716 82.9129 25.0478 83.0463C25.6118 83.2463 25.9436 83.7465 25.9105 84.3467C25.6782 88.5813 25.6782 92.8159 25.5787 97.0838C25.5787 97.484 25.5123 97.9174 25.4791 98.3176C25.4128 98.9844 25.1805 99.2512 24.5501 99.4179C23.5215 99.6846 22.4929 99.4846 21.4644 99.3179C19.7058 99.0178 18.3786 97.5507 18.1132 95.7835C17.9805 94.9499 17.9805 94.0496 17.9805 93.1493ZM23.0902 92.3157C23.057 94.5164 23.0238 96.1169 23.2229 97.9174C23.2561 98.2175 22.9906 98.6843 23.3888 98.6843C23.8201 98.651 23.7206 98.2842 23.7206 97.9841C23.7206 97.8507 23.6874 97.7507 23.6874 97.6173C23.5879 96.2836 23.4551 94.9499 23.4883 93.6161C23.4883 91.4488 23.5879 89.2815 23.7869 87.1142C23.8201 86.8474 23.8201 86.5807 23.8201 86.3139C23.8201 86.1472 23.7206 86.0472 23.5547 86.0138C23.3888 85.9805 23.2561 86.0472 23.1897 86.1805C23.057 86.3806 23.3224 86.9141 23.2892 87.1475C23.0902 89.0814 23.057 90.8153 23.0902 92.3157ZM20.6017 84.4467C20.469 84.4467 20.2699 84.3133 20.104 84.3467C19.9049 84.38 19.5731 84.28 19.5731 84.48C19.5731 84.6801 19.9049 84.5801 20.104 84.5801C21.0994 84.6467 21.4644 84.48 22.3934 84.8801C22.5925 84.9802 22.7915 85.0469 22.8911 84.8801C22.9574 84.7134 23.2892 84.9468 23.1897 84.8135C23.057 84.6467 22.8579 84.5801 22.6588 84.5134C21.8957 84.28 21.4312 84.48 20.6017 84.4467Z" fill="#7AC16E"/>
<path d="M79.9926 43.7343C79.5613 45.2681 78.8313 46.5685 78.035 47.8355C76.7078 50.0695 75.082 51.9368 72.9585 53.1038C72.1622 53.5372 71.6313 53.4706 70.9345 52.837C68.1142 50.1696 65.7916 46.9352 63.8009 43.4008C62.54 41.2002 61.2128 38.9995 60.317 36.5321C60.317 36.4988 60.2838 36.4654 60.2838 36.4321C59.4211 35.5985 59.587 34.3981 59.587 33.2978C59.5538 32.3642 59.587 31.4306 59.587 30.2969C60.0184 30.797 60.3501 31.2305 60.6819 31.6306C61.0137 32.0307 61.3455 32.4309 61.6773 32.831C61.7437 32.8977 61.7769 32.9643 61.8432 33.031C61.9096 33.0977 61.976 33.1644 62.0423 33.2311C62.1087 33.2978 62.1419 33.3978 62.2082 33.4645C62.2746 33.5979 62.3741 33.7312 62.4405 33.8313C62.4073 34.2647 62.6064 34.6315 62.8055 34.965C64.1327 36.9989 65.6257 38.8995 67.1852 40.7C67.5502 41.1335 67.9815 41.4669 68.4128 41.7337C69.9059 42.6339 71.399 43.4675 73.0249 43.901C73.8875 44.1344 74.7502 44.3678 75.5465 44.8013C76.2433 45.168 76.8074 45.068 77.3382 44.4678C77.9355 43.8343 78.6322 43.6009 79.4286 43.7009C79.5945 43.7343 79.7935 43.7343 79.9926 43.7343Z" fill="#EDDCDD"/>
<path d="M59.7534 97.9175C59.5543 98.4176 59.1894 98.7177 58.6585 98.8511C56.9995 99.3513 55.3073 99.6847 53.6151 100.051C51.4916 100.485 49.3681 100.752 47.2114 100.952C46.1497 101.052 45.0879 101.085 44.0262 101.185C41.9358 101.385 39.8455 101.285 37.7552 101.285C35.7644 101.285 33.8068 101.052 31.8492 100.852C29.7588 100.618 27.7017 100.218 25.6445 99.718C26.109 99.2512 26.3745 98.6844 26.3413 98.0509C26.474 97.9842 26.6067 97.9842 26.7063 98.0175C28.8962 98.8511 31.1856 99.2512 33.475 99.518C37.1911 99.9848 40.9404 100.118 44.6898 99.9848C49.2354 99.8181 53.781 99.4179 58.194 98.2843C58.7248 98.1842 59.2557 98.0509 59.7534 97.9175Z" fill="#CFB6A9"/>
<path d="M79.9919 43.7344C79.7928 43.7344 79.6269 43.7677 79.4279 43.7344C78.6315 43.6344 77.9348 43.8678 77.3375 44.5013C76.8066 45.0681 76.2094 45.2015 75.5458 44.8347C74.7495 44.4013 73.8868 44.1679 73.0241 43.9345C71.3983 43.501 69.8721 42.6674 68.4121 41.7671C67.9808 41.5004 67.5495 41.167 67.1845 40.7335C65.625 38.9329 64.1319 37.0324 62.8048 34.9984C62.5725 34.665 62.4066 34.3316 62.4398 33.8647C62.9043 34.0315 63.2361 34.3982 63.6011 34.7317C66.5541 37.4992 69.8721 39.4331 73.555 40.3667C75.6785 40.9002 77.8352 41.167 80.0251 40.8002C80.2905 40.7668 80.5891 40.6668 80.8878 40.8335C80.7882 41.9005 80.3901 42.8008 79.9919 43.7344Z" fill="#F0E7E8"/>
<path d="M15.9226 35.2983C15.5576 36.0652 14.7613 36.1653 14.1309 36.3987C11.6756 37.2656 9.28661 38.2659 6.69859 38.7327C5.50411 38.9661 4.30964 38.8327 3.11516 38.8661C2.38521 38.8994 1.55571 39.1662 0.825753 39.1662C0.361235 37.9658 0.328055 36.3653 0.228516 35.165C0.460775 34.8649 0.659854 34.9649 0.858933 35.0316C4.87369 36.2986 8.98799 36.3653 13.1355 35.7985C13.3014 35.7651 13.4673 35.7985 13.6664 35.7985C13.9981 35.7651 14.3631 35.8985 14.6617 35.5984C15.0599 35.4651 15.4581 35.265 15.9226 35.2983Z" fill="#F0E7E8"/>
<path d="M58.4592 60.0725C58.426 60.0058 58.3596 59.9391 58.3596 59.8724C58.426 58.7387 58.1937 57.6384 58.1606 56.5047C58.1274 55.1043 58.061 53.6705 57.9615 52.2701C57.8951 51.1364 57.9283 50.0028 57.8288 48.9024C57.6629 46.7684 57.7956 44.6011 57.6297 42.4671C57.5301 40.8 57.6297 39.0995 57.497 37.4323C57.4306 36.532 57.3642 35.5984 57.3642 34.6981C57.3642 34.4647 57.2979 34.2313 57.5301 34.0312C57.5633 34.398 57.6297 34.7648 57.6297 35.1316C57.7624 39.1328 57.8951 43.1007 58.0278 47.1019C58.0942 49.2692 58.1937 51.4032 58.2601 53.5705C58.2601 53.7372 58.2601 53.9373 58.2601 54.104C58.1274 54.2374 58.1274 54.4041 58.2601 54.5375C58.3596 56.4047 58.5255 58.2386 58.4592 60.0725Z" fill="#E5D1D3"/>
<path d="M11.6422 39.4329C11.4763 39.633 11.244 39.533 11.0449 39.5663C11.244 39.4329 11.4431 39.3996 11.6422 39.4329Z" fill="#B77B57"/>
<path d="M58.294 54.5375C58.1612 54.4041 58.1281 54.2374 58.294 54.104C58.3271 54.2374 58.3271 54.4041 58.294 54.5375Z" fill="#B77B57"/>
<path d="M61.6104 36.0641C61.5775 35.9979 61.5115 35.9647 61.4785 35.8984C61.5775 35.9316 61.6434 35.9647 61.6104 36.0641Z" fill="#BD865F"/>
<path d="M61.4774 35.9314C61.4114 35.8983 61.3785 35.832 61.3125 35.7988C61.4114 35.7988 61.4774 35.832 61.4774 35.9314Z" fill="#BD865F"/>
<path d="M61.3116 35.7644C61.2786 35.7313 61.2127 35.665 61.1797 35.6318C61.2456 35.6318 61.3116 35.6981 61.3116 35.7644Z" fill="#BD865F"/>
<path d="M66.0897 4.35535C66.3883 3.78851 67.1514 3.52177 67.6823 3.25502C68.0141 3.0883 68.3791 3.02162 68.7441 3.15499C68.9763 3.22168 69.2086 3.28836 69.4077 3.35505C70.0713 3.55511 70.2703 3.52177 70.6685 2.92159C71.0667 2.28806 71.5975 1.95463 72.3275 1.8546C73.0574 1.75457 73.5551 1.98797 73.8206 2.68818C74.2519 3.72183 74.1524 4.72213 73.7874 5.75578C73.3892 6.85611 72.5929 7.65635 71.7634 8.42325C71.6307 8.52328 71.498 8.58997 71.3321 8.58997C69.2086 8.82337 66.4215 7.08952 65.8574 5.58906C65.8906 5.12225 66.0897 4.82216 66.0897 4.35535Z" fill="#C6404A"/>
<path d="M65.0956 12.9581C65.0293 14.4919 64.5648 15.7923 63.503 16.8593C63.2708 17.126 63.0053 17.3261 62.6403 17.2594C61.1804 17.026 59.8532 16.5259 58.7915 15.4922C58.7583 15.4589 58.7251 15.4255 58.6919 15.3922C57.962 14.5919 57.7961 13.7584 58.2274 13.1248C58.7583 12.3579 59.9528 12.0245 60.8154 12.3579C61.6781 12.6914 61.7113 12.6914 62.209 11.9245C62.4413 11.591 62.7067 11.3243 63.0385 11.0909C63.8348 10.524 64.5648 10.7575 64.8966 11.6911C64.9629 11.8911 65.0293 12.0912 65.0625 12.2913C65.0956 12.4913 65.0956 12.7581 65.0956 12.9581Z" fill="#D45B5F"/>
<path d="M73.457 16.7264C73.9547 17.1932 73.822 17.7933 73.6561 18.3268C73.3574 19.3271 72.6938 20.0607 71.9639 20.7609C71.8312 20.8943 71.6321 20.9276 71.4662 20.9276C70.6035 20.9276 69.8072 20.6942 69.0772 20.2608C68.6127 19.9607 68.3473 19.4939 68.2478 18.9604C68.0487 17.9934 68.7786 17.2265 69.7408 17.3932C69.9067 17.4266 70.0395 17.4599 70.1722 17.5266C70.7031 17.86 71.1344 17.7933 71.5657 17.3265C71.8644 16.9598 72.2625 16.7264 72.7602 16.6597C72.9925 16.6597 73.2247 16.693 73.457 16.7264Z" fill="#D38489"/>
<path d="M73.4566 16.7262C73.2243 16.6928 73.0252 16.6595 72.793 16.6261C73.0252 16.4594 73.2575 16.3594 73.4566 16.7262Z" fill="#CFB6A9"/>
<path d="M30.1906 30.997C30.6883 30.8637 31.186 30.7636 31.7168 30.6302C31.8496 30.5969 31.9823 30.5636 32.115 30.5636C32.5795 30.5302 32.845 30.6636 32.9113 30.997C32.9777 31.3305 32.8118 31.5639 32.3473 31.6972C31.8496 31.8306 31.2855 31.8306 30.8542 32.0974C28.8634 32.5308 27.4698 33.6645 26.5408 35.465C26.5076 35.5317 26.4744 35.5984 26.4412 35.6985C26.209 36.2319 25.9435 36.432 25.6117 36.2653C25.2799 36.1319 25.1804 35.7651 25.3795 35.2316C25.6781 34.3981 26.1758 33.6978 26.8062 33.0643C27.7353 32.064 28.9297 31.4638 30.1906 30.997Z" fill="#875A44"/>
<path d="M49.1018 30.0966C50.3958 30.0966 51.5571 30.53 52.6189 31.2636C53.8465 32.0972 54.7092 33.2309 55.3396 34.5646C55.5387 34.9981 55.4723 35.2982 55.1737 35.4649C54.8751 35.6316 54.5765 35.5316 54.3442 35.1314C54.112 34.7647 53.9129 34.3312 53.6475 33.9978C52.1875 31.9638 50.3295 30.8968 47.7746 31.497C47.3433 31.597 47.0447 31.4303 46.9451 31.1302C46.8456 30.8301 47.0447 30.53 47.476 30.3967C48.0069 30.1633 48.5378 30.0632 49.1018 30.0966Z" fill="#875A44"/>
<path d="M22.8901 92.1491C22.8569 90.6153 22.9565 88.6814 23.1224 86.7475C23.1556 86.5141 23.1224 86.2473 23.2551 86.0473C23.3215 85.9139 23.4542 85.8472 23.5869 85.8806C23.7196 85.9139 23.8192 86.0139 23.8192 86.1807C23.8192 86.4474 23.8192 86.7142 23.786 86.9809C23.5869 89.1816 23.5205 91.3822 23.5205 93.6162C23.5205 94.9833 23.6201 96.3504 23.7196 97.6841C23.7196 97.8175 23.7528 97.9175 23.7528 98.0509C23.7528 98.351 23.8192 98.7511 23.4542 98.7511C23.0892 98.7845 23.1224 98.3844 23.0892 98.0843C22.8901 96.2504 22.8238 94.4165 22.8901 92.1491Z" fill="#629B56"/>
<path d="M20.2357 84.1465C21.0984 84.1798 21.8947 84.3465 22.6579 84.5466C22.857 84.6133 23.056 84.68 23.2219 84.8133C23.3215 84.9134 23.3878 85.0468 23.3215 85.1801C23.2219 85.3468 23.056 85.4135 22.857 85.3468C21.8616 84.9801 20.833 84.8467 19.7712 84.8133C19.5721 84.8133 19.4062 84.7133 19.4062 84.5133C19.4062 84.3465 19.539 84.2132 19.738 84.1798C19.9371 84.1465 20.103 84.1465 20.2357 84.1465Z" fill="#629B56"/>
<path d="M30.3552 49.7693C31.5829 49.736 32.7774 49.9027 33.9718 50.0694C34.5691 50.1695 35.1663 50.1361 35.7967 50.2028C37.0576 50.3028 38.2852 50.5696 39.5792 50.3362C40.4419 50.1695 41.3709 50.2028 42.2668 50.1695C43.7599 50.1028 45.1866 49.7693 46.6465 49.5693C48.7037 49.2692 50.794 49.0358 52.818 49.636C54.0456 50.0028 55.0079 50.7363 55.7378 51.7366C56.8327 53.2371 57.3968 54.8709 57.5959 56.6714C57.6954 57.5384 57.8613 58.4386 57.9277 59.3056C58.0272 60.4726 57.795 61.6396 57.5627 62.7733C57.065 65.2407 56.2355 67.5747 54.9747 69.8088C53.6143 72.2428 51.7894 74.2768 49.6327 76.0773C48.4714 77.0443 47.3433 78.0112 46.1157 78.8782C44.9212 79.7117 43.594 80.2452 42.1673 80.512C41.4041 80.6454 40.641 80.7787 39.8778 80.6454C39.2806 80.5453 38.6502 80.6454 38.053 80.5787C37.3562 80.512 36.7258 80.2119 36.0953 79.9452C33.0428 78.6448 30.4548 76.7775 28.2981 74.3768C26.0419 71.9094 24.5488 69.0085 23.6861 65.8075C23.1884 64.1404 22.923 62.4065 22.7571 60.6727C22.4916 57.505 23.3875 54.6041 25.0465 51.9033C25.9091 50.4696 27.3359 49.9361 28.9617 49.7693C29.4262 49.736 29.8907 49.7693 30.3552 49.7693Z" fill="#D6B4B5"/>
<path d="M44.6903 60.3394C44.8562 58.9057 44.8893 57.2718 45.4534 55.738C45.8184 54.7711 46.3492 53.9708 47.4442 53.7041C48.6718 53.404 50.4304 54.4043 50.729 55.638C50.8285 56.0715 50.6958 56.4716 50.5299 56.8384C50.2645 57.4719 49.9327 58.0721 49.5013 58.6056C48.8709 59.4392 48.2405 60.2728 47.6101 61.1063C47.3778 61.4064 47.1124 61.6398 46.8469 61.9066C46.4156 62.3067 45.9179 62.4401 45.387 62.2067C44.8893 61.9733 44.6239 61.5065 44.6571 60.9063C44.6903 60.8062 44.6903 60.6729 44.6903 60.3394Z" fill="#161616"/>
<path d="M36.6604 59.8057C36.6604 60.3059 36.6935 60.6727 36.4945 61.0061C36.1295 61.673 35.665 61.8063 35.0014 61.4395C34.6032 61.2061 34.205 60.9061 33.9064 60.5393C32.8447 59.2055 31.8493 57.8385 31.053 56.3047C30.4225 55.1376 30.9202 53.5038 32.8447 53.4038C34.1719 53.3371 35.1341 54.0373 35.665 55.271C36.0963 56.2713 36.3286 57.3717 36.4945 58.4386C36.5608 58.9721 36.7599 59.4389 36.6604 59.8057Z" fill="#161616"/>
<path d="M34.8677 41.6C34.8677 42.2336 34.7018 43.1338 34.2373 44.0008C33.3746 45.5346 31.6825 45.5012 30.8862 44.1341C29.7249 42.2002 29.6253 40.1663 30.6871 38.1657C31.4834 36.6319 33.076 36.6319 34.0382 38.099C34.6687 39.0326 34.8677 40.1329 34.8677 41.6Z" fill="#161616"/>
<path d="M49.2348 42.0669C50.3297 42.0002 51.3915 41.9335 52.4864 41.8668C52.6523 41.8668 52.8182 41.8335 52.9841 41.8335C53.4155 41.8668 53.6809 42.1002 53.6809 42.467C53.6809 42.8004 53.4155 43.0672 53.0173 43.1005C52.3205 43.1672 51.6569 43.2006 50.9601 43.2339C49.4339 43.3006 47.8744 43.434 46.3481 43.6007C46.0495 43.634 45.7177 43.634 45.4191 43.6007C45.0541 43.5673 44.7555 43.3673 44.6892 43.0005C44.656 42.6337 44.8551 42.4003 45.1537 42.2669C45.585 42.0669 46.0495 41.9002 46.514 41.7335C48.0071 41.1333 49.4339 40.4664 50.7942 39.5995C51.3915 39.2327 51.9887 38.8326 52.4532 38.2324C52.6855 37.9656 52.9509 37.8323 53.2827 38.0657C53.5813 38.2657 53.6477 38.6325 53.4486 38.9993C53.2495 39.3327 52.9841 39.5661 52.6855 39.7995C51.7565 40.5664 50.7279 41.1666 49.6329 41.7001C49.5002 41.7668 49.3343 41.8668 49.2016 41.9335C49.2016 41.9669 49.2016 42.0335 49.2348 42.0669Z" fill="#161616"/>
<path d="M30.7538 64.4405C30.3556 64.6072 30.2892 64.9073 30.1565 65.1407C29.9906 65.4408 29.7584 65.5408 29.4266 65.4408C29.128 65.3407 28.9952 65.074 29.0284 64.7405C29.0284 64.4738 29.1611 64.2404 29.2939 64.0403C29.7916 63.3735 30.4551 62.94 31.1851 62.6066C31.7492 62.3732 32.2137 62.6733 32.1473 63.2734C32.1141 63.6736 32.2469 63.9403 32.4791 64.207C34.0386 66.2743 36.0957 67.5747 38.5842 68.2416C42.599 69.3086 46.3815 68.6751 49.9317 66.5744C50.164 66.4411 50.3631 66.2743 50.5953 66.1743C50.8939 66.0409 51.1594 66.0743 51.3584 66.3744C51.5243 66.6411 51.4912 66.9412 51.2589 67.1413C51.093 67.308 50.8939 67.4414 50.6949 67.5414C49.3013 68.4083 47.8414 69.0752 46.2488 69.442C45.8838 69.542 45.5188 69.5753 45.4856 70.0755C45.4856 70.1755 45.3861 70.2756 45.3197 70.3756C42.6322 73.3432 39.3473 73.91 36.1953 71.876C34.8681 71.0091 33.8727 69.8754 32.9768 68.575C32.081 67.308 31.3842 65.9076 30.7538 64.4405ZM38.1861 70.609C39.5796 71.776 41.3713 71.8427 42.3004 70.8424C40.94 70.8424 39.646 70.8757 38.1861 70.609Z" fill="#161616"/>
<path d="M59.5538 25.2618L59.5207 25.2951L59.4875 25.2618C59.1557 25.2618 58.8902 25.1618 58.6248 24.9284C57.8617 24.2282 56.9326 23.7613 55.9041 23.5946C55.34 23.4946 54.8423 23.3946 54.2451 23.4946C53.3824 23.628 52.4865 23.4279 51.6239 23.3946C48.5381 23.2945 45.4856 23.3279 42.3999 23.2279C37.3233 23.0945 32.2468 23.1945 27.1371 23.1612C26.1749 23.1612 25.2127 23.4279 24.2505 23.3612C23.985 23.3279 23.7528 23.4946 23.5205 23.6613C23.2883 23.828 23.0228 24.0281 22.7906 24.1948C22.5251 24.3949 22.3261 24.4282 22.1602 24.1281C22.6247 22.8277 23.5205 21.8608 24.6155 21.0605C25.1463 20.6604 25.4118 20.2603 25.2127 19.5601C25.5777 19.4934 25.9095 19.3934 26.009 18.9599C26.4735 19.5601 27.1371 19.4267 27.7344 19.36C30.2892 19.0266 32.8441 18.8932 35.3989 18.8599C37.9869 18.8599 40.575 18.8932 43.1962 19.0599C46.2155 19.26 49.2349 19.46 52.2211 19.9269C54.6432 20.2936 57.1649 20.7604 58.4589 23.0278C58.7243 23.4613 58.9898 23.9614 59.1557 24.1615C59.4211 24.5616 59.6534 24.795 59.5538 25.2618Z" fill="#F0E7E8"/>
<path d="M55.804 51.6367C55.439 51.7034 55.1072 51.6033 54.8086 51.4366C53.2823 50.7031 51.7228 50.8364 50.1302 51.1365C48.9689 51.3366 47.8076 51.5366 46.6131 51.67C45.6178 51.77 44.6224 52.0034 43.627 52.1035C42.7643 52.2035 41.8684 52.4369 41.0058 52.4036C40.5081 52.3702 40.0435 52.637 39.5458 52.6036C37.92 52.4369 36.261 52.5036 34.602 52.2702C34.5357 52.2702 34.4693 52.2369 34.403 52.2369C32.2463 52.2702 30.1228 51.9034 27.9661 52.0368C26.838 52.1035 25.8094 52.5036 24.8472 53.0704C24.6481 53.2038 24.4822 53.4372 24.1504 53.1705C24.5154 52.4703 24.9467 51.8367 25.5108 51.2699C25.7762 51.0031 26.1744 50.8031 26.108 50.3029C27.5347 49.7028 29.061 49.7361 30.5541 49.8695C32.5117 50.0362 34.4693 50.2696 36.3938 50.4696C38.1191 50.6697 39.8113 50.3696 41.5366 50.3029C43.3615 50.2362 45.1201 49.8361 46.9118 49.536C48.7035 49.2026 50.4952 49.0692 52.3201 49.436C53.415 49.6694 54.4104 50.1696 55.2399 50.9031C55.5385 51.1032 55.804 51.2699 55.804 51.6367Z" fill="#D8BDBE"/>
</svg>
