<svg width="489" height="494" viewBox="0 0 489 494" fill="none" xmlns="http://www.w3.org/2000/svg">
<rect width="489" height="494" fill="#F5F5F5"/>
<g id="Telas desktop">
<rect width="1366" height="768" transform="translate(-121.875 -160.768)" fill="#333333"/>
</g>
<rect id="Rectangle 83" x="-121.875" y="-160.768" width="752.066" height="768" fill="#666666"/>
<g id="freepik--background-complete--inject-70">
<path id="Vector" d="M77.4176 186.599C72.1147 189.875 66.0043 191.611 59.7708 191.611C53.5373 191.611 47.4268 189.875 42.124 186.599C35.9136 182.759 31.1247 177 28.4836 170.193C25.8425 163.386 25.4932 155.904 27.4888 148.88C29.4844 141.857 33.716 135.676 39.5417 131.275C45.3675 126.874 52.4695 124.493 59.7708 124.493C67.072 124.493 74.1741 126.874 79.9998 131.275C85.8256 135.676 90.0572 141.857 92.0527 148.88C94.0484 155.904 93.6991 163.386 91.058 170.193C88.4169 177 83.628 182.759 77.4176 186.599Z" fill="#4D4D4D"/>
<path id="Vector_2" d="M69.9823 154.179C69.9823 156.199 69.3833 158.174 68.2611 159.853C67.1389 161.533 65.5439 162.842 63.6778 163.615C61.8116 164.388 59.7582 164.59 57.7771 164.196C55.796 163.802 53.9762 162.829 52.5479 161.401C51.1196 159.972 50.1469 158.153 49.7529 156.172C49.3588 154.19 49.5611 152.137 50.3341 150.271C51.107 148.405 52.416 146.81 54.0955 145.687C55.775 144.565 57.7496 143.966 59.7695 143.966C62.4781 143.966 65.0758 145.042 66.991 146.958C68.9063 148.873 69.9823 151.471 69.9823 154.179Z" fill="#CCCCCC"/>
<path id="Vector_3" d="M77.4167 182.347V186.599C72.1138 189.875 66.0034 191.611 59.7699 191.611C53.5364 191.611 47.4259 189.875 42.123 186.599V182.395C42.123 177.715 43.9823 173.226 47.2917 169.917C50.6011 166.607 55.0896 164.748 59.7699 164.748C64.4501 164.748 68.9386 166.607 72.2481 169.917C75.5575 173.226 77.4167 177.715 77.4167 182.395V182.347Z" fill="#CCCCCC"/>
<path id="Vector_4" d="M32.5871 47.217C33.1769 46.8559 33.855 46.6648 34.5466 46.6648C35.2381 46.6648 35.9162 46.8559 36.506 47.217C36.8385 47.407 37.171 47.6089 37.5154 47.787C37.8598 47.9652 38.2042 48.1433 38.5605 48.3096C39.1874 48.597 39.7231 49.0516 40.1085 49.6235C40.494 50.1954 40.7144 50.8625 40.7455 51.5515L40.888 56.3848L56.6111 55.9692L56.4567 51.1478C56.4417 50.4568 56.6179 49.7751 56.9657 49.1779C57.3136 48.5807 57.8196 48.0912 58.428 47.7633C59.1139 47.4037 59.7799 47.0073 60.423 46.5757C60.9877 46.1773 61.6517 45.9432 62.3413 45.8991C63.031 45.8551 63.7193 46.003 64.3301 46.3264L68.5696 48.6064L76.0273 34.6529L71.7878 32.3728C71.1812 32.0448 70.6777 31.5546 70.3338 30.9569C69.9898 30.3592 69.819 29.6776 69.8402 28.9883C69.8549 28.1957 69.8271 27.4029 69.7571 26.6132C69.685 25.9168 69.8091 25.214 70.1155 24.5844C70.4219 23.9549 70.8983 23.4235 71.4909 23.0506L75.5879 20.5093L67.2751 7.28008L63.1544 9.77391C62.5669 10.1353 61.8906 10.3266 61.2009 10.3266C60.5111 10.3266 59.8349 10.1353 59.2474 9.77391C58.9268 9.57203 58.5824 9.38203 58.2499 9.2039L57.2167 8.68138C56.5866 8.39365 56.0481 7.93763 55.6604 7.36353C55.2728 6.78943 55.0511 6.11952 55.0197 5.42753L54.8772 0.594238L39.2136 1.05738L39.368 5.86691C39.387 6.55863 39.2126 7.24192 38.8643 7.83987C38.516 8.43781 38.0077 8.92668 37.3967 9.2514C36.7123 9.61381 36.0465 10.0102 35.4016 10.4389C34.837 10.8373 34.173 11.0715 33.4833 11.1155C32.7937 11.1596 32.1053 11.0117 31.4946 10.6883L27.1957 8.46762L19.7617 22.3381L24.0012 24.6063C24.6097 24.9351 25.1144 25.4272 25.4584 26.0273C25.8025 26.6273 25.9723 27.3114 25.9488 28.0026C25.9341 28.7952 25.9619 29.5881 26.0319 30.3777C26.1041 31.0742 25.9799 31.7769 25.6735 32.4065C25.3671 33.0361 24.8907 33.5674 24.2981 33.9403L20.213 36.3985L28.5258 49.7583L32.5871 47.217ZM36.5298 22.4093C37.7336 20.1662 39.5755 18.3304 41.8226 17.134C44.0697 15.9376 46.6211 15.4343 49.1542 15.6878C51.6873 15.9413 54.0884 16.9402 56.0539 18.5582C58.0193 20.1761 59.4609 22.3405 60.1964 24.7777C60.9319 27.2149 60.9282 29.8155 60.1858 32.2506C59.4435 34.6857 57.9958 36.846 56.0258 38.4584C54.0557 40.0709 51.6519 41.0629 49.118 41.3093C46.5842 41.5556 44.0343 41.0451 41.7906 39.8424C38.7829 38.2266 36.5395 35.483 35.5531 32.2144C34.5667 28.9457 34.918 25.4192 36.5298 22.4093Z" fill="#4D4D4D"/>
<path id="Vector_5" d="M465.897 360.279C466.146 359.863 466.505 359.523 466.935 359.297C467.364 359.071 467.847 358.967 468.331 358.996H469.139H469.958C470.433 358.975 470.905 359.083 471.323 359.309C471.742 359.535 472.091 359.87 472.333 360.279L474.02 363.212L483.52 357.702L481.834 354.769C481.592 354.348 481.473 353.868 481.49 353.384C481.507 352.899 481.659 352.429 481.929 352.026C482.227 351.57 482.501 351.098 482.748 350.612C482.967 350.172 483.307 349.802 483.727 349.546C484.147 349.289 484.631 349.157 485.123 349.164H488.496V338.143H485.123C484.631 338.149 484.148 338.016 483.728 337.76C483.308 337.503 482.968 337.134 482.748 336.694C482.501 336.209 482.227 335.737 481.929 335.281C481.659 334.876 481.507 334.404 481.49 333.917C481.474 333.431 481.592 332.949 481.834 332.526L483.52 329.605L474.02 324.095L472.322 327.04C472.08 327.449 471.731 327.784 471.312 328.008C470.893 328.232 470.421 328.337 469.946 328.31H469.127H468.32C467.835 328.342 467.351 328.238 466.922 328.012C466.492 327.786 466.133 327.445 465.885 327.028L464.199 324.095L454.698 329.605L456.385 332.526C456.626 332.947 456.745 333.427 456.729 333.911C456.712 334.396 456.56 334.867 456.29 335.269C455.991 335.729 455.718 336.205 455.47 336.694C455.25 337.134 454.911 337.503 454.491 337.76C454.071 338.016 453.587 338.149 453.095 338.143H449.723V349.164H453.095C453.587 349.158 454.071 349.291 454.491 349.547C454.911 349.804 455.25 350.173 455.47 350.612C455.724 351.103 455.997 351.578 456.29 352.038C456.56 352.44 456.712 352.911 456.729 353.396C456.745 353.88 456.626 354.36 456.385 354.781L454.698 357.702L464.199 363.212L465.897 360.279ZM460.114 343.653C460.114 341.868 460.643 340.123 461.635 338.639C462.626 337.155 464.036 335.998 465.685 335.315C467.334 334.632 469.149 334.453 470.9 334.802C472.65 335.15 474.259 336.009 475.521 337.272C476.783 338.534 477.643 340.142 477.991 341.893C478.339 343.643 478.16 345.458 477.477 347.107C476.794 348.756 475.637 350.166 474.153 351.158C472.669 352.149 470.924 352.679 469.139 352.679C466.746 352.676 464.452 351.724 462.761 350.032C461.069 348.34 460.117 346.046 460.114 343.653Z" fill="#4D4D4D"/>
<path id="Vector_6" d="M72.8686 75.219C73.2775 75.4616 73.6127 75.8108 73.8386 76.2291C74.0645 76.6474 74.1725 77.1192 74.1512 77.5941C74.1512 77.8673 74.1512 78.1404 74.1512 78.4135C74.1512 78.6867 74.1512 78.9598 74.1512 79.2211C74.1738 79.6962 74.0664 80.1685 73.8404 80.5871C73.6144 81.0056 73.2784 81.3545 72.8686 81.5961L69.9473 83.2943L75.4456 92.7946L78.4025 91.2389C78.8232 90.9974 79.303 90.8783 79.7877 90.8951C80.2725 90.9119 80.7429 91.0639 81.1458 91.3339C81.6057 91.6324 82.0814 91.906 82.5708 92.1534C83.0093 92.3742 83.3767 92.7142 83.6308 93.1343C83.885 93.5543 84.0156 94.0375 84.0077 94.5284V97.901H95.0281V94.5284C95.0227 94.0365 95.1557 93.5531 95.4119 93.1331C95.668 92.7132 96.0371 92.3737 96.4769 92.1534C96.9598 91.9 97.4348 91.6269 97.9019 91.3339C98.3048 91.0639 98.7752 90.9119 99.26 90.8951C99.7447 90.8783 100.225 90.9974 100.645 91.2389L103.566 92.9252L109.077 83.4249L106.132 81.7268C105.725 81.4826 105.392 81.1329 105.168 80.7147C104.945 80.2965 104.838 79.8254 104.861 79.3517C104.861 79.0786 104.861 78.8054 104.861 78.5441C104.861 78.2829 104.861 77.9979 104.861 77.7248C104.84 77.2498 104.948 76.778 105.173 76.3597C105.399 75.9414 105.735 75.5923 106.143 75.3497L109.077 73.6515L103.566 64.1512L100.657 65.8375C100.234 66.0787 99.7525 66.1976 99.266 66.1809C98.7795 66.1641 98.3072 66.0123 97.9019 65.7425C97.4435 65.4415 96.9677 65.1679 96.4769 64.9231C96.0371 64.7028 95.668 64.3633 95.4119 63.9433C95.1557 63.5234 95.0227 63.0399 95.0281 62.548V59.0566H83.984V62.4293C83.9907 62.9214 83.8583 63.4055 83.602 63.8257C83.3457 64.2459 82.9759 64.5851 82.5352 64.8043C82.0443 65.0498 81.5693 65.3229 81.1101 65.6237C80.7072 65.8938 80.2368 66.0458 79.7521 66.0626C79.2673 66.0794 78.7875 65.9603 78.3669 65.7187L75.4456 64.0324L69.9473 73.5327L72.8686 75.219ZM89.4942 69.4239C91.2787 69.4239 93.0232 69.9529 94.5071 70.9441C95.9911 71.9353 97.1478 73.3441 97.8313 74.9926C98.5147 76.6411 98.6942 78.4551 98.3469 80.2055C97.9996 81.9559 97.1412 83.5641 95.8802 84.8268C94.6192 86.0895 93.0121 86.95 91.2622 87.2996C89.5122 87.6492 87.6979 87.4721 86.0485 86.7908C84.3992 86.1096 82.9888 84.9546 81.9957 83.472C81.0025 81.9893 80.4712 80.2456 80.4689 78.461C80.4689 76.0663 81.4194 73.7694 83.1116 72.075C84.8038 70.3805 87.0994 69.427 89.4942 69.4239Z" fill="#4D4D4D"/>
<path id="Vector_7" d="M487.011 21.3789H421.162V101.253H487.011V21.3789Z" fill="#4D4D4D"/>
<path id="Vector_8" d="M479.481 28.6704H428.678V93.9613H479.481V28.6704Z" fill="#CCCCCC"/>
<path id="Vector_9" d="M430.661 28.6704H428.678V93.9613H430.661V28.6704Z" fill="#333333"/>
<path id="Vector_10" d="M488.983 21.3789H487V101.253H488.983V21.3789Z" fill="#333333"/>
<path id="Vector_11" d="M455.209 79.4492H467.191V43.7637H455.209V79.4492Z" fill="#333333"/>
<path id="Vector_12" d="M473.009 55.7462H439.889V37.0781H473.009V55.7462ZM441.076 54.5587H471.822V38.2657H441.076V54.5587Z" fill="#333333"/>
<path id="Vector_13" d="M487.011 218.202H421.162V298.076H487.011V218.202Z" fill="#4D4D4D"/>
<path id="Vector_14" d="M479.481 225.493H428.678V290.784H479.481V225.493Z" fill="#CCCCCC"/>
<path id="Vector_15" d="M430.661 225.493H428.678V290.784H430.661V225.493Z" fill="#333333"/>
<path id="Vector_16" d="M488.983 218.202H487V298.076H488.983V218.202Z" fill="#333333"/>
<path id="Vector_17" d="M457.691 240.599H445.709V276.284H457.691V240.599Z" fill="#333333"/>
<path id="Vector_18" d="M473.009 252.569H439.889V233.901H473.009V252.569ZM441.076 251.381H471.822V235.088H441.076V251.381Z" fill="#333333"/>
<path id="Vector_19" d="M487.011 120.146H421.162V200.02H487.011V120.146Z" fill="#4D4D4D"/>
<path id="Vector_20" d="M479.481 127.438H428.678V192.729H479.481V127.438Z" fill="#CCCCCC"/>
<path id="Vector_21" d="M430.661 127.438H428.678V192.729H430.661V127.438Z" fill="#333333"/>
<path id="Vector_22" d="M488.983 120.146H487V200.02H488.983V120.146Z" fill="#333333"/>
<path id="Vector_23" d="M459.424 144.312H449.164V170.26H459.424V144.312Z" fill="#333333"/>
<path id="Vector_24" d="M470.825 178.561H442.062V159.489H470.825V178.561ZM443.25 177.374H469.637V160.677H443.25V177.374Z" fill="#333333"/>
<path id="Vector_25" d="M42.4316 248.094V493.532H146.092V248.094H42.4316ZM51.8488 339.059H136.722V402.958H51.8488V339.059ZM51.8488 259.953H136.722V323.852H51.8488V259.953Z" fill="#4D4D4D"/>
<path id="Vector_26" d="M0.962788 493.533H42.4316L42.4316 248.111H0.962788L0.962788 493.533Z" fill="#333333"/>
<path id="Vector_27" d="M116.545 374.921H136.709V330.269H116.545V374.921Z" fill="#DBDBDB"/>
<path id="Vector_28" d="M136.59 483.201H51.4082V439.737H136.59V483.201ZM52.2751 482.31H135.723V440.627H52.2751V482.31Z" fill="#333333"/>
<path id="Vector_29" d="M101.428 460.448H83.7812V452.36H101.428V460.448ZM84.6719 459.557H100.537V453.251H84.6719V459.557Z" fill="#333333"/>
<path id="Vector_30" d="M116.545 430.225H136.709V385.573H116.545V430.225Z" fill="#DBDBDB"/>
</g>
<g id="freepik--Plant--inject-70">
<path id="Vector_31" d="M26.4367 454.205C28.3555 451.004 30.09 447.696 31.632 444.297C32.2832 440.642 33.229 437.045 34.4601 433.543C34.4601 433.48 34.5718 433.543 34.5579 433.585C33.8037 436.811 32.9239 440.016 32.1278 443.235C34.4252 438.257 36.6108 433.222 39.3481 428.515C39.9805 426.243 40.8659 424.048 41.9877 421.972C41.9877 421.91 42.1204 421.972 42.0924 422.007C41.3987 423.598 40.8041 425.231 40.3118 426.895C41.6034 424.797 43.0506 422.799 44.6412 420.918C44.7389 420.799 44.9415 420.918 44.8437 421.051C41.1777 425.729 38.6499 431.043 36.2477 436.413C38.8338 433.606 41.2208 430.622 43.3912 427.482C43.3912 427.482 43.4611 427.482 43.4401 427.517C41.1685 431.038 38.5987 434.358 35.7589 437.44C34.0062 441.385 32.2675 445.344 30.1726 449.094C34.3623 445.568 37.5605 440.994 40.7447 436.588C40.8146 436.49 40.9682 436.588 40.8984 436.692C37.7211 441.532 34.4252 446.084 29.8444 449.667C28.9164 451.318 27.8952 452.915 26.7859 454.45C26.7468 454.469 26.7034 454.477 26.6601 454.473C26.6169 454.47 26.5753 454.455 26.5398 454.43C26.5042 454.405 26.476 454.371 26.4579 454.332C26.4397 454.292 26.4325 454.249 26.4367 454.205Z" fill="#808080"/>
<path id="Vector_32" d="M20.7389 424.94C21.6077 430.123 22.9302 435.219 24.6912 440.17C24.6912 433.459 24.8519 426.749 25.0334 420.045C23.8806 415.973 23.231 411.776 23.0991 407.546C23.0991 407.427 23.2807 407.434 23.2877 407.546C23.6081 411.171 24.2081 414.766 25.0823 418.299C25.2359 412.764 25.4151 407.229 25.62 401.694C25.6249 401.678 25.6346 401.665 25.6478 401.655C25.661 401.645 25.6769 401.64 25.6933 401.64C25.7097 401.64 25.7256 401.645 25.7388 401.655C25.752 401.665 25.7617 401.678 25.7666 401.694C25.7666 410.339 25.7666 418.984 25.7108 427.629C26.9575 424.286 27.9428 420.852 28.6575 417.357C28.6575 417.322 28.7204 417.357 28.7204 417.357C28.3077 421.383 27.2883 425.324 25.6968 429.046C25.6549 434.577 25.599 440.1 25.4733 445.624C27.2051 439.765 29.0416 434.081 29.5583 427.894C29.5629 427.88 29.5718 427.868 29.5837 427.859C29.5956 427.851 29.61 427.846 29.6247 427.846C29.6394 427.846 29.6537 427.851 29.6656 427.859C29.6775 427.868 29.6864 427.88 29.691 427.894C29.5514 434.744 27.7847 441.692 25.5013 448.144C25.4758 448.205 25.4377 448.26 25.3895 448.305C25.3337 450.323 25.2778 452.348 25.208 454.366C25.208 454.425 25.1844 454.482 25.1425 454.524C25.1006 454.566 25.0438 454.59 24.9845 454.59C24.9253 454.59 24.8684 454.566 24.8265 454.524C24.7846 454.482 24.7611 454.425 24.7611 454.366C24.6866 450.232 24.654 446.098 24.6633 441.964C22.4395 436.541 21.089 430.8 20.6621 424.954C20.6621 424.905 20.7319 424.891 20.7389 424.94Z" fill="#808080"/>
<path id="Vector_33" d="M21.4445 422.028C21.7952 423.669 22.0285 425.333 22.1427 427.007C22.1427 427.063 22.0589 427.07 22.045 427.007C21.6472 425.375 21.3671 423.715 21.207 422.042C21.207 421.924 21.4165 421.903 21.4445 422.028Z" fill="#263238"/>
<path id="Vector_34" d="M27.4278 408.244C27.4278 408.189 27.5255 408.21 27.5255 408.244C27.5103 409.407 27.3388 410.563 27.0158 411.68C27.013 411.689 27.0085 411.698 27.0024 411.705C26.9964 411.713 26.9889 411.719 26.9805 411.723C26.9721 411.728 26.9628 411.731 26.9533 411.732C26.9438 411.733 26.9342 411.732 26.925 411.729C26.9158 411.726 26.9073 411.722 26.8999 411.716C26.8925 411.71 26.8863 411.702 26.8818 411.694C26.8772 411.685 26.8744 411.676 26.8734 411.666C26.8725 411.657 26.8734 411.647 26.8761 411.638C27.0996 410.521 27.2392 409.383 27.4278 408.244Z" fill="#263238"/>
<path id="Vector_35" d="M10.8858 437.754C13.1703 441.194 15.7397 444.436 18.567 447.446C17.4428 443.424 16.13 439.465 14.6566 435.575C11.4933 432.782 8.37196 429.926 6.40976 426.128C6.40235 426.115 6.4004 426.099 6.40433 426.085C6.40826 426.07 6.41775 426.058 6.43071 426.051C6.44367 426.043 6.45905 426.041 6.47346 426.045C6.48786 426.049 6.50011 426.059 6.50752 426.072C8.60239 429.437 11.3956 432.126 14.3214 434.716C12.0582 428.855 9.43459 423.139 6.46562 417.601C6.45245 417.573 6.45038 417.541 6.4598 417.511C6.46922 417.481 6.48947 417.456 6.51656 417.44C6.54365 417.424 6.57565 417.419 6.60627 417.426C6.63689 417.432 6.66393 417.45 6.68209 417.476C8.47703 420.376 10.1089 423.374 11.5701 426.456C11.0464 424.361 10.6205 422.203 10.0758 420.115C10.0794 420.106 10.0857 420.098 10.0938 420.093C10.1019 420.087 10.1114 420.084 10.1212 420.084C10.1309 420.084 10.1405 420.087 10.1486 420.093C10.1567 420.098 10.1629 420.106 10.1666 420.115C11.2797 422.803 12.0584 425.617 12.4849 428.495C14.4613 432.858 16.1228 437.357 17.4567 441.958C17.3101 439.011 17.1285 436.071 16.8213 433.131C16.8213 433.075 16.9121 433.062 16.919 433.131C17.55 436.398 17.8379 439.721 17.7779 443.047C18.588 445.98 19.27 448.943 19.8239 451.936C19.8239 452.013 19.7192 452.055 19.6982 451.971C19.398 450.714 19.0628 449.471 18.7206 448.235C18.7206 448.235 18.6787 448.235 18.6578 448.235C15.5106 445.199 12.8848 441.665 10.8858 437.775V437.754Z" fill="#808080"/>
<path id="Vector_36" d="M4.37057 421.742C4.99903 422.441 5.57861 423.139 6.18613 423.837C6.77517 424.429 7.31903 425.064 7.81314 425.737C7.81819 425.743 7.82064 425.752 7.82004 425.76C7.81944 425.768 7.81584 425.776 7.8099 425.782C7.80396 425.788 7.79607 425.792 7.78769 425.792C7.77931 425.793 7.77099 425.79 7.76426 425.785C7.05765 425.253 6.42584 424.629 5.88586 423.928C5.29289 423.276 4.75565 422.575 4.27979 421.833C4.24488 421.756 4.32867 421.693 4.37057 421.742Z" fill="#263238"/>
<path id="Vector_37" d="M37.302 456.028L36.6037 465.351L34.446 493.534H15.7737L13.6299 465.351L12.9316 456.028H37.3718H37.302Z" fill="#37474F"/>
<path id="Vector_38" d="M37.302 456.028L36.8691 461.691L13.3856 462.634L12.8828 456.028H37.323H37.302Z" fill="#263238"/>
<path id="Vector_39" d="M11.2198 458.598H38.9629V451.447H11.2198V458.598Z" fill="#37474F"/>
</g>
<g id="freepik--Floor--inject-70">
<path id="Vector_40" d="M0.962891 493.533L64.2587 493.236L127.566 493.141L254.158 492.939L380.762 493.129L444.057 493.236L507.353 493.533L444.057 493.818L380.762 493.925L254.158 494.127L127.566 493.925L64.2587 493.818L0.962891 493.533Z" fill="#263238"/>
</g>
<g id="freepik--Device--inject-70">
<path id="Vector_41" d="M411.51 478.225V31.0457C411.51 22.5916 404.656 15.7383 396.202 15.7383L107.155 15.7383C98.7014 15.7383 91.8481 22.5916 91.8481 31.0457V478.225C91.8481 486.679 98.7014 493.533 107.155 493.533H396.202C404.656 493.533 411.51 486.679 411.51 478.225Z" fill="#333333"/>
<path id="Vector_42" d="M398.018 49.1797H105.705V460.377H398.018V49.1797Z" fill="white"/>
<path id="Vector_43" d="M286.461 36.1401V34.1451C286.461 33.3252 285.796 32.6606 284.977 32.6606L218.379 32.6606C217.56 32.6606 216.895 33.3252 216.895 34.1451V36.1401C216.895 36.96 217.56 37.6246 218.379 37.6246L284.977 37.6246C285.796 37.6246 286.461 36.96 286.461 36.1401Z" fill="#263238"/>
<path id="Vector_44" d="M251.677 485.529C256.649 485.529 260.679 481.499 260.679 476.527C260.679 471.556 256.649 467.526 251.677 467.526C246.706 467.526 242.676 471.556 242.676 476.527C242.676 481.499 246.706 485.529 251.677 485.529Z" fill="#4D4D4D"/>
<path id="Vector_45" d="M398.018 49.1797H105.705V460.377H398.018V49.1797Z" fill="#808080"/>
<path id="Vector_46" d="M314.309 267.829H189.32V285.939H314.309V267.829Z" fill="#F8F8F8"/>
<path id="Vector_47" d="M208.631 273.327C208.636 273.266 208.663 273.209 208.706 273.165C208.75 273.122 208.807 273.095 208.868 273.09C208.932 273.09 208.994 273.114 209.041 273.159C209.087 273.203 209.115 273.263 209.118 273.327V277.199C209.118 277.81 209.36 278.396 209.793 278.828C210.225 279.26 210.811 279.503 211.422 279.503C212.033 279.503 212.619 279.26 213.051 278.828C213.483 278.396 213.725 277.81 213.725 277.199V273.327C213.728 273.265 213.754 273.207 213.798 273.163C213.842 273.119 213.901 273.093 213.963 273.09C214.027 273.09 214.089 273.114 214.135 273.159C214.182 273.203 214.209 273.263 214.212 273.327V277.199C214.212 277.565 214.14 277.928 214 278.267C213.86 278.605 213.654 278.913 213.395 279.172C213.136 279.431 212.828 279.637 212.49 279.777C212.151 279.917 211.788 279.989 211.422 279.989C211.055 279.989 210.692 279.917 210.354 279.777C210.015 279.637 209.707 279.431 209.448 279.172C209.189 278.913 208.984 278.605 208.843 278.267C208.703 277.928 208.631 277.565 208.631 277.199V273.327Z" fill="#A6A6A6"/>
<path id="Vector_48" d="M216.16 278.98C216.181 278.957 216.206 278.939 216.235 278.926C216.264 278.913 216.295 278.907 216.326 278.907C216.357 278.907 216.388 278.913 216.417 278.926C216.445 278.939 216.471 278.957 216.492 278.98C216.915 279.319 217.435 279.514 217.977 279.538C218.306 279.544 218.628 279.44 218.891 279.241C219.001 279.186 219.093 279.101 219.158 278.996C219.222 278.891 219.256 278.771 219.256 278.647C219.256 278.524 219.222 278.404 219.158 278.299C219.093 278.194 219.001 278.109 218.891 278.054C218.584 277.855 218.234 277.733 217.87 277.697C217.483 277.647 217.111 277.518 216.777 277.317C216.622 277.234 216.492 277.11 216.401 276.96C216.309 276.81 216.259 276.638 216.255 276.462C216.26 276.274 216.31 276.089 216.401 275.924C216.492 275.759 216.621 275.618 216.777 275.512C217.131 275.286 217.545 275.174 217.965 275.192C218.485 275.218 218.986 275.4 219.402 275.714C219.453 275.75 219.489 275.805 219.503 275.866C219.516 275.928 219.505 275.993 219.473 276.047C219.435 276.096 219.381 276.131 219.32 276.144C219.259 276.157 219.195 276.148 219.14 276.118C218.807 275.833 218.39 275.662 217.953 275.631C217.626 275.616 217.304 275.713 217.038 275.904C216.947 275.967 216.872 276.05 216.818 276.147C216.764 276.244 216.734 276.352 216.73 276.462C216.73 276.558 216.756 276.653 216.804 276.736C216.852 276.819 216.92 276.888 217.003 276.937C217.3 277.125 217.638 277.239 217.988 277.27C218.406 277.327 218.81 277.464 219.176 277.674C219.34 277.779 219.475 277.923 219.571 278.092C219.666 278.262 219.718 278.453 219.722 278.647C219.714 278.843 219.66 279.034 219.566 279.205C219.471 279.376 219.337 279.523 219.176 279.633C218.829 279.88 218.414 280.013 217.988 280.013C217.332 279.984 216.702 279.742 216.195 279.324C216.168 279.306 216.145 279.282 216.128 279.253C216.111 279.225 216.1 279.193 216.097 279.161C216.094 279.128 216.097 279.094 216.108 279.063C216.119 279.032 216.137 279.004 216.16 278.98Z" fill="#A6A6A6"/>
<path id="Vector_49" d="M221.028 277.59C221.028 276.961 221.278 276.356 221.723 275.911C222.169 275.466 222.773 275.215 223.403 275.215C224.011 275.214 224.596 275.447 225.038 275.864C225.479 276.282 225.744 276.853 225.778 277.46C225.778 277.49 225.772 277.52 225.76 277.547C225.747 277.575 225.729 277.6 225.707 277.62C225.685 277.64 225.658 277.655 225.629 277.665C225.601 277.674 225.57 277.677 225.54 277.674H221.503C221.512 278.164 221.712 278.632 222.06 278.977C222.408 279.323 222.877 279.52 223.367 279.526C223.681 279.528 223.989 279.448 224.262 279.294C224.535 279.14 224.763 278.917 224.923 278.647C224.957 278.596 225.009 278.561 225.069 278.547C225.128 278.534 225.191 278.544 225.243 278.576C225.295 278.612 225.331 278.667 225.344 278.728C225.358 278.79 225.347 278.854 225.315 278.909C225.11 279.242 224.824 279.517 224.483 279.708C224.142 279.899 223.758 280 223.367 280.001C223.055 279.996 222.747 279.93 222.461 279.807C222.174 279.683 221.915 279.504 221.698 279.28C221.481 279.056 221.31 278.792 221.195 278.502C221.08 278.212 221.023 277.902 221.028 277.59ZM221.526 277.199H225.184C225.114 276.765 224.894 276.37 224.561 276.084C224.229 275.797 223.806 275.637 223.367 275.631C222.925 275.636 222.499 275.795 222.163 276.082C221.827 276.368 221.601 276.763 221.526 277.199Z" fill="#A6A6A6"/>
<path id="Vector_50" d="M227.154 275.405C227.154 275.373 227.161 275.341 227.173 275.312C227.186 275.282 227.205 275.255 227.228 275.233C227.251 275.211 227.279 275.194 227.309 275.182C227.339 275.171 227.372 275.166 227.404 275.168C227.465 275.171 227.522 275.197 227.564 275.241C227.606 275.286 227.629 275.344 227.629 275.405V276.474C227.649 276.432 227.673 276.392 227.701 276.355C227.897 276.013 228.176 275.725 228.512 275.518C228.848 275.311 229.23 275.19 229.624 275.168C229.687 275.168 229.748 275.193 229.792 275.237C229.837 275.282 229.862 275.342 229.862 275.405C229.862 275.468 229.837 275.529 229.792 275.573C229.748 275.618 229.687 275.643 229.624 275.643C229.344 275.654 229.071 275.732 228.827 275.871C228.583 276.009 228.376 276.204 228.223 276.438C227.976 276.779 227.784 277.155 227.653 277.555C227.644 277.582 227.644 277.611 227.653 277.638V279.775C227.655 279.806 227.65 279.837 227.639 279.865C227.629 279.894 227.612 279.92 227.591 279.943C227.57 279.965 227.545 279.983 227.517 279.995C227.488 280.007 227.458 280.013 227.427 280.013C227.395 280.015 227.363 280.01 227.333 279.998C227.303 279.987 227.275 279.97 227.252 279.948C227.228 279.926 227.21 279.899 227.197 279.869C227.185 279.84 227.178 279.808 227.178 279.775L227.154 275.405Z" fill="#A6A6A6"/>
<path id="Vector_51" d="M234.923 277.128C234.923 276.734 234.766 276.356 234.488 276.078C234.21 275.8 233.832 275.643 233.438 275.643C233.045 275.649 232.67 275.807 232.391 276.084C232.112 276.361 231.951 276.735 231.942 277.128V279.776C231.949 279.815 231.949 279.855 231.942 279.895C231.919 279.92 231.892 279.94 231.861 279.954C231.831 279.969 231.798 279.977 231.764 279.978C231.73 279.968 231.699 279.951 231.673 279.929C231.646 279.906 231.625 279.878 231.609 279.847V275.394C231.602 275.359 231.602 275.323 231.609 275.288C231.617 275.253 231.633 275.221 231.655 275.193C231.678 275.165 231.706 275.143 231.738 275.127C231.77 275.112 231.805 275.104 231.841 275.104C231.877 275.104 231.912 275.112 231.944 275.127C231.976 275.143 232.004 275.165 232.027 275.193C232.049 275.221 232.065 275.253 232.073 275.288C232.081 275.323 232.081 275.359 232.073 275.394V275.857C232.331 275.551 232.678 275.331 233.066 275.228C233.453 275.125 233.863 275.144 234.24 275.281C234.616 275.418 234.942 275.668 235.172 275.996C235.403 276.324 235.527 276.715 235.528 277.116V279.776C235.528 279.839 235.503 279.899 235.459 279.944C235.414 279.988 235.354 280.013 235.291 280.013C235.228 280.013 235.167 279.988 235.123 279.944C235.078 279.899 235.053 279.839 235.053 279.776L234.923 277.128Z" fill="#A6A6A6"/>
<path id="Vector_52" d="M241.56 275.394V279.776C241.56 279.839 241.535 279.899 241.491 279.944C241.446 279.988 241.386 280.013 241.323 280.013C241.26 280.013 241.199 279.988 241.155 279.944C241.11 279.899 241.085 279.839 241.085 279.776V279.052C240.881 279.346 240.61 279.587 240.294 279.754C239.978 279.921 239.626 280.01 239.268 280.013C238.629 280.013 238.016 279.759 237.564 279.307C237.111 278.855 236.857 278.242 236.857 277.603C236.857 276.963 237.111 276.35 237.564 275.898C238.016 275.446 238.629 275.192 239.268 275.192C239.624 275.192 239.974 275.278 240.29 275.441C240.606 275.604 240.879 275.84 241.085 276.13V275.418C241.085 275.355 241.11 275.294 241.155 275.25C241.199 275.205 241.26 275.18 241.323 275.18C241.386 275.18 241.446 275.205 241.491 275.25C241.535 275.294 241.56 275.355 241.56 275.418V275.394ZM241.085 277.579C241.062 277.226 240.936 276.887 240.723 276.604C240.51 276.321 240.218 276.107 239.885 275.987C239.552 275.868 239.191 275.848 238.846 275.931C238.502 276.014 238.19 276.196 237.947 276.454C237.705 276.712 237.543 277.036 237.482 277.385C237.421 277.734 237.463 278.093 237.604 278.418C237.744 278.743 237.976 279.02 238.272 279.215C238.568 279.41 238.914 279.514 239.268 279.515C239.767 279.499 240.239 279.287 240.582 278.924C240.925 278.561 241.11 278.078 241.097 277.579H241.085Z" fill="#A6A6A6"/>
<path id="Vector_53" d="M250.502 277.128C250.52 276.921 250.496 276.712 250.429 276.516C250.363 276.319 250.256 276.138 250.116 275.985C249.976 275.831 249.805 275.709 249.615 275.625C249.425 275.542 249.219 275.498 249.012 275.498C248.804 275.498 248.598 275.542 248.408 275.625C248.218 275.709 248.048 275.831 247.907 275.985C247.767 276.138 247.661 276.319 247.594 276.516C247.528 276.712 247.503 276.921 247.521 277.128V279.835C247.521 279.895 247.45 279.93 247.402 279.954C247.364 279.966 247.322 279.966 247.284 279.954H247.212V277.318C247.212 276.924 247.056 276.546 246.778 276.268C246.499 275.99 246.122 275.833 245.728 275.833C245.334 275.833 244.957 275.99 244.678 276.268C244.4 276.546 244.244 276.924 244.244 277.318V279.776C244.244 279.814 244.235 279.852 244.216 279.886C244.197 279.919 244.17 279.947 244.137 279.966H244.03C243.984 279.958 243.942 279.937 243.908 279.905C243.874 279.874 243.851 279.833 243.84 279.788V275.37C243.843 275.311 243.867 275.256 243.909 275.214C243.951 275.172 244.007 275.147 244.065 275.145C244.096 275.143 244.127 275.148 244.155 275.158C244.184 275.169 244.211 275.185 244.233 275.206C244.255 275.227 244.273 275.253 244.285 275.281C244.297 275.309 244.303 275.34 244.303 275.37V275.833C244.509 275.59 244.77 275.402 245.066 275.283C245.361 275.165 245.681 275.121 245.997 275.155C246.314 275.189 246.617 275.3 246.881 275.478C247.144 275.657 247.36 275.897 247.509 276.178C247.68 275.867 247.931 275.607 248.236 275.426C248.541 275.244 248.888 275.147 249.243 275.145C249.763 275.145 250.261 275.351 250.629 275.718C250.996 276.086 251.203 276.584 251.203 277.104V279.776C251.203 279.807 251.196 279.837 251.184 279.865C251.172 279.893 251.155 279.919 251.132 279.94C251.11 279.961 251.084 279.977 251.055 279.988C251.026 279.999 250.996 280.003 250.965 280.002C250.906 279.999 250.85 279.974 250.809 279.932C250.767 279.891 250.742 279.835 250.739 279.776L250.502 277.128Z" fill="#A6A6A6"/>
<path id="Vector_54" d="M252.617 277.59C252.617 276.961 252.867 276.356 253.313 275.911C253.758 275.466 254.362 275.215 254.992 275.215C255.6 275.214 256.185 275.447 256.627 275.864C257.069 276.282 257.334 276.853 257.367 277.46C257.368 277.49 257.361 277.52 257.349 277.547C257.337 277.575 257.319 277.6 257.297 277.62C257.274 277.64 257.248 277.655 257.219 277.665C257.19 277.674 257.16 277.677 257.13 277.674H253.092C253.104 278.163 253.305 278.629 253.652 278.974C254 279.319 254.467 279.517 254.957 279.526C255.28 279.527 255.598 279.44 255.876 279.275C256.154 279.109 256.382 278.872 256.536 278.588C256.57 278.537 256.622 278.501 256.682 278.488C256.742 278.475 256.804 278.485 256.857 278.517C256.908 278.553 256.945 278.606 256.96 278.667C256.976 278.729 256.968 278.793 256.94 278.849C256.729 279.179 256.439 279.451 256.097 279.641C255.755 279.832 255.372 279.935 254.98 279.942C254.357 279.939 253.759 279.69 253.317 279.25C252.875 278.81 252.623 278.214 252.617 277.59ZM253.116 277.199H256.774C256.704 276.765 256.483 276.37 256.151 276.084C255.818 275.797 255.396 275.637 254.957 275.631C254.515 275.636 254.089 275.795 253.753 276.082C253.416 276.368 253.191 276.763 253.116 277.199Z" fill="#A6A6A6"/>
<path id="Vector_55" d="M199.843 275.37C199.843 275.712 199.741 276.048 199.55 276.333C199.36 276.618 199.089 276.84 198.772 276.971C198.455 277.103 198.107 277.137 197.771 277.07C197.434 277.003 197.125 276.838 196.883 276.596C196.64 276.353 196.475 276.044 196.408 275.708C196.341 275.371 196.376 275.023 196.507 274.706C196.638 274.389 196.86 274.118 197.146 273.928C197.431 273.737 197.766 273.636 198.109 273.636C198.569 273.636 199.01 273.818 199.335 274.144C199.66 274.469 199.843 274.91 199.843 275.37Z" fill="#A6A6A6"/>
<path id="Vector_56" d="M201.112 280.132H195.115C195.163 279.369 195.5 278.654 196.057 278.131C196.614 277.608 197.35 277.316 198.114 277.316C198.878 277.316 199.613 277.608 200.17 278.131C200.727 278.654 201.064 279.369 201.112 280.132Z" fill="#A6A6A6"/>
<path id="Vector_57" d="M314.309 294.121H189.32V312.231H314.309V294.121Z" fill="#F8F8F8"/>
<path id="Vector_58" d="M212.763 301.033C211.634 302.728 210.181 304.185 208.488 305.32C209.043 304.461 209.688 303.665 210.412 302.945C211.129 302.229 211.917 301.588 212.763 301.033Z" fill="#A6A6A6"/>
<path id="Vector_59" d="M208.488 301.033C209.344 301.595 210.14 302.243 210.863 302.968C211.588 303.689 212.233 304.485 212.787 305.343C211.095 304.209 209.642 302.752 208.512 301.056L208.488 301.033Z" fill="#A6A6A6"/>
<path id="Vector_60" d="M213.652 303.182C211.653 303.578 209.595 303.578 207.596 303.182C208.59 302.965 209.606 302.866 210.624 302.885C211.641 302.872 212.657 302.972 213.652 303.182Z" fill="#A6A6A6"/>
<path id="Vector_61" d="M210.625 300.154C211.021 302.149 211.021 304.203 210.625 306.198C210.229 304.203 210.229 302.149 210.625 300.154Z" fill="#A6A6A6"/>
<path id="Vector_62" d="M223.201 301.033C222.062 302.721 220.611 304.177 218.926 305.32C219.48 304.461 220.125 303.665 220.85 302.945C221.566 302.229 222.354 301.588 223.201 301.033Z" fill="#A6A6A6"/>
<path id="Vector_63" d="M218.926 301.033C219.785 301.591 220.581 302.24 221.301 302.968C222.033 303.685 222.682 304.482 223.237 305.343C221.544 304.209 220.091 302.752 218.961 301.056L218.926 301.033Z" fill="#A6A6A6"/>
<path id="Vector_64" d="M224.092 303.182C222.092 303.578 220.035 303.578 218.035 303.182C219.03 302.965 220.046 302.866 221.063 302.885C222.081 302.872 223.096 302.972 224.092 303.182Z" fill="#A6A6A6"/>
<path id="Vector_65" d="M221.064 300.154C221.46 302.149 221.46 304.203 221.064 306.198C220.669 304.203 220.669 302.149 221.064 300.154Z" fill="#A6A6A6"/>
<path id="Vector_66" d="M233.639 301.033C233.081 301.892 232.432 302.688 231.703 303.408C230.986 304.139 230.189 304.789 229.328 305.343C229.886 304.485 230.535 303.688 231.264 302.968C231.987 302.243 232.783 301.595 233.639 301.033Z" fill="#A6A6A6"/>
<path id="Vector_67" d="M229.352 301.033C230.208 301.595 231.004 302.243 231.727 302.968C232.455 303.688 233.104 304.485 233.662 305.343C232.803 304.785 232.007 304.137 231.287 303.408C230.562 302.685 229.913 301.889 229.352 301.033Z" fill="#A6A6A6"/>
<path id="Vector_68" d="M234.519 303.182C232.524 303.578 230.47 303.578 228.475 303.182C229.469 302.965 230.485 302.866 231.503 302.885C232.516 302.873 233.528 302.972 234.519 303.182Z" fill="#A6A6A6"/>
<path id="Vector_69" d="M231.502 300.154C231.898 302.149 231.898 304.203 231.502 306.198C231.286 305.208 231.187 304.196 231.205 303.182C231.192 302.165 231.292 301.149 231.502 300.154Z" fill="#A6A6A6"/>
<path id="Vector_70" d="M244.066 301.033C242.936 302.728 241.484 304.185 239.791 305.32C240.345 304.458 240.995 303.661 241.727 302.945C242.439 302.229 243.223 301.589 244.066 301.033Z" fill="#A6A6A6"/>
<path id="Vector_71" d="M239.791 301.033C240.647 301.595 241.443 302.243 242.166 302.968C242.891 303.689 243.536 304.485 244.09 305.343C242.404 304.2 240.953 302.745 239.815 301.056L239.791 301.033Z" fill="#A6A6A6"/>
<path id="Vector_72" d="M244.957 303.182C243.96 303.387 242.945 303.486 241.928 303.479C240.915 303.487 239.904 303.387 238.912 303.182C239.902 302.965 240.915 302.866 241.928 302.885C242.946 302.872 243.961 302.972 244.957 303.182Z" fill="#A6A6A6"/>
<path id="Vector_73" d="M241.928 300.154C242.324 302.149 242.324 304.203 241.928 306.198C241.532 304.203 241.532 302.149 241.928 300.154Z" fill="#A6A6A6"/>
<path id="Vector_74" d="M200.139 301.223V303.42H199.534V301.223C199.552 301.027 199.529 300.83 199.466 300.643C199.404 300.457 199.303 300.286 199.17 300.141C199.038 299.996 198.877 299.88 198.697 299.8C198.517 299.721 198.323 299.68 198.126 299.68C197.93 299.68 197.736 299.721 197.556 299.8C197.376 299.88 197.215 299.996 197.082 300.141C196.95 300.286 196.849 300.457 196.787 300.643C196.724 300.83 196.701 301.027 196.719 301.223V303.42H196.09V301.223C196.09 300.684 196.304 300.168 196.685 299.787C197.065 299.406 197.582 299.192 198.121 299.192C198.659 299.192 199.176 299.406 199.556 299.787C199.937 300.168 200.151 300.684 200.151 301.223H200.139Z" fill="#A6A6A6"/>
<path id="Vector_75" d="M195.295 302.612V307.291H200.936V302.612H195.295ZM198.584 306.044H197.587L197.824 304.916C197.751 304.872 197.69 304.809 197.648 304.734C197.606 304.659 197.585 304.574 197.587 304.488C197.587 304.356 197.639 304.229 197.733 304.135C197.827 304.042 197.953 303.989 198.086 303.989C198.218 303.989 198.345 304.042 198.438 304.135C198.532 304.229 198.584 304.356 198.584 304.488C198.586 304.574 198.565 304.659 198.523 304.734C198.482 304.809 198.421 304.872 198.347 304.916L198.584 306.044Z" fill="#A6A6A6"/>
<path id="Vector_76" d="M230.623 253.911V245.741C230.623 245.536 230.704 245.34 230.849 245.195C230.994 245.051 231.19 244.969 231.395 244.969C231.6 244.969 231.796 245.051 231.941 245.195C232.086 245.34 232.167 245.536 232.167 245.741V253.14H235.92C236.124 253.14 236.321 253.221 236.465 253.366C236.61 253.51 236.691 253.707 236.691 253.911C236.691 254.116 236.61 254.312 236.465 254.457C236.321 254.602 236.124 254.683 235.92 254.683H231.395C231.293 254.685 231.192 254.666 231.098 254.628C231.003 254.59 230.918 254.533 230.846 254.461C230.774 254.389 230.717 254.303 230.679 254.209C230.64 254.114 230.622 254.013 230.623 253.911Z" fill="#263238"/>
<path id="Vector_77" d="M245.538 246.18C246.438 247.127 246.939 248.383 246.939 249.689C246.939 250.995 246.438 252.252 245.538 253.199C245.117 253.66 244.606 254.03 244.036 254.286C243.466 254.541 242.849 254.676 242.225 254.683C241.587 254.681 240.957 254.548 240.373 254.292C239.789 254.037 239.263 253.665 238.828 253.199C237.942 252.245 237.449 250.991 237.449 249.689C237.449 248.387 237.942 247.134 238.828 246.18C239.262 245.712 239.787 245.339 240.372 245.083C240.956 244.828 241.587 244.696 242.225 244.696C242.85 244.7 243.467 244.834 244.038 245.089C244.608 245.345 245.119 245.716 245.538 246.18ZM245.36 249.683C245.348 248.801 245.01 247.955 244.41 247.308C244.135 247.001 243.798 246.754 243.422 246.584C243.045 246.414 242.638 246.325 242.225 246.323C241.802 246.319 241.384 246.405 240.997 246.575C240.61 246.745 240.264 246.995 239.98 247.308C239.369 247.967 239.03 248.832 239.03 249.731C239.03 250.629 239.369 251.495 239.98 252.154C240.258 252.467 240.599 252.718 240.981 252.89C241.362 253.062 241.776 253.151 242.195 253.151C242.614 253.151 243.028 253.062 243.41 252.89C243.791 252.718 244.132 252.467 244.41 252.154C245.032 251.483 245.372 250.598 245.36 249.683Z" fill="#263238"/>
<path id="Vector_78" d="M249.244 249.707C249.25 249.042 249.388 248.384 249.648 247.772C249.909 247.16 250.288 246.605 250.764 246.139C251.239 245.674 251.802 245.307 252.419 245.059C253.037 244.811 253.697 244.688 254.362 244.696C255.506 244.694 256.618 245.074 257.521 245.776C257.627 245.828 257.72 245.903 257.792 245.996C257.865 246.088 257.916 246.196 257.941 246.311C257.967 246.426 257.966 246.545 257.939 246.66C257.912 246.775 257.859 246.882 257.785 246.973C257.711 247.065 257.617 247.138 257.511 247.189C257.404 247.239 257.288 247.265 257.17 247.264C257.052 247.263 256.936 247.235 256.83 247.183C256.725 247.132 256.632 247.056 256.559 246.964C255.927 246.484 255.156 246.222 254.362 246.216C253.9 246.209 253.442 246.294 253.013 246.468C252.585 246.641 252.196 246.899 251.869 247.225C251.544 247.531 251.284 247.898 251.105 248.306C250.925 248.715 250.83 249.154 250.824 249.6C250.826 250.046 250.92 250.487 251.1 250.896C251.28 251.304 251.541 251.672 251.869 251.975C252.193 252.306 252.582 252.566 253.011 252.742C253.439 252.917 253.899 253.004 254.362 252.997C255.032 252.987 255.687 252.803 256.262 252.462V250.562H254.279C254.072 250.559 253.875 250.475 253.728 250.329C253.582 250.183 253.499 249.985 253.496 249.778C253.494 249.675 253.513 249.572 253.552 249.476C253.591 249.381 253.648 249.294 253.722 249.221C253.795 249.147 253.882 249.09 253.977 249.051C254.073 249.012 254.176 248.993 254.279 248.995H257.034C257.139 248.991 257.244 249.009 257.342 249.047C257.439 249.085 257.529 249.142 257.604 249.216C257.679 249.289 257.739 249.376 257.78 249.473C257.821 249.569 257.842 249.673 257.842 249.778V252.842C257.849 252.921 257.849 253.001 257.842 253.08C257.793 253.216 257.702 253.333 257.581 253.412C256.681 254.113 255.574 254.493 254.434 254.493C253.115 254.532 251.833 254.053 250.863 253.158C249.893 252.264 249.312 251.025 249.244 249.707Z" fill="#263238"/>
<path id="Vector_79" d="M261.071 245.741C261.067 245.64 261.085 245.539 261.122 245.444C261.159 245.35 261.214 245.264 261.285 245.192C261.356 245.12 261.441 245.063 261.535 245.024C261.629 244.986 261.729 244.967 261.831 244.969C262.035 244.969 262.232 245.05 262.377 245.195C262.521 245.34 262.603 245.536 262.603 245.741V253.911C262.603 254.116 262.521 254.312 262.377 254.457C262.232 254.602 262.035 254.683 261.831 254.683C261.729 254.685 261.629 254.666 261.535 254.627C261.441 254.589 261.356 254.532 261.285 254.46C261.214 254.388 261.159 254.302 261.122 254.207C261.085 254.113 261.067 254.012 261.071 253.911V245.741Z" fill="#263238"/>
<path id="Vector_80" d="M266.725 253.911C266.738 254.018 266.729 254.127 266.697 254.23C266.666 254.333 266.612 254.428 266.541 254.509C266.47 254.589 266.382 254.654 266.284 254.698C266.185 254.743 266.079 254.766 265.971 254.766C265.863 254.766 265.757 254.743 265.658 254.698C265.56 254.654 265.472 254.589 265.401 254.509C265.33 254.428 265.276 254.333 265.245 254.23C265.213 254.127 265.203 254.018 265.217 253.911V245.859C265.209 245.698 265.253 245.539 265.343 245.405C265.433 245.271 265.564 245.17 265.716 245.116C265.869 245.063 266.034 245.06 266.188 245.109C266.342 245.157 266.476 245.254 266.571 245.384L271.06 251.583V245.871C271.06 245.673 271.138 245.483 271.279 245.342C271.419 245.202 271.609 245.123 271.808 245.123C272.007 245.123 272.199 245.202 272.341 245.342C272.483 245.482 272.565 245.672 272.568 245.871V253.923C272.568 254.125 272.488 254.32 272.346 254.464C272.204 254.609 272.01 254.692 271.808 254.695C271.698 254.692 271.589 254.665 271.491 254.616C271.392 254.567 271.306 254.496 271.238 254.41C271.205 254.392 271.179 254.362 271.166 254.327L266.725 248.175V253.911Z" fill="#263238"/>
<path id="Vector_81" d="M270.531 323.311H233.109C232.005 323.311 231.109 324.206 231.109 325.311V334.195C231.109 335.3 232.005 336.195 233.109 336.195H270.531C271.635 336.195 272.531 335.3 272.531 334.195V325.311C272.531 324.206 271.635 323.311 270.531 323.311Z" fill="#59B834"/>
<path id="Vector_82" d="M241.229 331.671V327.586C241.227 327.535 241.236 327.485 241.254 327.437C241.273 327.39 241.3 327.346 241.336 327.31C241.371 327.273 241.414 327.244 241.46 327.224C241.507 327.205 241.558 327.194 241.609 327.194C241.713 327.194 241.812 327.236 241.886 327.309C241.959 327.383 242.001 327.482 242.001 327.586V331.291H243.877C243.978 331.291 244.074 331.331 244.146 331.403C244.217 331.474 244.257 331.571 244.257 331.671C244.257 331.773 244.217 331.871 244.146 331.944C244.075 332.018 243.979 332.06 243.877 332.063H241.609C241.558 332.063 241.507 332.053 241.46 332.033C241.414 332.013 241.371 331.984 241.336 331.948C241.3 331.911 241.273 331.868 241.254 331.82C241.236 331.773 241.227 331.722 241.229 331.671Z" fill="white"/>
<path id="Vector_83" d="M248.686 327.8C249.15 328.276 249.41 328.916 249.41 329.581C249.41 330.246 249.15 330.886 248.686 331.362C248.475 331.594 248.219 331.78 247.933 331.909C247.647 332.038 247.337 332.106 247.024 332.111C246.705 332.106 246.39 332.038 246.098 331.909C245.807 331.781 245.544 331.595 245.325 331.362C244.869 330.881 244.615 330.244 244.615 329.581C244.615 328.918 244.869 328.281 245.325 327.8C245.545 327.57 245.808 327.386 246.1 327.259C246.392 327.133 246.706 327.066 247.024 327.063C247.336 327.066 247.646 327.132 247.932 327.259C248.218 327.385 248.474 327.57 248.686 327.8ZM248.591 329.557C248.584 329.117 248.415 328.694 248.116 328.37C247.978 328.216 247.81 328.092 247.622 328.006C247.434 327.92 247.23 327.874 247.024 327.871C246.802 327.865 246.581 327.906 246.376 327.992C246.171 328.078 245.987 328.207 245.836 328.37C245.541 328.695 245.376 329.118 245.373 329.557C245.373 329.997 245.539 330.421 245.836 330.745C245.987 330.908 246.171 331.037 246.376 331.123C246.581 331.209 246.802 331.25 247.024 331.244C247.23 331.24 247.434 331.194 247.622 331.109C247.81 331.023 247.978 330.899 248.116 330.745C248.417 330.422 248.587 329.999 248.591 329.557Z" fill="white"/>
<path id="Vector_84" d="M250.598 329.569C250.601 329.237 250.669 328.909 250.799 328.603C250.929 328.297 251.118 328.02 251.355 327.788C251.592 327.555 251.873 327.371 252.181 327.247C252.489 327.123 252.819 327.06 253.151 327.064C253.725 327.064 254.284 327.252 254.742 327.598C254.825 327.666 254.879 327.763 254.892 327.869C254.905 327.975 254.877 328.082 254.813 328.168C254.781 328.209 254.741 328.243 254.695 328.269C254.649 328.294 254.599 328.31 254.547 328.315C254.495 328.321 254.442 328.316 254.392 328.301C254.342 328.286 254.296 328.261 254.255 328.227C253.938 327.985 253.55 327.852 253.151 327.847C252.703 327.856 252.277 328.039 251.963 328.358C251.802 328.511 251.674 328.695 251.587 328.899C251.499 329.104 251.454 329.323 251.454 329.546C251.454 329.768 251.499 329.987 251.587 330.192C251.674 330.396 251.802 330.58 251.963 330.733C252.277 331.052 252.703 331.235 253.151 331.244C253.485 331.241 253.812 331.151 254.101 330.982V330.032H253.115C253.009 330.029 252.908 329.986 252.833 329.911C252.758 329.836 252.714 329.735 252.711 329.629C252.713 329.577 252.725 329.527 252.746 329.48C252.767 329.433 252.797 329.39 252.835 329.355C252.872 329.32 252.916 329.292 252.964 329.274C253.012 329.256 253.064 329.247 253.115 329.249H254.493C254.544 329.247 254.596 329.256 254.644 329.274C254.692 329.292 254.736 329.32 254.773 329.355C254.811 329.39 254.841 329.433 254.862 329.48C254.883 329.527 254.895 329.577 254.897 329.629V331.172C254.902 331.212 254.902 331.252 254.897 331.291C254.872 331.359 254.826 331.417 254.766 331.457C254.393 331.751 253.946 331.935 253.475 331.989C253.004 332.042 252.527 331.964 252.097 331.762C251.668 331.559 251.304 331.242 251.045 330.844C250.787 330.446 250.644 329.984 250.633 329.51L250.598 329.569Z" fill="white"/>
<path id="Vector_85" d="M256.44 327.586C256.438 327.535 256.447 327.485 256.465 327.437C256.483 327.39 256.511 327.346 256.547 327.31C256.582 327.273 256.625 327.244 256.671 327.224C256.718 327.205 256.769 327.194 256.82 327.194C256.924 327.194 257.023 327.236 257.097 327.309C257.17 327.383 257.212 327.482 257.212 327.586V331.671C257.212 331.775 257.17 331.875 257.097 331.948C257.023 332.022 256.924 332.063 256.82 332.063C256.769 332.063 256.718 332.053 256.671 332.033C256.625 332.013 256.582 331.984 256.547 331.948C256.511 331.911 256.483 331.868 256.465 331.82C256.447 331.773 256.438 331.722 256.44 331.671V327.586Z" fill="white"/>
<path id="Vector_86" d="M259.278 331.671C259.278 331.773 259.239 331.871 259.168 331.944C259.097 332.017 259 332.06 258.898 332.063C258.847 332.063 258.797 332.053 258.75 332.033C258.703 332.013 258.661 331.984 258.625 331.948C258.59 331.911 258.562 331.868 258.544 331.82C258.525 331.773 258.517 331.722 258.518 331.671V327.646C258.515 327.583 258.527 327.521 258.554 327.465C258.581 327.409 258.622 327.361 258.673 327.325C258.753 327.268 258.853 327.245 258.951 327.261C259.048 327.276 259.136 327.329 259.195 327.408L261.44 330.519V327.657C261.44 327.557 261.48 327.46 261.551 327.389C261.622 327.317 261.719 327.277 261.82 327.277C261.919 327.28 262.014 327.321 262.085 327.392C262.156 327.463 262.197 327.558 262.2 327.657V331.683C262.2 331.785 262.16 331.883 262.089 331.956C262.018 332.029 261.921 332.072 261.82 332.075C261.764 332.074 261.71 332.061 261.661 332.036C261.611 332.012 261.568 331.976 261.534 331.933L259.314 328.857L259.278 331.671Z" fill="white"/>
</g>
<path id="Vector_87" d="M403.964 276.913C403.424 276.778 403.154 276.508 403.154 275.968C403.424 275.968 403.694 275.968 403.964 275.968C403.964 276.238 403.964 276.643 403.964 276.913Z" fill="#B87C58"/>
<path id="Vector_88" d="M404.507 323.217C404.237 322.947 404.237 322.812 404.507 322.542C404.642 322.677 404.642 322.947 404.507 323.217Z" fill="#B77B57"/>
<path id="Vector_89" d="M410.039 293.113C410.039 293.113 409.904 292.978 409.904 292.843C409.904 292.843 410.039 292.978 410.039 293.113Z" fill="#BD865F"/>
<path id="Vector_90" d="M409.77 292.842C409.77 292.842 409.635 292.707 409.5 292.572C409.635 292.707 409.77 292.707 409.77 292.842Z" fill="#BD865F"/>
<path id="Vector_91" d="M409.5 292.572C409.5 292.572 409.365 292.437 409.23 292.437C409.5 292.437 409.5 292.437 409.5 292.572Z" fill="#BD865F"/>
<g id="Group 23">
<path id="Vector_92" d="M251.861 223.722C277.429 223.722 298.156 202.995 298.156 177.427C298.156 151.859 277.429 131.132 251.861 131.132C226.293 131.132 205.566 151.859 205.566 177.427C205.566 202.995 226.293 223.722 251.861 223.722Z" fill="#999999"/>
<path id="Vector_93" d="M279.565 214.42C278.583 215.12 277.58 215.775 276.554 216.408C274.073 217.889 271.462 219.14 268.753 220.146C268.117 220.389 267.471 220.611 266.825 220.832C265.365 221.308 263.861 221.718 262.368 222.049C261.032 222.336 259.673 222.578 258.292 222.754C256.482 220.044 254.961 217.692 253.973 215.875C253.285 214.671 252.375 212.988 251.454 211.093C248.604 205.286 245.601 197.475 248.4 195.353L248.556 195.242L248.779 195.12L248.924 195.054C249.181 194.939 249.456 194.868 249.737 194.844C250.129 194.793 250.526 194.794 250.917 194.846C252.949 195.175 254.905 195.865 256.693 196.883C257.215 197.14 257.749 197.431 258.328 197.755L258.55 197.878C263.289 200.537 271.416 207.323 279.565 214.42Z" fill="#FFC4C0"/>
<path id="Vector_94" d="M283.166 211.636C282.654 212.109 282.118 212.562 281.592 213.003C280.667 213.775 279.716 214.504 278.741 215.213C276.379 216.877 273.87 218.323 271.245 219.53C270.63 219.822 270.002 220.091 269.375 220.361C267.955 220.946 266.487 221.468 265.023 221.912C263.712 222.299 262.375 222.644 261.011 222.923L260.197 223.084C256.962 218.746 254.214 214.818 252.278 211.734L251.949 211.212C251.263 210.094 250.659 209.022 250.136 207.996C249.748 207.28 249.405 206.562 249.105 205.839C248.915 205.384 248.737 204.94 248.571 204.505C248.431 204.125 248.315 203.765 248.2 203.416C248.085 203.068 248.002 202.705 247.918 202.321C247.707 201.512 247.6 200.679 247.601 199.843C247.587 199.238 247.675 198.636 247.859 198.06C247.943 197.794 248.055 197.539 248.194 197.298L248.404 196.97C248.483 196.862 248.569 196.758 248.66 196.66C248.746 196.564 248.84 196.474 248.942 196.394L249.069 196.295L249.216 196.173L249.429 196.034L249.568 195.957C249.79 195.835 250.021 195.732 250.26 195.649C252.2 195.185 254.233 195.295 256.112 195.964C257.19 196.244 258.25 196.595 259.283 197.013C261.31 197.847 263.278 198.82 265.171 199.927C270.445 202.852 276.874 207.189 283.166 211.636Z" fill="#83CA7D"/>
<path id="Vector_95" opacity="0.1" d="M278.272 215.67C275.872 217.279 273.329 218.666 270.677 219.812C270.055 220.088 269.421 220.344 268.788 220.599C267.355 221.151 265.874 221.638 264.401 222.047C263.081 222.404 261.737 222.717 260.367 222.965L259.549 223.106C256.416 218.694 253.761 214.703 251.897 211.575L251.58 211.045C250.92 209.911 250.341 208.825 249.843 207.788C249.472 207.063 249.145 206.336 248.863 205.607C248.684 205.148 248.516 204.699 248.36 204.261C248.229 203.878 248.121 203.515 248.015 203.164C247.908 202.812 247.833 202.448 247.758 202.062C247.577 201.246 247.49 200.413 247.499 199.578C247.499 198.973 247.601 198.372 247.799 197.801C247.889 197.537 248.007 197.285 248.151 197.047L248.369 196.724C248.451 196.618 248.538 196.516 248.632 196.421C248.72 196.326 248.817 196.239 248.92 196.161L249.049 196.065L249.199 195.946L249.415 195.812L249.556 195.738C249.785 195.625 250.023 195.531 250.267 195.457C250.587 195.357 250.916 195.289 251.249 195.251L251.504 195.439L255.609 198.576L258.936 201.084L260.524 202.286L278.272 215.67Z" fill="black"/>
<path id="Vector_96" d="M268.714 220.685C267.282 221.237 265.801 221.725 264.328 222.134C263.008 222.491 261.664 222.804 260.294 223.052L259.476 223.193C252.559 224.331 245.476 223.928 238.733 222.013L238.611 222.019L238.5 222.025L237.957 221.863C233.196 220.393 228.808 217.824 224.735 214.955C225.941 212.563 226.95 210.813 228.005 208.965C228.763 207.633 229.472 206.438 230.153 205.366C233.753 199.609 236.321 197.249 238.355 196.031L238.735 195.823C238.877 195.734 239.026 195.655 239.18 195.588C239.452 195.452 239.714 195.349 239.966 195.248C242.78 194.253 245.76 193.81 248.741 193.945C251.3 193.918 253.813 194.627 255.98 195.987C256.498 196.365 256.95 196.824 257.32 197.346C257.737 197.942 258.14 198.557 258.529 199.192L258.965 199.883C259.475 200.705 259.975 201.549 260.466 202.439C260.503 202.488 260.532 202.543 260.552 202.601C260.797 203.046 261.043 203.491 261.29 203.958C261.536 204.425 261.782 204.869 262.018 205.348C264.474 210.22 266.659 215.223 268.563 220.336C268.624 220.434 268.663 220.554 268.714 220.685Z" fill="#83CA7D"/>
<path id="Vector_97" d="M253.072 219.499C251.859 219.54 250.666 219.813 249.555 220.301C250.708 220.681 251.924 220.831 253.135 220.745C254.351 220.705 255.548 220.433 256.662 219.942C255.504 219.566 254.286 219.416 253.072 219.499ZM232.056 204.329C231.893 204.415 231.743 204.523 231.592 204.62C231.438 204.718 231.29 204.826 231.151 204.943C231.08 204.986 231.015 205.038 230.958 205.098L230.733 205.277C230.391 205.573 230.084 205.889 229.776 206.206C228.948 207.098 228.294 208.137 227.846 209.269C228.116 209.144 228.377 209 228.627 208.839C229.392 208.335 230.089 207.733 230.7 207.051C231.531 206.163 232.182 205.123 232.619 203.988L232.056 204.329ZM261.88 203.868C261.634 203.412 261.388 202.956 261.132 202.512L260.819 202.282L260.588 202.127C260.464 202.037 260.333 201.958 260.197 201.89L259.806 201.665L259.578 201.553L259.429 201.483L258.952 201.295C259.075 201.557 259.215 201.81 259.369 202.055C259.879 202.839 260.485 203.558 261.172 204.193L261.951 204.834L262.587 205.281C262.371 204.757 262.125 204.301 261.879 203.845L261.88 203.868ZM261.88 203.868C261.634 203.412 261.388 202.956 261.132 202.512L260.819 202.282L260.588 202.127C260.464 202.037 260.333 201.958 260.197 201.89L259.806 201.665L259.578 201.553L259.429 201.483L258.952 201.295C259.075 201.557 259.215 201.81 259.369 202.055C259.879 202.839 260.485 203.558 261.172 204.193L261.951 204.834L262.587 205.281C262.371 204.757 262.125 204.301 261.879 203.845L261.88 203.868Z" fill="white"/>
<path id="Vector_98" d="M242.7 203.601C242.398 206.905 241.794 210.175 240.898 213.37C240.092 216.399 239.285 219.171 238.489 221.72C233.753 220.264 229.274 218.076 225.216 215.234C224.245 214.558 223.294 213.837 222.39 213.147C223.862 210.965 225.35 208.85 226.83 206.823C231.753 200.096 236.066 196.322 238.969 195.963L239.303 195.946C241.745 195.744 243.076 198.241 242.7 203.601Z" fill="#FFC4C0"/>
<path id="Vector_99" d="M243.372 204.503C243.23 206.524 242.959 208.534 242.561 210.52C241.919 213.383 241.109 216.205 240.134 218.972L239.101 221.912L238.99 221.917L238.447 221.755C233.724 220.284 229.26 218.084 225.217 215.233C224.246 214.558 223.295 213.837 222.391 213.147L221.448 212.358C224.132 208.443 227.154 204.772 230.481 201.387C234.582 197.388 237.431 195.728 239.395 195.539L239.795 195.519C243.171 195.471 243.616 200.31 243.372 204.503Z" fill="#83CA7D"/>
<path id="Vector_100" d="M240.177 218.97C239.881 219.955 239.574 220.94 239.267 221.915L239.144 221.921L239.033 221.927C239.397 220.961 239.76 219.994 240.101 219.018L240.177 218.97Z" fill="#263238"/>
<path id="Vector_101" d="M259.385 152.171C256.441 151.639 253.764 154.5 250.775 154.277C248.962 154.137 247.459 152.87 245.782 152.171C244.468 151.637 243.049 151.415 241.635 151.523C240.221 151.631 238.852 152.067 237.635 152.795C235.365 154.273 233.962 155.775 233.943 158.495C231.602 157.489 228.26 160.671 227.319 163.478C226.377 166.286 227.006 169.008 228.039 171.784C229.83 176.574 232.544 180.966 236.026 184.71C236.336 185.042 236.804 185.393 237.187 185.156C237.305 185.053 237.397 184.924 237.455 184.779C237.513 184.634 237.535 184.477 237.52 184.321C237.637 181.664 237.007 179.031 236.439 176.429C235.871 173.827 235.488 171.114 236.038 168.503C236.587 165.892 238.28 163.387 240.822 162.577C242.743 162.08 244.778 162.276 246.568 163.131C248.378 163.892 250.023 165.001 251.772 165.908C253.483 166.899 255.431 167.408 257.408 167.381C259.37 167.241 261.356 166.077 262.019 164.217C262.681 162.357 261.421 159.947 259.469 159.759C260.347 159.576 261.133 159.094 261.695 158.395C262.256 157.697 262.557 156.824 262.546 155.928C262.536 155.032 262.214 154.167 261.636 153.482C261.058 152.796 260.26 152.333 259.378 152.172L259.385 152.171Z" fill="#263238"/>
<path id="Vector_102" d="M261.186 183.594C260.69 179.987 259.057 172.641 257.509 166.013C256.706 162.573 254.637 159.561 251.714 157.577C248.791 155.593 245.228 154.783 241.735 155.307L241.018 155.418C233.324 157.035 231.35 164.638 233.182 172.281L238.532 193.542C238.911 195.049 239.566 196.472 240.464 197.739L242.16 200.132C243.588 202.147 245.947 203.291 248.414 203.167C252.395 202.965 255.459 199.574 255.257 195.593L255.14 193.285C255.14 193.285 262.211 191.066 261.186 183.594Z" fill="#FFBF9D"/>
<path id="Vector_103" d="M255.139 193.271C251.645 193.903 248.042 193.475 244.793 192.044C244.793 192.044 247.895 196.923 255.233 195.134L255.139 193.271Z" fill="#FF9A6C"/>
<path id="Vector_104" d="M255.038 173.412C255.082 173.689 255.016 173.972 254.854 174.201C254.693 174.43 254.449 174.588 254.174 174.641C254.04 174.671 253.901 174.675 253.765 174.651C253.63 174.627 253.501 174.577 253.385 174.503C253.269 174.429 253.169 174.333 253.09 174.22C253.012 174.107 252.956 173.98 252.927 173.846C252.882 173.568 252.947 173.284 253.109 173.055C253.27 172.825 253.516 172.667 253.792 172.616C253.926 172.585 254.065 172.581 254.201 172.604C254.336 172.627 254.466 172.678 254.582 172.752C254.698 172.826 254.799 172.922 254.877 173.036C254.955 173.149 255.01 173.277 255.038 173.412Z" fill="#263238"/>
<path id="Vector_105" d="M244.921 174.96C244.964 175.239 244.898 175.522 244.735 175.752C244.572 175.982 244.326 176.139 244.05 176.19C243.916 176.221 243.777 176.225 243.642 176.202C243.507 176.179 243.377 176.128 243.262 176.054C243.146 175.98 243.047 175.883 242.969 175.77C242.892 175.657 242.837 175.529 242.81 175.394C242.765 175.117 242.83 174.833 242.992 174.603C243.153 174.374 243.398 174.216 243.675 174.165C243.809 174.134 243.948 174.13 244.084 174.153C244.219 174.176 244.349 174.226 244.465 174.301C244.581 174.375 244.681 174.471 244.76 174.585C244.838 174.698 244.893 174.826 244.921 174.96Z" fill="#263238"/>
<path id="Vector_106" d="M250.678 179.675C251.254 179.398 251.861 179.191 252.487 179.059C252.776 178.99 253.044 178.888 253.067 178.682C253.046 178.374 252.931 178.081 252.738 177.84C252.357 177.178 251.988 176.474 251.542 175.74C249.857 172.752 248.6 170.273 248.72 170.206C248.839 170.138 250.302 172.511 251.979 175.493L253.143 177.615C253.38 177.939 253.494 178.337 253.465 178.737C253.439 178.847 253.387 178.95 253.315 179.037C253.242 179.125 253.151 179.195 253.048 179.242C252.894 179.31 252.731 179.357 252.564 179.382C251.951 179.56 251.316 179.659 250.678 179.675Z" fill="#FF9A6C"/>
<path id="Vector_107" d="M244.763 168.399C244.698 168.729 243.527 168.754 242.21 169.121C240.893 169.487 239.856 170.01 239.639 169.762C239.537 169.638 239.678 169.317 240.075 168.949C240.601 168.486 241.228 168.154 241.907 167.978C242.584 167.796 243.295 167.774 243.982 167.913C244.506 168.037 244.79 168.247 244.763 168.399Z" fill="#263238"/>
<path id="Vector_108" d="M255.848 169.132C255.685 169.42 254.853 169.271 253.899 169.401C252.944 169.532 252.176 169.836 251.946 169.596C251.844 169.471 251.926 169.195 252.251 168.899C252.678 168.532 253.205 168.302 253.763 168.236C254.322 168.17 254.888 168.272 255.388 168.529C255.76 168.742 255.916 168.993 255.848 169.132Z" fill="#263238"/>
<path id="Vector_109" d="M235.666 177.443C235.527 177.402 229.726 176.824 230.657 181.902C231.589 186.979 236.485 185.014 236.47 184.845C236.454 184.675 235.666 177.443 235.666 177.443Z" fill="#FFBF9D"/>
<path id="Vector_110" d="M234.541 183.212C234.541 183.212 234.463 183.291 234.325 183.386C234.227 183.453 234.117 183.499 234.001 183.522C233.885 183.546 233.766 183.546 233.65 183.523C233.284 183.376 232.963 183.134 232.722 182.821C232.481 182.508 232.328 182.137 232.279 181.745C232.187 181.311 232.192 180.861 232.294 180.429C232.311 180.262 232.369 180.102 232.463 179.963C232.557 179.823 232.684 179.71 232.833 179.632C232.93 179.587 233.039 179.578 233.143 179.605C233.246 179.632 233.337 179.694 233.399 179.78C233.494 179.905 233.479 180.015 233.507 180.02C233.534 180.026 233.604 179.913 233.491 179.714C233.437 179.596 233.346 179.498 233.232 179.434C233.073 179.354 232.889 179.339 232.719 179.392C232.517 179.472 232.339 179.602 232.202 179.77C232.065 179.938 231.973 180.138 231.936 180.352C231.8 180.83 231.785 181.334 231.894 181.819C232.109 182.838 232.807 183.695 233.581 183.778C233.724 183.795 233.869 183.778 234.005 183.73C234.141 183.682 234.264 183.603 234.365 183.5C234.547 183.334 234.59 183.25 234.541 183.212Z" fill="#FF9A6C"/>
<path id="Vector_111" d="M256.55 159.035C255.609 157.7 254.348 156.622 252.882 155.902C249.792 154.181 246.239 153.481 242.728 153.901C239.207 154.348 235.996 156.145 233.774 158.913C232.091 161.181 231.105 163.891 230.938 166.71C230.709 169.792 231.036 172.89 231.905 175.855C232.305 177.021 233.044 177.351 234.016 178.106C234.626 178.58 235.585 178.804 236.116 178.252C236.394 177.888 236.542 177.442 236.536 176.984C236.921 172.875 237.259 168.523 235.245 164.952C235.987 163.506 237.017 162.226 238.272 161.194C238.903 160.683 239.629 160.302 240.409 160.074C241.188 159.846 242.005 159.776 242.812 159.867C245.188 160.223 246.925 162.228 248.965 163.494C250.44 164.388 252.106 164.918 253.825 165.042C255.545 165.166 257.269 164.88 258.856 164.207L256.55 159.035Z" fill="#263238"/>
<path id="Vector_112" d="M227.419 170.036C227.417 169.981 227.968 169.967 228.824 169.774C231.064 169.277 233.039 167.962 234.362 166.086C234.871 165.379 235.098 164.87 235.147 164.895C235.031 165.371 234.822 165.819 234.532 166.214C233.902 167.208 233.07 168.059 232.089 168.709C231.107 169.362 229.998 169.797 228.834 169.985C228.37 170.092 227.89 170.109 227.419 170.036Z" fill="#666666"/>
<path id="Vector_113" d="M227.825 172.537C227.822 172.483 228.395 172.345 229.269 171.987C230.409 171.508 231.466 170.852 232.401 170.043C233.334 169.227 234.13 168.266 234.758 167.197C234.985 166.734 235.235 166.282 235.508 165.844C235.409 166.36 235.224 166.855 234.962 167.31C233.772 169.582 231.77 171.324 229.354 172.187C228.868 172.391 228.351 172.509 227.825 172.537Z" fill="#666666"/>
<path id="Vector_114" d="M260.956 161.265C260.984 161.573 260.926 161.882 260.79 162.16C260.536 162.858 260.095 163.474 259.517 163.941C258.94 164.405 258.249 164.706 257.516 164.813C257.217 164.889 256.901 164.877 256.608 164.777C256.894 164.695 257.184 164.633 257.478 164.59C258.155 164.427 258.788 164.118 259.333 163.685C259.872 163.244 260.309 162.692 260.615 162.066C260.815 161.586 260.901 161.254 260.956 161.265Z" fill="#666666"/>
<path id="Vector_115" d="M261.707 162.229C261.726 162.525 261.668 162.822 261.539 163.089C261.285 163.761 260.884 164.368 260.366 164.866C259.847 165.364 259.225 165.74 258.543 165.967C258.27 166.084 257.971 166.125 257.677 166.086C258.577 165.742 259.41 165.243 260.137 164.612C260.793 163.914 261.324 163.108 261.707 162.229Z" fill="#666666"/>
<path id="Vector_116" d="M247.588 181.528C248.741 181.787 249.87 182.145 250.962 182.598L252.116 183.058C251.72 183.711 251.33 184.767 250.714 185.105C250.366 185.295 249.976 185.391 249.58 185.385C249.184 185.379 248.797 185.27 248.456 185.069C247.998 184.646 247.706 184.074 247.631 183.455C247.546 182.816 247.531 182.17 247.588 181.528Z" fill="#FF9A6C"/>
</g>
<g id="Group 8645">
<path id="Vector_117" d="M310.307 471.448C310.307 471.448 309.084 416.393 333.545 416.393V466.201C333.477 466.201 319.752 461.5 310.307 471.448Z" fill="#F5EBEB"/>
<path id="Vector_118" d="M437.028 468.723C437.028 468.723 438.387 413.667 411.072 413.667V463.476C411.072 463.476 426.428 458.706 437.028 468.723Z" fill="#F5EBEB"/>
<path id="Vector_119" d="M326.733 286.22C330.906 285.339 333.183 284.836 335.712 283.703C338.747 282.319 341.53 280.683 344.185 278.418C344.312 278.292 344.438 278.041 344.944 278.167C345.071 278.67 344.944 279.299 344.944 279.928C344.944 280.306 345.45 280.935 344.944 281.061C344.312 281.312 343.427 282.696 343.047 283.326C338.368 291.63 332.551 297.67 325.342 303.458C325.089 303.71 324.836 303.836 324.583 304.087C321.927 306.101 321.674 306.226 318.892 304.465C313.96 301.445 310.925 296.915 309.66 291.001C310.545 291.001 311.557 290.75 312.316 290.75C313.707 290.75 315.225 290.624 316.616 290.372C319.651 289.743 322.56 288.988 325.468 287.855C326.48 287.478 326.354 287.226 326.733 286.22Z" fill="#EDDCDD"/>
<path id="Vector_120" d="M404.637 281.061C404.637 280.306 404.637 278.67 404.637 277.915C404.637 277.034 404.637 276.279 404.637 275.398C405.269 276.153 406.154 276.908 406.66 277.538C407.166 278.167 407.672 278.796 408.178 279.425C408.304 279.551 408.304 279.677 408.431 279.677C408.557 279.802 408.684 279.928 408.684 279.928C408.81 280.054 408.81 280.18 408.937 280.306C409.063 280.557 409.19 280.683 409.316 280.935C409.316 281.564 409.569 282.193 409.948 282.697C411.972 285.842 414.375 288.862 416.777 291.63C417.41 292.26 418.042 292.763 418.674 293.266C420.951 294.65 423.354 295.909 425.883 296.664C427.274 297.041 428.539 297.418 429.804 298.048C430.942 298.677 431.827 298.425 432.586 297.544C433.471 296.538 434.609 296.16 435.874 296.412C436.127 296.412 436.506 296.412 436.759 296.412C436.127 298.803 434.989 300.816 433.724 302.829C431.7 306.352 429.045 309.246 425.757 311.008C425.124 311.385 424.618 311.511 424.113 311.385C423.354 311.26 422.721 310.756 422.595 310.505C421.583 309.498 416.525 304.213 411.466 295.783C407.293 288.862 405.648 285.842 404.637 281.061Z" fill="#EDDCDD"/>
<path id="Vector_121" d="M331.792 285.213C332.045 285.213 332.298 285.213 332.678 285.213C333.057 285.213 333.183 285.716 333.436 285.842C332.804 286.597 331.919 286.723 330.907 287.101C327.113 288.485 323.319 289.995 319.272 290.75C317.375 291.127 315.478 290.875 313.708 291.001C312.569 291.001 311.305 291.505 310.167 291.505C309.408 289.617 309.408 287.101 309.281 285.213C309.408 285.087 309.534 284.962 309.661 284.962C309.914 284.836 310.167 285.087 310.293 285.087C310.419 285.087 314.087 287.73 328.757 285.842C329.769 285.716 330.781 285.465 331.792 285.213Z" fill="#F0E7E8"/>
<path id="Vector_122" d="M437.012 296.286C436.759 296.286 436.379 296.286 436.126 296.286C434.862 296.16 433.85 296.538 432.838 297.418C431.953 298.299 431.068 298.551 430.056 297.922L425.756 296.915C423.227 296.286 422.341 296.286 420.065 294.902C419.433 294.524 417.662 293.392 417.156 292.637C414.753 289.869 413.362 288.485 411.339 285.339C410.96 284.835 408.051 279.802 408.051 279.047C408.81 279.299 410.833 281.564 411.465 282.067C416.145 286.345 421.33 289.365 427.021 290.875C430.309 291.756 433.723 292.134 437.138 291.504C437.517 291.504 438.023 291.253 438.529 291.504C438.276 293.518 437.644 294.902 437.012 296.286Z" fill="#F0E7E8"/>
<path id="Vector_123" d="M405.902 368.008C405.902 367.379 405.649 363.982 405.523 359.452C405.523 357.565 405.523 356.055 405.523 355.551C405.523 348.882 405.775 337.684 405.523 327.114C404.258 273.385 405.396 266.842 403.626 263.948C401.981 261.557 396.038 260.425 396.038 260.425C394.141 260.299 389.841 260.047 387.691 259.921C387.438 259.921 386.806 259.921 383.138 259.921C380.482 259.921 378.332 259.921 376.435 259.921C370.238 259.921 368.341 259.921 362.145 259.921C360.121 259.921 358.098 260.173 355.948 260.425C354.683 260.425 353.545 260.676 352.407 260.676C352.28 260.676 352.28 260.676 352.154 260.676C352.154 260.676 352.154 260.676 352.154 260.551C351.521 260.551 347.095 261.557 346.21 263.193C346.083 263.319 346.083 263.696 345.83 264.074C345.325 264.703 345.325 265.584 345.198 266.339C344.945 274.266 344.566 282.319 344.186 290.246C343.807 299.557 343.428 308.743 342.922 318.054C342.542 325.856 342.416 330.008 342.036 336.299C342.036 336.551 341.784 340.578 341.657 344.478C340.645 365.618 341.404 350.015 341.025 358.32C340.645 366.624 340.898 368.638 340.392 371.657C339.381 377.823 336.725 378.704 336.978 380.969C338.622 392.168 413.771 393.555 411.242 381.979C410.483 378.078 406.408 375.936 405.902 368.008Z" fill="#EDDCDD"/>
<path id="Vector_124" d="M346.194 263.253C346.194 263.379 345.44 264.761 345.188 264.636V264.51C344.937 261.744 347.325 259.607 349.085 258.35C349.965 257.721 350.343 257.093 349.965 255.961C350.594 255.836 351.097 255.71 351.223 255.081C351.977 255.961 352.983 255.836 353.988 255.71C357.886 255.207 361.909 254.956 365.932 254.956C369.954 254.956 374.103 254.956 378.126 255.207C382.903 255.458 387.555 255.836 392.332 256.59C396.104 257.218 400.504 257.596 402.515 261.116C402.892 261.744 403.269 262.373 403.521 263.001C403.772 263.756 404.024 264.133 403.898 264.887C403.395 264.887 403.018 264.761 402.515 264.384C402.012 264.007 401.132 263.253 400.504 262.876C400.504 262.876 399.875 262.624 398.995 262.373C397.235 262.247 387.681 261.744 374.732 261.367C352.731 261.367 347.325 261.493 346.194 263.253Z" fill="#F0E7E8"/>
<path id="Vector_125" d="M387.944 273.385C389.968 273.511 391.738 274.266 393.256 275.524C395.026 276.908 396.291 278.796 397.176 280.935C397.429 281.69 397.303 282.067 396.797 282.319C396.291 282.57 395.912 282.319 395.532 281.69C395.153 281.06 394.9 280.431 394.52 279.802C392.497 276.531 389.715 274.643 385.668 275.272C385.035 275.398 384.53 275.147 384.403 274.643C384.277 274.14 384.656 273.762 385.288 273.511C386.174 273.259 387.059 273.259 387.944 273.385Z" fill="#875A44"/>
<path id="Vector_126" d="M359.361 275.272C360.12 275.021 360.879 274.769 361.637 274.517C361.89 274.391 362.017 274.391 362.27 274.391C363.029 274.266 363.408 274.517 363.534 275.021C363.661 275.524 363.408 275.901 362.776 276.153C362.017 276.405 361.132 276.531 360.499 276.908C357.464 277.789 355.441 279.802 354.176 282.696C354.176 282.822 354.049 282.948 354.049 283.074C353.797 283.954 353.417 284.332 352.785 284.08C352.279 283.954 352.026 283.325 352.279 282.444C352.658 281.06 353.291 279.928 354.176 278.921C355.567 277.286 357.464 276.153 359.361 275.272Z" fill="#875A44"/>
<path id="Vector_127" d="M354.43 345.359C349.877 340.578 347.98 334.664 347.221 332.021C345.957 327.869 345.83 324.849 345.704 323.968C345.324 319.061 345.577 315.16 349.245 310.253C349.751 309.624 352.027 307.359 355.315 306.981C356.453 306.856 357.212 306.981 357.465 306.981C374.285 307.862 374.791 307.611 383.011 306.73C383.644 306.604 389.461 305.849 392.623 306.856C393.635 307.233 394.52 307.611 394.52 307.611C395.532 308.24 396.417 309.121 397.176 310.127C398.946 312.518 400.084 314.783 400.337 317.677C400.464 319.061 400.59 320.571 400.59 321.955C400.59 325.478 400.337 326.233 399.958 327.366C398.946 331.141 397.934 334.79 395.911 338.313C393.255 342.968 390.094 345.737 387.564 348.127C385.035 350.392 383.77 351.525 382 352.531C374.285 356.684 361.512 352.783 354.43 345.359Z" fill="#D6B4B5"/>
<path id="Vector_128" d="M370.996 323.717C370.996 324.472 370.996 325.101 370.743 325.605C370.111 326.611 369.479 326.863 368.467 326.234C367.835 325.856 367.202 325.353 366.696 324.85C365.052 322.71 363.535 320.697 362.27 318.306C361.258 316.545 362.017 313.902 365.052 313.777C367.076 313.651 368.593 314.783 369.479 316.671C370.111 318.181 370.49 319.942 370.743 321.578C370.87 322.459 371.123 323.214 370.996 323.717Z" fill="#161616"/>
<path id="Vector_129" d="M381.367 325.101C381.62 322.836 381.62 320.32 382.505 317.929C383.138 316.419 383.897 315.161 385.667 314.783C387.564 314.28 390.346 315.916 390.852 317.803C390.979 318.432 390.852 319.061 390.599 319.69C390.22 320.697 389.714 321.578 388.955 322.459C387.943 323.717 386.932 325.101 386.046 326.359C385.667 326.863 385.288 327.24 384.908 327.618C384.276 328.247 383.391 328.498 382.632 328.121C381.873 327.743 381.494 326.988 381.494 326.108C381.367 325.73 381.367 325.604 381.367 325.101Z" fill="#161616"/>
<path id="Vector_130" d="M349.371 310.253C350.889 307.611 354.556 306.981 355.441 306.981C356.58 306.856 357.465 306.981 357.591 306.981C374.411 307.862 374.917 307.611 383.138 306.73C383.77 306.604 389.587 305.849 392.749 306.856C393.761 307.233 394.646 307.611 394.646 307.611C396.29 308.366 397.428 309.624 397.302 310.127C397.175 311.26 386.805 307.862 375.17 310.63C372.767 311.134 371.882 311.637 370.112 311.889C363.662 312.518 361.638 308.743 355.947 309.498C352.28 310.001 349.371 312.518 348.865 311.763C348.865 311.26 349.118 310.756 349.371 310.253Z" fill="#D8BDBE"/>
<path id="Vector_131" d="M399.832 371.532C387.186 375.307 375.045 375.558 369.227 375.558C369.227 375.558 348.993 374.3 346.464 372.916C346.337 372.79 347.222 367.002 347.222 367.002C347.222 364.989 347.096 365.24 347.096 363.227C347.096 362.85 347.096 362.472 347.096 362.095C347.222 361.591 347.222 361.34 347.349 361.214C347.602 360.962 348.108 361.214 348.234 361.34C349.625 362.095 359.49 365.24 377.574 365.115C381.621 365.115 393.509 363.479 400.465 359.956C401.223 359.704 401.982 359.326 402.741 358.823C403.626 358.32 404.512 357.942 405.27 357.439C405.27 358.571 405.27 360.333 405.397 362.472C405.65 365.492 405.523 364.989 405.65 367.505C405.903 368.386 402.362 370.777 399.832 371.532Z" fill="#161616"/>
<path id="Vector_132" opacity="0.1" d="M340.028 367.655C340.028 367.655 375.222 387.619 404.57 370.176C404.57 370.176 405.301 375.831 401.891 378.284C398.481 380.669 378.571 382.713 369.803 384.553C361.035 386.393 346.239 373.038 343.56 372.901C340.88 372.765 339.724 371.811 340.028 367.655Z" fill="#7F7D7C"/>
<path id="Vector_133" d="M336.725 366.876C336.725 363.604 337.104 360.458 337.357 357.187C337.483 356.054 337.61 355.048 337.61 353.915C337.736 352.405 338.875 351.65 339.886 350.644C340.139 350.392 340.645 350.518 341.024 350.392C342.795 350.392 344.566 350.518 346.336 350.644C346.842 350.644 347.348 350.77 347.854 351.021C348.739 351.273 349.245 352.154 349.245 353.034C348.865 359.578 348.865 366.247 348.739 372.915C348.739 373.545 348.612 374.174 348.612 374.803C348.486 375.81 348.107 376.313 347.095 376.564C345.451 376.942 343.933 376.69 342.289 376.439C339.507 375.935 337.483 373.67 336.978 370.902C336.725 369.644 336.725 368.26 336.725 366.876Z" fill="#7AC16E"/>
<path id="Vector_134" d="M344.311 365.366C344.311 362.975 344.438 359.955 344.691 356.935C344.691 356.558 344.691 356.18 344.944 355.803C345.07 355.551 345.197 355.551 345.45 355.551C345.702 355.551 345.829 355.803 345.829 356.055C345.829 356.432 345.829 356.935 345.829 357.313C345.576 360.71 345.45 364.233 345.45 367.631C345.45 369.77 345.576 371.909 345.702 373.922C345.702 374.174 345.702 374.3 345.702 374.551C345.702 375.055 345.829 375.684 345.197 375.684C344.564 375.684 344.691 375.055 344.564 374.677C344.311 371.783 344.185 368.889 344.311 365.366Z" fill="#629B56"/>
<path id="Vector_135" d="M341.151 352.783C342.542 352.783 343.807 353.035 344.945 353.412C345.198 353.538 345.577 353.664 345.83 353.79C345.957 353.916 346.083 354.167 345.957 354.419C345.83 354.671 345.577 354.796 345.198 354.671C343.68 354.041 342.036 353.916 340.392 353.79C340.139 353.79 339.76 353.664 339.76 353.287C339.76 353.035 340.013 352.783 340.266 352.783C340.645 352.783 340.898 352.783 341.151 352.783Z" fill="#629B56"/>
<path id="Vector_136" d="M332.594 462.249C332.594 462.249 306.503 459.456 308.541 480.033C310.58 500.611 341.087 491.889 341.087 491.889C341.087 491.889 332.051 472.266 332.594 462.249Z" fill="#1E1E1E"/>
<path id="Vector_137" d="M413.518 458.093C413.518 458.093 438.387 455.913 439.881 477.989C439.881 477.989 441.036 495.092 412.023 493.32C412.023 493.388 415.013 480.442 413.518 458.093Z" fill="#1E1E1E"/>
<path id="Vector_138" d="M376.655 493.997L423.517 492.99C423.517 492.99 427.243 406.588 413.043 384.072C412.363 383.017 408.385 376.894 407.638 376.19C407.638 376.19 385.001 398.71 337.574 378.868C337.574 378.868 327.906 395.26 325.596 421.152C324.033 438.039 324.508 464.623 329.672 491.219L364.094 493.997H376.655Z" fill="#EDDCDD"/>
<path id="Vector_139" d="M369.013 467.155C369.896 460.819 371.595 442.558 364.053 426.409L369.013 467.155Z" fill="#CEBABB"/>
<path id="Vector_140" d="M386.067 427.159C386.067 427.159 379.409 440.445 384.708 466.338L386.067 427.159Z" fill="#CEBABB"/>
<path id="Vector_141" d="M369.829 485.555C369.829 485.555 370.237 468.384 348.154 468.112C330.013 467.839 327.838 486.032 327.702 492.573C327.634 493.868 328.654 494.89 329.945 494.89H367.587C368.81 494.89 369.829 493.868 369.829 492.641V485.555Z" fill="#333333"/>
<path id="Vector_142" d="M383.35 484.601C383.35 484.601 382.942 467.431 405.025 467.158C423.167 466.886 425.341 485.078 425.477 491.62C425.545 492.846 424.526 493.868 423.235 493.868H385.592C384.369 493.868 383.35 492.846 383.35 491.62V484.601Z" fill="#333333"/>
<path id="Vector_143" d="M384.777 470.766C384.777 470.766 370.168 463.067 369.829 470.426C369.489 477.785 369.829 488.141 369.829 489.709C369.829 491.276 373.226 491.412 374.517 491.14C375.808 490.935 383.35 493.252 383.35 491.957C383.35 489.504 382.874 479.556 386.068 475.74C389.397 471.652 384.777 470.766 384.777 470.766Z" fill="#EAAC98"/>
<path id="Vector_144" d="M373.906 477.649C374.957 477.649 375.809 476.795 375.809 475.741C375.809 474.687 374.957 473.833 373.906 473.833C372.856 473.833 372.004 474.687 372.004 475.741C372.004 476.795 372.856 477.649 373.906 477.649Z" fill="#C6998D"/>
<path id="Vector_145" d="M381.719 478.739C382.77 478.739 383.621 477.884 383.621 476.831C383.621 475.777 382.77 474.923 381.719 474.923C380.668 474.923 379.816 475.777 379.816 476.831C379.816 477.884 380.668 478.739 381.719 478.739Z" fill="#C6998D"/>
<path id="Vector_146" d="M372.945 486.366C373.996 486.366 374.848 485.512 374.848 484.458C374.848 483.404 373.996 482.55 372.945 482.55C371.895 482.55 371.043 483.404 371.043 484.458C371.043 485.512 371.895 486.366 372.945 486.366Z" fill="#C6998D"/>
<path id="Vector_147" d="M380.758 487.456C381.809 487.456 382.66 486.602 382.66 485.548C382.66 484.494 381.809 483.64 380.758 483.64C379.707 483.64 378.855 484.494 378.855 485.548C378.855 486.602 379.707 487.456 380.758 487.456Z" fill="#C6998D"/>
<path id="Vector_148" d="M364.908 291.348C364.908 292.34 364.648 293.75 363.921 295.107C362.57 297.509 359.921 297.457 358.674 295.316C356.856 292.288 356.7 289.104 358.362 285.971C359.609 283.57 362.103 283.57 363.609 285.867C364.596 287.329 364.908 289.051 364.908 291.348Z" fill="#161616"/>
<path id="Vector_149" d="M387.404 292.079C389.118 291.974 390.781 291.87 392.495 291.766C392.755 291.766 393.015 291.713 393.275 291.713C393.95 291.766 394.365 292.131 394.365 292.705C394.365 293.227 393.95 293.645 393.326 293.697C392.236 293.802 391.197 293.854 390.106 293.906C387.716 294.01 385.274 294.219 382.884 294.48C382.417 294.532 381.897 294.532 381.43 294.48C380.858 294.428 380.391 294.115 380.287 293.541C380.235 292.966 380.547 292.601 381.014 292.392C381.69 292.079 382.417 291.818 383.144 291.557C385.482 290.617 387.716 289.573 389.846 288.215C390.781 287.641 391.716 287.015 392.443 286.075C392.807 285.657 393.223 285.448 393.742 285.814C394.21 286.127 394.314 286.701 394.002 287.276C393.69 287.798 393.275 288.163 392.807 288.529C391.352 289.729 389.742 290.669 388.028 291.504C387.82 291.609 387.56 291.766 387.352 291.87C387.352 291.922 387.352 292.027 387.404 292.079Z" fill="#161616"/>
<path id="Vector_150" d="M358.479 329.432C357.855 329.693 357.751 330.163 357.544 330.529C357.284 330.999 356.92 331.155 356.401 330.999C355.933 330.842 355.725 330.424 355.777 329.902C355.777 329.485 355.985 329.119 356.193 328.806C356.972 327.762 358.011 327.083 359.154 326.561C360.037 326.196 360.765 326.665 360.661 327.605C360.609 328.232 360.817 328.649 361.18 329.067C363.622 332.304 366.843 334.34 370.739 335.384C377.025 337.055 382.947 336.063 388.506 332.774C388.87 332.565 389.182 332.304 389.545 332.147C390.013 331.938 390.428 331.991 390.74 332.46C391 332.878 390.948 333.348 390.584 333.661C390.324 333.922 390.013 334.131 389.701 334.288C387.519 335.645 385.233 336.689 382.74 337.263C382.168 337.42 381.597 337.472 381.545 338.255C381.545 338.412 381.389 338.569 381.285 338.725C377.077 343.372 371.934 344.259 366.999 341.075C364.921 339.717 363.362 337.942 361.959 335.906C360.557 333.922 359.466 331.73 358.479 329.432ZM370.116 339.091C372.298 340.918 375.103 341.022 376.558 339.456C374.428 339.456 372.401 339.508 370.116 339.091Z" fill="#161616"/>
</g>
</svg>
