<svg width="489" height="494" viewBox="0 0 489 494" fill="none" xmlns="http://www.w3.org/2000/svg">
<rect width="489" height="494" fill="#F5F5F5"/>
<g id="Telas desktop">
<rect width="1366" height="768" transform="translate(-121.875 -161.191)" fill="white"/>
</g>
<rect id="Rectangle 113" x="-121.875" y="-161.191" width="752.066" height="768" fill="#D6EDD4"/>
<g id="freepik--background-complete--inject-70">
<path id="Vector" d="M77.4176 186.176C72.1147 189.452 66.0043 191.188 59.7708 191.188C53.5373 191.188 47.4268 189.452 42.124 186.176C35.9136 182.337 31.1247 176.577 28.4836 169.77C25.8425 162.963 25.4932 155.481 27.4888 148.457C29.4844 141.434 33.716 135.253 39.5417 130.852C45.3675 126.451 52.4695 124.07 59.7708 124.07C67.072 124.07 74.1741 126.451 79.9998 130.852C85.8256 135.253 90.0572 141.434 92.0527 148.457C94.0484 155.481 93.6991 162.963 91.058 169.77C88.4169 176.577 83.628 182.337 77.4176 186.176Z" fill="#ACDBA9"/>
<path id="Vector_2" d="M69.9823 153.756C69.9823 155.776 69.3833 157.751 68.2611 159.43C67.1389 161.11 65.5439 162.419 63.6778 163.192C61.8116 163.965 59.7582 164.167 57.7771 163.773C55.796 163.379 53.9762 162.406 52.5479 160.978C51.1196 159.55 50.1469 157.73 49.7529 155.749C49.3588 153.768 49.5611 151.714 50.3341 149.848C51.107 147.982 52.416 146.387 54.0955 145.265C55.775 144.142 57.7496 143.543 59.7695 143.543C62.4781 143.543 65.0758 144.619 66.991 146.535C68.9063 148.45 69.9823 151.048 69.9823 153.756Z" fill="white"/>
<path id="Vector_3" d="M77.4167 181.925V186.176C72.1138 189.453 66.0034 191.188 59.7699 191.188C53.5364 191.188 47.4259 189.453 42.123 186.176V181.972C42.123 177.292 43.9823 172.803 47.2917 169.494C50.6011 166.184 55.0896 164.325 59.7699 164.325C64.4501 164.325 68.9386 166.184 72.2481 169.494C75.5575 172.803 77.4167 177.292 77.4167 181.972V181.925Z" fill="white"/>
<path id="Vector_4" d="M32.5871 46.7942C33.1769 46.4331 33.855 46.242 34.5466 46.242C35.2381 46.242 35.9162 46.4331 36.506 46.7942C36.8385 46.9842 37.171 47.1861 37.5154 47.3642C37.8598 47.5423 38.2042 47.7204 38.5605 47.8867C39.1874 48.1741 39.7231 48.6287 40.1085 49.2007C40.494 49.7726 40.7144 50.4397 40.7455 51.1287L40.888 55.962L56.6111 55.5463L56.4567 50.7249C56.4417 50.034 56.6179 49.3523 56.9657 48.7551C57.3136 48.1579 57.8196 47.6683 58.428 47.3404C59.1139 46.9809 59.7799 46.5844 60.423 46.1529C60.9877 45.7545 61.6517 45.5203 62.3413 45.4763C63.031 45.4323 63.7193 45.5801 64.3301 45.9035L68.5696 48.1836L76.0273 34.23L71.7878 31.9499C71.1812 31.622 70.6777 31.1317 70.3338 30.534C69.9898 29.9363 69.819 29.2547 69.8402 28.5654C69.8549 27.7728 69.8271 26.98 69.7571 26.1904C69.685 25.4939 69.8091 24.7912 70.1155 24.1616C70.4219 23.532 70.8983 23.0007 71.4909 22.6277L75.5879 20.0864L67.2751 6.85723L63.1544 9.35106C62.5669 9.71241 61.8906 9.90372 61.2009 9.90372C60.5111 9.90372 59.8349 9.71241 59.2474 9.35106C58.9268 9.14918 58.5824 8.95918 58.2499 8.78105L57.2167 8.25853C56.5866 7.97079 56.0481 7.51477 55.6604 6.94068C55.2728 6.36658 55.0511 5.69667 55.0197 5.00467L54.8772 0.171387L39.2136 0.634526L39.368 5.44406C39.387 6.13578 39.2126 6.81907 38.8643 7.41702C38.516 8.01496 38.0077 8.50382 37.3967 8.82855C36.7123 9.19096 36.0465 9.5873 35.4016 10.0161C34.837 10.4145 34.173 10.6487 33.4833 10.6927C32.7937 10.7367 32.1053 10.5888 31.4946 10.2655L27.1957 8.04477L19.7617 21.9152L24.0012 24.1834C24.6097 24.5123 25.1144 25.0044 25.4584 25.6044C25.8025 26.2044 25.9723 26.8885 25.9488 27.5798C25.9341 28.3724 25.9619 29.1652 26.0319 29.9549C26.1041 30.6513 25.9799 31.3541 25.6735 31.9836C25.3671 32.6132 24.8907 33.1445 24.2981 33.5175L20.213 35.9757L28.5258 49.3355L32.5871 46.7942ZM36.5298 21.9865C37.7336 19.7434 39.5755 17.9075 41.8226 16.7111C44.0697 15.5147 46.6211 15.0115 49.1542 15.265C51.6873 15.5185 54.0884 16.5173 56.0539 18.1353C58.0193 19.7533 59.4609 21.9177 60.1964 24.3549C60.9319 26.7921 60.9282 29.3926 60.1858 31.8277C59.4435 34.2628 57.9958 36.4232 56.0258 38.0356C54.0557 39.648 51.6519 40.6401 49.118 40.8864C46.5842 41.1328 44.0343 40.6223 41.7906 39.4195C38.7829 37.8037 36.5395 35.0602 35.5531 31.7915C34.5667 28.5229 34.918 24.9963 36.5298 21.9865Z" fill="#ACDBA9"/>
<path id="Vector_5" d="M465.897 359.856C466.146 359.44 466.505 359.1 466.935 358.874C467.364 358.648 467.847 358.544 468.331 358.574H469.139H469.958C470.433 358.552 470.905 358.66 471.323 358.886C471.742 359.112 472.091 359.447 472.333 359.856L474.02 362.789L483.52 357.279L481.834 354.346C481.592 353.925 481.473 353.446 481.49 352.961C481.507 352.476 481.659 352.006 481.929 351.603C482.227 351.147 482.501 350.675 482.748 350.19C482.967 349.749 483.307 349.379 483.727 349.123C484.147 348.866 484.631 348.734 485.123 348.741H488.496V337.72H485.123C484.631 337.726 484.148 337.593 483.728 337.337C483.308 337.08 482.968 336.711 482.748 336.272C482.501 335.786 482.227 335.314 481.929 334.858C481.659 334.453 481.507 333.981 481.49 333.494C481.474 333.008 481.592 332.526 481.834 332.103L483.52 329.182L474.02 323.672L472.322 326.617C472.08 327.026 471.731 327.361 471.312 327.586C470.893 327.81 470.421 327.914 469.946 327.888H469.127H468.32C467.835 327.919 467.351 327.815 466.922 327.589C466.492 327.363 466.133 327.022 465.885 326.605L464.199 323.672L454.698 329.182L456.385 332.103C456.626 332.524 456.745 333.004 456.729 333.489C456.712 333.973 456.56 334.444 456.29 334.847C455.991 335.307 455.718 335.782 455.47 336.272C455.25 336.711 454.911 337.08 454.491 337.337C454.071 337.593 453.587 337.726 453.095 337.72H449.723V348.741H453.095C453.587 348.735 454.071 348.868 454.491 349.125C454.911 349.381 455.25 349.75 455.47 350.19C455.724 350.68 455.997 351.155 456.29 351.615C456.56 352.018 456.712 352.488 456.729 352.973C456.745 353.457 456.626 353.937 456.385 354.358L454.698 357.279L464.199 362.789L465.897 359.856ZM460.114 343.231C460.114 341.446 460.643 339.701 461.635 338.216C462.626 336.732 464.036 335.575 465.685 334.892C467.334 334.209 469.149 334.031 470.9 334.379C472.65 334.727 474.259 335.587 475.521 336.849C476.783 338.111 477.643 339.719 477.991 341.47C478.339 343.221 478.16 345.035 477.477 346.684C476.794 348.334 475.637 349.743 474.153 350.735C472.669 351.727 470.924 352.256 469.139 352.256C466.746 352.253 464.452 351.301 462.761 349.609C461.069 347.917 460.117 345.623 460.114 343.231Z" fill="#ACDBA9"/>
<path id="Vector_6" d="M72.8686 74.7962C73.2775 75.0388 73.6127 75.3879 73.8386 75.8062C74.0645 76.2245 74.1725 76.6964 74.1512 77.1713C74.1512 77.4444 74.1512 77.7175 74.1512 77.9907C74.1512 78.2638 74.1512 78.5369 74.1512 78.7982C74.1738 79.2733 74.0664 79.7457 73.8404 80.1642C73.6144 80.5828 73.2784 80.9317 72.8686 81.1733L69.9473 82.8715L75.4456 92.3718L78.4025 90.8161C78.8232 90.5745 79.303 90.4554 79.7877 90.4722C80.2725 90.489 80.7429 90.641 81.1458 90.9111C81.6057 91.2096 82.0814 91.4831 82.5708 91.7305C83.0093 91.9514 83.3767 92.2913 83.6308 92.7114C83.885 93.1315 84.0156 93.6147 84.0077 94.1056V97.4782H95.0281V94.1056C95.0227 93.6137 95.1557 93.1302 95.4119 92.7103C95.668 92.2903 96.0371 91.9508 96.4769 91.7305C96.9598 91.4772 97.4348 91.204 97.9019 90.9111C98.3048 90.641 98.7752 90.489 99.26 90.4722C99.7447 90.4554 100.225 90.5745 100.645 90.8161L103.566 92.5024L109.077 83.0021L106.132 81.3039C105.725 81.0598 105.392 80.71 105.168 80.2918C104.945 79.8736 104.838 79.4026 104.861 78.9288C104.861 78.6557 104.861 78.3826 104.861 78.1213C104.861 77.86 104.861 77.575 104.861 77.3019C104.84 76.827 104.948 76.3552 105.173 75.9368C105.399 75.5185 105.735 75.1694 106.143 74.9268L109.077 73.2286L103.566 63.7283L100.657 65.4146C100.234 65.6559 99.7525 65.7748 99.266 65.758C98.7795 65.7412 98.3072 65.5894 97.9019 65.3196C97.4435 65.0186 96.9677 64.745 96.4769 64.5002C96.0371 64.2799 95.668 63.9404 95.4119 63.5205C95.1557 63.1005 95.0227 62.617 95.0281 62.1252V58.6338H83.984V62.0064C83.9907 62.4986 83.8583 62.9826 83.602 63.4028C83.3457 63.823 82.9759 64.1623 82.5352 64.3815C82.0443 64.6269 81.5693 64.9 81.1101 65.2009C80.7072 65.4709 80.2368 65.623 79.7521 65.6398C79.2673 65.6565 78.7875 65.5374 78.3669 65.2959L75.4456 63.6096L69.9473 73.1099L72.8686 74.7962ZM89.4942 69.001C91.2787 69.001 93.0232 69.53 94.5071 70.5212C95.9911 71.5124 97.1478 72.9213 97.8313 74.5697C98.5147 76.2182 98.6942 78.0323 98.3469 79.7827C97.9996 81.5331 97.1412 83.1413 95.8802 84.4039C94.6192 85.6666 93.0121 86.5271 91.2622 86.8767C89.5122 87.2263 87.6979 87.0493 86.0485 86.368C84.3992 85.6867 82.9888 84.5318 81.9957 83.0491C81.0025 81.5665 80.4712 79.8227 80.4689 78.0382C80.4689 75.6434 81.4194 73.3466 83.1116 71.6521C84.8038 69.9577 87.0994 69.0042 89.4942 69.001Z" fill="#ACDBA9"/>
<path id="Vector_7" d="M487.011 20.9561H421.162V100.83H487.011V20.9561Z" fill="#ACDBA9"/>
<path id="Vector_8" d="M479.481 28.2476H428.678V93.5384H479.481V28.2476Z" fill="white"/>
<path id="Vector_9" d="M430.661 28.2476H428.678V93.5384H430.661V28.2476Z" fill="#83CA7D"/>
<path id="Vector_10" d="M488.983 20.9561H487V100.83H488.983V20.9561Z" fill="#83CA7D"/>
<path id="Vector_11" d="M455.209 79.0264H467.191V43.3408H455.209V79.0264Z" fill="#ACDBA9"/>
<path id="Vector_12" d="M473.009 55.3234H439.889V36.6553H473.009V55.3234ZM441.076 54.1358H471.822V37.8428H441.076V54.1358Z" fill="#ACDBA9"/>
<path id="Vector_13" d="M487.011 217.779H421.162V297.653H487.011V217.779Z" fill="#ACDBA9"/>
<path id="Vector_14" d="M479.481 225.07H428.678V290.361H479.481V225.07Z" fill="white"/>
<path id="Vector_15" d="M430.661 225.07H428.678V290.361H430.661V225.07Z" fill="#83CA7D"/>
<path id="Vector_16" d="M488.983 217.779H487V297.653H488.983V217.779Z" fill="#83CA7D"/>
<path id="Vector_17" d="M457.691 240.176H445.709V275.861H457.691V240.176Z" fill="#ACDBA9"/>
<path id="Vector_18" d="M473.009 252.146H439.889V233.478H473.009V252.146ZM441.076 250.959H471.822V234.666H441.076V250.959Z" fill="#ACDBA9"/>
<path id="Vector_19" d="M487.011 119.724H421.162V199.597H487.011V119.724Z" fill="#ACDBA9"/>
<path id="Vector_20" d="M479.481 127.015H428.678V192.306H479.481V127.015Z" fill="white"/>
<path id="Vector_21" d="M430.661 127.015H428.678V192.306H430.661V127.015Z" fill="#83CA7D"/>
<path id="Vector_22" d="M488.983 119.724H487V199.597H488.983V119.724Z" fill="#83CA7D"/>
<path id="Vector_23" d="M459.424 143.89H449.164V169.837H459.424V143.89Z" fill="#ACDBA9"/>
<path id="Vector_24" d="M470.825 178.138H442.062V159.066H470.825V178.138ZM443.25 176.951H469.637V160.254H443.25V176.951Z" fill="#ACDBA9"/>
<path id="Vector_25" d="M42.4316 247.671V493.109H146.092V247.671H42.4316ZM51.8488 338.636H136.722V402.535H51.8488V338.636ZM51.8488 259.53H136.722V323.43H51.8488V259.53Z" fill="#ACDBA9"/>
<path id="Vector_26" d="M0.962788 493.11H42.4316L42.4316 247.688H0.962788L0.962788 493.11Z" fill="#83CA7D"/>
<path id="Vector_27" d="M116.545 374.498H136.709V329.847H116.545V374.498Z" fill="#DBDBDB"/>
<path id="Vector_28" d="M136.59 482.778H51.4082V439.314H136.59V482.778ZM52.2751 481.887H135.723V440.205H52.2751V481.887Z" fill="#83CA7D"/>
<path id="Vector_29" d="M89.1735 460.215H105.93V451.736H89.1735V460.215Z" fill="#DBDBDB"/>
<path id="Vector_30" d="M101.428 460.025H83.7812V451.938H101.428V460.025ZM84.6719 459.134H100.537V452.828H84.6719V459.134Z" fill="#83CA7D"/>
<path id="Vector_31" d="M116.545 429.802H136.709V385.15H116.545V429.802Z" fill="#DBDBDB"/>
</g>
<g id="freepik--Plant--inject-70">
<path id="Vector_32" d="M26.4367 453.783C28.3555 450.581 30.09 447.273 31.632 443.874C32.2832 440.219 33.229 436.623 34.4601 433.12C34.4601 433.057 34.5718 433.12 34.5579 433.162C33.8037 436.388 32.9239 439.593 32.1278 442.812C34.4252 437.834 36.6108 432.799 39.3481 428.093C39.9805 425.82 40.8659 423.625 41.9877 421.55C41.9877 421.487 42.1204 421.55 42.0924 421.584C41.3987 423.176 40.8041 424.808 40.3118 426.472C41.6034 424.375 43.0506 422.376 44.6412 420.495C44.7389 420.376 44.9415 420.495 44.8437 420.628C41.1777 425.306 38.6499 430.62 36.2477 435.99C38.8338 433.183 41.2208 430.199 43.3912 427.059C43.3912 427.059 43.4611 427.059 43.4401 427.094C41.1685 430.615 38.5987 433.935 35.7589 437.017C34.0062 440.962 32.2675 444.921 30.1726 448.671C34.3623 445.145 37.5605 440.571 40.7447 436.165C40.8146 436.067 40.9682 436.165 40.8984 436.27C37.7211 441.109 34.4252 445.662 29.8444 449.244C28.9164 450.895 27.8952 452.492 26.7859 454.027C26.7468 454.046 26.7034 454.054 26.6601 454.05C26.6169 454.047 26.5753 454.032 26.5398 454.007C26.5042 453.982 26.476 453.948 26.4579 453.909C26.4397 453.869 26.4325 453.826 26.4367 453.783Z" fill="#263238"/>
<path id="Vector_33" d="M20.7389 424.517C21.6077 429.7 22.9302 434.796 24.6912 439.747C24.6912 433.036 24.8519 426.326 25.0334 419.622C23.8806 415.55 23.231 411.353 23.0991 407.123C23.0991 407.004 23.2807 407.011 23.2877 407.123C23.6081 410.748 24.2081 414.344 25.0823 417.877C25.2359 412.341 25.4151 406.806 25.62 401.271C25.6249 401.256 25.6346 401.242 25.6478 401.232C25.661 401.223 25.6769 401.217 25.6933 401.217C25.7097 401.217 25.7256 401.223 25.7388 401.232C25.752 401.242 25.7617 401.256 25.7666 401.271C25.7666 409.916 25.7666 418.561 25.7108 427.206C26.9575 423.863 27.9428 420.429 28.6575 416.934C28.6575 416.899 28.7204 416.934 28.7204 416.934C28.3077 420.96 27.2883 424.902 25.6968 428.623C25.6549 434.154 25.599 439.677 25.4733 445.201C27.2051 439.342 29.0416 433.658 29.5583 427.471C29.5629 427.457 29.5718 427.445 29.5837 427.436C29.5956 427.428 29.61 427.423 29.6247 427.423C29.6394 427.423 29.6537 427.428 29.6656 427.436C29.6775 427.445 29.6864 427.457 29.691 427.471C29.5514 434.321 27.7847 441.269 25.5013 447.722C25.4758 447.782 25.4377 447.837 25.3895 447.882C25.3337 449.9 25.2778 451.925 25.208 453.943C25.208 454.003 25.1844 454.059 25.1425 454.101C25.1006 454.143 25.0438 454.167 24.9845 454.167C24.9253 454.167 24.8684 454.143 24.8265 454.101C24.7846 454.059 24.7611 454.003 24.7611 453.943C24.6866 449.809 24.654 445.676 24.6633 441.542C22.4395 436.118 21.089 430.377 20.6621 424.531C20.6621 424.482 20.7319 424.468 20.7389 424.517Z" fill="#263238"/>
<path id="Vector_34" d="M21.4445 421.606C21.7952 423.247 22.0285 424.91 22.1427 426.584C22.1427 426.64 22.0589 426.647 22.045 426.584C21.6472 424.952 21.3671 423.292 21.207 421.62C21.207 421.501 21.4165 421.48 21.4445 421.606Z" fill="#263238"/>
<path id="Vector_35" d="M27.4278 407.822C27.4278 407.766 27.5255 407.787 27.5255 407.822C27.5103 408.984 27.3388 410.14 27.0158 411.257C27.013 411.266 27.0085 411.275 27.0024 411.282C26.9964 411.29 26.9889 411.296 26.9805 411.3C26.9721 411.305 26.9628 411.308 26.9533 411.309C26.9438 411.31 26.9342 411.309 26.925 411.306C26.9158 411.303 26.9073 411.299 26.8999 411.293C26.8925 411.287 26.8863 411.279 26.8818 411.271C26.8772 411.262 26.8744 411.253 26.8734 411.244C26.8725 411.234 26.8734 411.224 26.8761 411.215C27.0996 410.098 27.2392 408.96 27.4278 407.822Z" fill="#263238"/>
<path id="Vector_36" d="M21.2063 454.16C21.2063 454.16 21.6183 434.454 15.9761 424.678C10.334 414.902 0.962891 409.909 0.962891 409.909C0.962891 409.909 4.74064 444.621 21.2063 454.16Z" fill="#83CA7D"/>
<path id="Vector_37" d="M10.8858 437.331C13.1703 440.771 15.7397 444.014 18.567 447.023C17.4428 443.001 16.13 439.042 14.6566 435.153C11.4933 432.359 8.37196 429.503 6.40976 425.705C6.40235 425.692 6.4004 425.676 6.40433 425.662C6.40826 425.648 6.41775 425.635 6.43071 425.628C6.44367 425.62 6.45905 425.618 6.47346 425.622C6.48786 425.626 6.50011 425.636 6.50752 425.649C8.60239 429.015 11.3956 431.703 14.3214 434.294C12.0582 428.432 9.43459 422.716 6.46562 417.179C6.45245 417.15 6.45038 417.118 6.4598 417.088C6.46922 417.058 6.48947 417.033 6.51656 417.017C6.54365 417.001 6.57565 416.996 6.60627 417.003C6.63689 417.009 6.66393 417.027 6.68209 417.053C8.47703 419.953 10.1089 422.951 11.5701 426.033C11.0464 423.938 10.6205 421.78 10.0758 419.692C10.0794 419.683 10.0857 419.676 10.0938 419.67C10.1019 419.665 10.1114 419.662 10.1212 419.662C10.1309 419.662 10.1405 419.665 10.1486 419.67C10.1567 419.676 10.1629 419.683 10.1666 419.692C11.2797 422.38 12.0584 425.194 12.4849 428.072C14.4613 432.435 16.1228 436.934 17.4567 441.535C17.3101 438.588 17.1285 435.648 16.8213 432.709C16.8213 432.653 16.9121 432.639 16.919 432.709C17.55 435.975 17.8379 439.298 17.7779 442.624C18.588 445.557 19.27 448.52 19.8239 451.513C19.8239 451.59 19.7192 451.632 19.6982 451.548C19.398 450.291 19.0628 449.049 18.7206 447.813C18.7206 447.813 18.6787 447.813 18.6578 447.813C15.5106 444.776 12.8848 441.242 10.8858 437.352V437.331Z" fill="#263238"/>
<path id="Vector_38" d="M4.37057 421.319C4.99903 422.018 5.57861 422.716 6.18613 423.414C6.77517 424.006 7.31903 424.641 7.81314 425.314C7.81819 425.32 7.82064 425.329 7.82004 425.337C7.81944 425.346 7.81584 425.353 7.8099 425.359C7.80396 425.365 7.79607 425.369 7.78769 425.369C7.77931 425.37 7.77099 425.368 7.76426 425.363C7.05765 424.831 6.42584 424.206 5.88586 423.505C5.29289 422.853 4.75565 422.152 4.27979 421.41C4.24488 421.333 4.32867 421.271 4.37057 421.319Z" fill="#263238"/>
<path id="Vector_39" d="M37.302 455.605L36.6037 464.928L34.446 493.111H15.7737L13.6299 464.928L12.9316 455.605H37.3718H37.302Z" fill="#37474F"/>
<path id="Vector_40" d="M37.302 455.605L36.8691 461.269L13.3856 462.211L12.8828 455.605H37.323H37.302Z" fill="#263238"/>
<path id="Vector_41" d="M11.2198 458.175H38.9629V451.024H11.2198V458.175Z" fill="#37474F"/>
</g>
<g id="freepik--Floor--inject-70">
<path id="Vector_42" d="M0.962891 493.11L64.2587 492.813L127.566 492.718L254.158 492.516L380.762 492.706L444.057 492.813L507.353 493.11L444.057 493.395L380.762 493.502L254.158 493.704L127.566 493.502L64.2587 493.395L0.962891 493.11Z" fill="#263238"/>
</g>
<g id="freepik--Device--inject-70">
<path id="Vector_43" d="M411.51 477.802V30.6228C411.51 22.1688 404.656 15.3154 396.202 15.3154L107.155 15.3154C98.7014 15.3154 91.8481 22.1688 91.8481 30.6228V477.802C91.8481 486.256 98.7014 493.11 107.155 493.11H396.202C404.656 493.11 411.51 486.256 411.51 477.802Z" fill="#455A64"/>
<path id="Vector_44" d="M398.018 48.7568H105.705V459.954H398.018V48.7568Z" fill="white"/>
<path id="Vector_45" d="M286.461 35.7173V33.7222C286.461 32.9024 285.796 32.2378 284.977 32.2378L218.379 32.2378C217.56 32.2378 216.895 32.9024 216.895 33.7222V35.7173C216.895 36.5371 217.56 37.2017 218.379 37.2017L284.977 37.2017C285.796 37.2017 286.461 36.5371 286.461 35.7173Z" fill="#263238"/>
<path id="Vector_46" d="M251.677 485.106C256.649 485.106 260.679 481.076 260.679 476.105C260.679 471.133 256.649 467.103 251.677 467.103C246.706 467.103 242.676 471.133 242.676 476.105C242.676 481.076 246.706 485.106 251.677 485.106Z" fill="#263238"/>
<path id="Vector_47" d="M398.018 48.7568H105.705V459.954H398.018V48.7568Z" fill="white"/>
<path id="Vector_48" d="M314.309 267.406H189.32V285.516H314.309V267.406Z" fill="#EBEBEB"/>
<path id="Vector_49" d="M208.631 272.905C208.636 272.843 208.663 272.786 208.706 272.743C208.75 272.699 208.807 272.672 208.868 272.667C208.932 272.667 208.994 272.692 209.041 272.736C209.087 272.78 209.115 272.84 209.118 272.905V276.776C209.118 277.387 209.36 277.973 209.793 278.405C210.225 278.837 210.811 279.08 211.422 279.08C212.033 279.08 212.619 278.837 213.051 278.405C213.483 277.973 213.725 277.387 213.725 276.776V272.905C213.728 272.842 213.754 272.784 213.798 272.74C213.842 272.696 213.901 272.67 213.963 272.667C214.027 272.667 214.089 272.692 214.135 272.736C214.182 272.78 214.209 272.84 214.212 272.905V276.776C214.212 277.142 214.14 277.505 214 277.844C213.86 278.182 213.654 278.49 213.395 278.749C213.136 279.008 212.828 279.214 212.49 279.354C212.151 279.494 211.788 279.567 211.422 279.567C211.055 279.567 210.692 279.494 210.354 279.354C210.015 279.214 209.707 279.008 209.448 278.749C209.189 278.49 208.984 278.182 208.843 277.844C208.703 277.505 208.631 277.142 208.631 276.776V272.905Z" fill="#A6A6A6"/>
<path id="Vector_50" d="M216.16 278.557C216.181 278.534 216.206 278.516 216.235 278.503C216.264 278.491 216.295 278.484 216.326 278.484C216.357 278.484 216.388 278.491 216.417 278.503C216.445 278.516 216.471 278.534 216.492 278.557C216.915 278.896 217.435 279.091 217.977 279.115C218.306 279.121 218.628 279.017 218.891 278.818C219.001 278.763 219.093 278.678 219.158 278.573C219.222 278.468 219.256 278.348 219.256 278.225C219.256 278.102 219.222 277.981 219.158 277.876C219.093 277.771 219.001 277.686 218.891 277.631C218.584 277.432 218.234 277.31 217.87 277.275C217.483 277.225 217.111 277.095 216.777 276.895C216.622 276.811 216.492 276.688 216.401 276.537C216.309 276.387 216.259 276.215 216.255 276.04C216.26 275.851 216.31 275.667 216.401 275.501C216.492 275.336 216.621 275.195 216.777 275.09C217.131 274.863 217.545 274.751 217.965 274.769C218.485 274.795 218.986 274.977 219.402 275.291C219.453 275.328 219.489 275.382 219.503 275.444C219.516 275.505 219.505 275.57 219.473 275.624C219.435 275.674 219.381 275.708 219.32 275.721C219.259 275.734 219.195 275.725 219.14 275.695C218.807 275.41 218.39 275.24 217.953 275.208C217.626 275.193 217.304 275.29 217.038 275.481C216.947 275.544 216.872 275.627 216.818 275.724C216.764 275.821 216.734 275.929 216.73 276.04C216.73 276.136 216.756 276.23 216.804 276.313C216.852 276.396 216.92 276.466 217.003 276.515C217.3 276.702 217.638 276.816 217.988 276.847C218.406 276.904 218.81 277.041 219.176 277.251C219.34 277.356 219.475 277.5 219.571 277.67C219.666 277.839 219.718 278.03 219.722 278.225C219.714 278.42 219.66 278.611 219.566 278.782C219.471 278.953 219.337 279.1 219.176 279.21C218.829 279.457 218.414 279.59 217.988 279.59C217.332 279.561 216.702 279.32 216.195 278.902C216.168 278.883 216.145 278.859 216.128 278.831C216.111 278.802 216.1 278.771 216.097 278.738C216.094 278.705 216.097 278.672 216.108 278.64C216.119 278.609 216.137 278.581 216.16 278.557Z" fill="#A6A6A6"/>
<path id="Vector_51" d="M221.028 277.168C221.028 276.538 221.278 275.934 221.723 275.488C222.169 275.043 222.773 274.792 223.403 274.792C224.011 274.792 224.596 275.024 225.038 275.441C225.479 275.859 225.744 276.43 225.778 277.037C225.778 277.067 225.772 277.097 225.76 277.125C225.747 277.152 225.729 277.177 225.707 277.197C225.685 277.217 225.658 277.233 225.629 277.242C225.601 277.251 225.57 277.254 225.54 277.251H221.503C221.512 277.741 221.712 278.209 222.06 278.555C222.408 278.9 222.877 279.097 223.367 279.103C223.681 279.106 223.989 279.026 224.262 278.871C224.535 278.717 224.763 278.494 224.923 278.224C224.957 278.174 225.009 278.138 225.069 278.124C225.128 278.111 225.191 278.121 225.243 278.153C225.295 278.189 225.331 278.244 225.344 278.305C225.358 278.367 225.347 278.432 225.315 278.486C225.11 278.819 224.824 279.094 224.483 279.285C224.142 279.476 223.758 279.577 223.367 279.578C223.055 279.574 222.747 279.508 222.461 279.384C222.174 279.26 221.915 279.081 221.698 278.858C221.481 278.634 221.31 278.369 221.195 278.079C221.08 277.789 221.023 277.479 221.028 277.168ZM221.526 276.776H225.184C225.114 276.342 224.894 275.947 224.561 275.661C224.229 275.374 223.806 275.214 223.367 275.208C222.925 275.213 222.499 275.372 222.163 275.659C221.827 275.945 221.601 276.34 221.526 276.776Z" fill="#A6A6A6"/>
<path id="Vector_52" d="M227.154 274.982C227.154 274.95 227.161 274.918 227.173 274.889C227.186 274.859 227.205 274.832 227.228 274.81C227.251 274.788 227.279 274.771 227.309 274.759C227.339 274.748 227.372 274.743 227.404 274.745C227.465 274.748 227.522 274.774 227.564 274.819C227.606 274.863 227.629 274.921 227.629 274.982V276.051C227.649 276.009 227.673 275.969 227.701 275.932C227.897 275.59 228.176 275.302 228.512 275.095C228.848 274.888 229.23 274.767 229.624 274.745C229.687 274.745 229.748 274.77 229.792 274.815C229.837 274.859 229.862 274.919 229.862 274.982C229.862 275.045 229.837 275.106 229.792 275.15C229.748 275.195 229.687 275.22 229.624 275.22C229.344 275.231 229.071 275.309 228.827 275.448C228.583 275.586 228.376 275.781 228.223 276.016C227.976 276.356 227.784 276.733 227.653 277.132C227.644 277.159 227.644 277.188 227.653 277.215V279.353C227.655 279.383 227.65 279.414 227.639 279.443C227.629 279.471 227.612 279.498 227.591 279.52C227.57 279.542 227.545 279.56 227.517 279.572C227.488 279.584 227.458 279.59 227.427 279.59C227.395 279.592 227.363 279.587 227.333 279.576C227.303 279.564 227.275 279.547 227.252 279.525C227.228 279.503 227.21 279.476 227.197 279.446C227.185 279.417 227.178 279.385 227.178 279.353L227.154 274.982Z" fill="#A6A6A6"/>
<path id="Vector_53" d="M234.923 276.705C234.923 276.311 234.766 275.933 234.488 275.655C234.21 275.377 233.832 275.22 233.438 275.22C233.045 275.226 232.67 275.384 232.391 275.661C232.112 275.938 231.951 276.312 231.942 276.705V279.353C231.949 279.392 231.949 279.432 231.942 279.472C231.919 279.497 231.892 279.517 231.861 279.532C231.831 279.546 231.798 279.554 231.764 279.555C231.73 279.545 231.699 279.528 231.673 279.506C231.646 279.483 231.625 279.456 231.609 279.424V274.971C231.602 274.936 231.602 274.9 231.609 274.865C231.617 274.83 231.633 274.798 231.655 274.77C231.678 274.742 231.706 274.72 231.738 274.704C231.77 274.689 231.805 274.681 231.841 274.681C231.877 274.681 231.912 274.689 231.944 274.704C231.976 274.72 232.004 274.742 232.027 274.77C232.049 274.798 232.065 274.83 232.073 274.865C232.081 274.9 232.081 274.936 232.073 274.971V275.434C232.331 275.128 232.678 274.909 233.066 274.806C233.453 274.703 233.863 274.721 234.24 274.858C234.616 274.995 234.942 275.245 235.172 275.573C235.403 275.901 235.527 276.292 235.528 276.693V279.353C235.528 279.416 235.503 279.476 235.459 279.521C235.414 279.565 235.354 279.59 235.291 279.59C235.228 279.59 235.167 279.565 235.123 279.521C235.078 279.476 235.053 279.416 235.053 279.353L234.923 276.705Z" fill="#A6A6A6"/>
<path id="Vector_54" d="M241.56 274.971V279.353C241.56 279.416 241.535 279.476 241.491 279.521C241.446 279.566 241.386 279.591 241.323 279.591C241.26 279.591 241.199 279.566 241.155 279.521C241.11 279.476 241.085 279.416 241.085 279.353V278.629C240.881 278.923 240.61 279.164 240.294 279.331C239.978 279.499 239.626 279.588 239.268 279.591C238.629 279.591 238.016 279.337 237.564 278.885C237.111 278.432 236.857 277.819 236.857 277.18C236.857 276.541 237.111 275.927 237.564 275.475C238.016 275.023 238.629 274.769 239.268 274.769C239.624 274.77 239.974 274.855 240.29 275.018C240.606 275.181 240.879 275.418 241.085 275.707V274.995C241.085 274.932 241.11 274.871 241.155 274.827C241.199 274.782 241.26 274.757 241.323 274.757C241.386 274.757 241.446 274.782 241.491 274.827C241.535 274.871 241.56 274.932 241.56 274.995V274.971ZM241.085 277.156C241.062 276.803 240.936 276.464 240.723 276.181C240.51 275.898 240.218 275.684 239.885 275.565C239.552 275.445 239.191 275.426 238.846 275.509C238.502 275.591 238.19 275.773 237.947 276.031C237.705 276.29 237.543 276.613 237.482 276.962C237.421 277.311 237.463 277.67 237.604 277.995C237.744 278.32 237.976 278.597 238.272 278.792C238.568 278.987 238.914 279.091 239.268 279.092C239.767 279.076 240.239 278.864 240.582 278.501C240.925 278.139 241.11 277.655 241.097 277.156H241.085Z" fill="#A6A6A6"/>
<path id="Vector_55" d="M250.502 276.705C250.52 276.498 250.496 276.29 250.429 276.093C250.363 275.896 250.256 275.715 250.116 275.562C249.976 275.409 249.805 275.286 249.615 275.202C249.425 275.119 249.219 275.075 249.012 275.075C248.804 275.075 248.598 275.119 248.408 275.202C248.218 275.286 248.048 275.409 247.907 275.562C247.767 275.715 247.661 275.896 247.594 276.093C247.528 276.29 247.503 276.498 247.521 276.705V279.412C247.521 279.472 247.45 279.507 247.402 279.531C247.364 279.543 247.322 279.543 247.284 279.531H247.212V276.895C247.212 276.501 247.056 276.124 246.778 275.845C246.499 275.567 246.122 275.41 245.728 275.41C245.334 275.41 244.957 275.567 244.678 275.845C244.4 276.124 244.244 276.501 244.244 276.895V279.353C244.244 279.391 244.235 279.429 244.216 279.463C244.197 279.496 244.17 279.524 244.137 279.543H244.03C243.984 279.535 243.942 279.514 243.908 279.482C243.874 279.451 243.851 279.41 243.84 279.365V274.947C243.843 274.888 243.867 274.833 243.909 274.791C243.951 274.749 244.007 274.725 244.065 274.722C244.096 274.72 244.127 274.725 244.155 274.735C244.184 274.746 244.211 274.762 244.233 274.783C244.255 274.805 244.273 274.83 244.285 274.858C244.297 274.886 244.303 274.917 244.303 274.947V275.41C244.509 275.168 244.77 274.979 245.066 274.861C245.361 274.742 245.681 274.698 245.997 274.732C246.314 274.766 246.617 274.877 246.881 275.056C247.144 275.234 247.36 275.474 247.509 275.755C247.68 275.444 247.931 275.184 248.236 275.003C248.541 274.821 248.888 274.724 249.243 274.722C249.763 274.722 250.261 274.928 250.629 275.296C250.996 275.663 251.203 276.161 251.203 276.681V279.353C251.203 279.384 251.196 279.414 251.184 279.442C251.172 279.47 251.155 279.496 251.132 279.517C251.11 279.538 251.084 279.554 251.055 279.565C251.026 279.576 250.996 279.58 250.965 279.579C250.906 279.576 250.85 279.551 250.809 279.509C250.767 279.468 250.742 279.412 250.739 279.353L250.502 276.705Z" fill="#A6A6A6"/>
<path id="Vector_56" d="M252.617 277.168C252.617 276.538 252.867 275.934 253.313 275.488C253.758 275.043 254.362 274.792 254.992 274.792C255.6 274.792 256.185 275.024 256.627 275.441C257.069 275.859 257.334 276.43 257.367 277.037C257.368 277.067 257.361 277.097 257.349 277.125C257.337 277.152 257.319 277.177 257.297 277.197C257.274 277.217 257.248 277.233 257.219 277.242C257.19 277.251 257.16 277.254 257.13 277.251H253.092C253.104 277.74 253.305 278.206 253.652 278.551C254 278.897 254.467 279.094 254.957 279.103C255.28 279.104 255.598 279.017 255.876 278.852C256.154 278.687 256.382 278.449 256.536 278.165C256.57 278.114 256.622 278.078 256.682 278.065C256.742 278.052 256.804 278.062 256.857 278.094C256.908 278.13 256.945 278.183 256.96 278.245C256.976 278.306 256.968 278.37 256.94 278.426C256.729 278.756 256.439 279.028 256.097 279.219C255.755 279.409 255.372 279.512 254.98 279.519C254.357 279.516 253.759 279.267 253.317 278.827C252.875 278.388 252.623 277.791 252.617 277.168ZM253.116 276.776H256.774C256.704 276.342 256.483 275.947 256.151 275.661C255.818 275.374 255.396 275.214 254.957 275.208C254.515 275.213 254.089 275.372 253.753 275.659C253.416 275.945 253.191 276.34 253.116 276.776Z" fill="#A6A6A6"/>
<path id="Vector_57" d="M199.843 274.947C199.843 275.29 199.741 275.625 199.55 275.91C199.36 276.195 199.089 276.417 198.772 276.549C198.455 276.68 198.107 276.714 197.771 276.647C197.434 276.58 197.125 276.415 196.883 276.173C196.64 275.93 196.475 275.621 196.408 275.285C196.341 274.949 196.376 274.6 196.507 274.283C196.638 273.966 196.86 273.696 197.146 273.505C197.431 273.315 197.766 273.213 198.109 273.213C198.569 273.213 199.01 273.396 199.335 273.721C199.66 274.046 199.843 274.487 199.843 274.947Z" fill="#A6A6A6"/>
<path id="Vector_58" d="M201.112 279.709H195.115C195.163 278.947 195.5 278.231 196.057 277.708C196.614 277.185 197.35 276.894 198.114 276.894C198.878 276.894 199.613 277.185 200.17 277.708C200.727 278.231 201.064 278.947 201.112 279.709Z" fill="#A6A6A6"/>
<path id="Vector_59" d="M314.309 293.698H189.32V311.808H314.309V293.698Z" fill="#EBEBEB"/>
<path id="Vector_60" d="M212.763 300.61C211.634 302.306 210.181 303.762 208.488 304.897C209.043 304.039 209.688 303.242 210.412 302.522C211.129 301.806 211.917 301.166 212.763 300.61Z" fill="#A6A6A6"/>
<path id="Vector_61" d="M208.488 300.61C209.344 301.172 210.14 301.82 210.863 302.546C211.588 303.266 212.233 304.062 212.787 304.921C211.095 303.786 209.642 302.329 208.512 300.634L208.488 300.61Z" fill="#A6A6A6"/>
<path id="Vector_62" d="M213.652 302.759C211.653 303.155 209.595 303.155 207.596 302.759C208.59 302.543 209.606 302.443 210.624 302.462C211.641 302.449 212.657 302.549 213.652 302.759Z" fill="#A6A6A6"/>
<path id="Vector_63" d="M210.625 299.731C211.021 301.726 211.021 303.78 210.625 305.776C210.229 303.78 210.229 301.726 210.625 299.731Z" fill="#A6A6A6"/>
<path id="Vector_64" d="M223.201 300.61C222.062 302.299 220.611 303.754 218.926 304.897C219.48 304.039 220.125 303.242 220.85 302.522C221.566 301.806 222.354 301.166 223.201 300.61Z" fill="#A6A6A6"/>
<path id="Vector_65" d="M218.926 300.61C219.785 301.168 220.581 301.817 221.301 302.546C222.033 303.262 222.682 304.059 223.237 304.921C221.544 303.786 220.091 302.329 218.961 300.634L218.926 300.61Z" fill="#A6A6A6"/>
<path id="Vector_66" d="M224.092 302.759C222.092 303.155 220.035 303.155 218.035 302.759C219.03 302.543 220.046 302.443 221.063 302.462C222.081 302.449 223.096 302.549 224.092 302.759Z" fill="#A6A6A6"/>
<path id="Vector_67" d="M221.064 299.731C221.46 301.726 221.46 303.78 221.064 305.776C220.669 303.78 220.669 301.726 221.064 299.731Z" fill="#A6A6A6"/>
<path id="Vector_68" d="M233.639 300.61C233.081 301.469 232.432 302.265 231.703 302.985C230.986 303.716 230.189 304.366 229.328 304.921C229.886 304.062 230.535 303.265 231.264 302.546C231.987 301.82 232.783 301.172 233.639 300.61Z" fill="#A6A6A6"/>
<path id="Vector_69" d="M229.352 300.61C230.208 301.172 231.004 301.82 231.727 302.546C232.455 303.265 233.104 304.062 233.662 304.921C232.803 304.363 232.007 303.714 231.287 302.985C230.562 302.262 229.913 301.466 229.352 300.61Z" fill="#A6A6A6"/>
<path id="Vector_70" d="M234.519 302.759C232.524 303.155 230.47 303.155 228.475 302.759C229.469 302.543 230.485 302.443 231.503 302.462C232.516 302.45 233.528 302.549 234.519 302.759Z" fill="#A6A6A6"/>
<path id="Vector_71" d="M231.502 299.731C231.898 301.726 231.898 303.78 231.502 305.776C231.286 304.785 231.187 303.773 231.205 302.759C231.192 301.742 231.292 300.726 231.502 299.731Z" fill="#A6A6A6"/>
<path id="Vector_72" d="M244.066 300.61C242.936 302.306 241.484 303.762 239.791 304.897C240.345 304.035 240.995 303.239 241.727 302.522C242.439 301.806 243.223 301.166 244.066 300.61Z" fill="#A6A6A6"/>
<path id="Vector_73" d="M239.791 300.61C240.647 301.172 241.443 301.82 242.166 302.546C242.891 303.266 243.536 304.062 244.09 304.921C242.404 303.777 240.953 302.322 239.815 300.634L239.791 300.61Z" fill="#A6A6A6"/>
<path id="Vector_74" d="M244.957 302.759C243.96 302.964 242.945 303.063 241.928 303.056C240.915 303.064 239.904 302.964 238.912 302.759C239.902 302.542 240.915 302.443 241.928 302.462C242.946 302.449 243.961 302.549 244.957 302.759Z" fill="#A6A6A6"/>
<path id="Vector_75" d="M241.928 299.731C242.324 301.726 242.324 303.78 241.928 305.776C241.532 303.78 241.532 301.726 241.928 299.731Z" fill="#A6A6A6"/>
<path id="Vector_76" d="M200.139 300.8V302.997H199.534V300.8C199.552 300.604 199.529 300.407 199.466 300.221C199.404 300.034 199.303 299.863 199.17 299.718C199.038 299.573 198.877 299.457 198.697 299.377C198.517 299.298 198.323 299.257 198.126 299.257C197.93 299.257 197.736 299.298 197.556 299.377C197.376 299.457 197.215 299.573 197.082 299.718C196.95 299.863 196.849 300.034 196.787 300.221C196.724 300.407 196.701 300.604 196.719 300.8V302.997H196.09V300.8C196.09 300.261 196.304 299.745 196.685 299.364C197.065 298.983 197.582 298.769 198.121 298.769C198.659 298.769 199.176 298.983 199.556 299.364C199.937 299.745 200.151 300.261 200.151 300.8H200.139Z" fill="#A6A6A6"/>
<path id="Vector_77" d="M195.295 302.189V306.868H200.936V302.189H195.295ZM198.584 305.621H197.587L197.824 304.493C197.751 304.449 197.69 304.386 197.648 304.311C197.606 304.236 197.585 304.151 197.587 304.065C197.587 303.933 197.639 303.806 197.733 303.713C197.827 303.619 197.953 303.567 198.086 303.567C198.218 303.567 198.345 303.619 198.438 303.713C198.532 303.806 198.584 303.933 198.584 304.065C198.586 304.151 198.565 304.236 198.523 304.311C198.482 304.386 198.421 304.449 198.347 304.493L198.584 305.621Z" fill="#A6A6A6"/>
<path id="Vector_78" d="M230.623 253.489V245.318C230.623 245.114 230.704 244.917 230.849 244.772C230.994 244.628 231.19 244.546 231.395 244.546C231.6 244.546 231.796 244.628 231.941 244.772C232.086 244.917 232.167 245.114 232.167 245.318V252.717H235.92C236.124 252.717 236.321 252.798 236.465 252.943C236.61 253.087 236.691 253.284 236.691 253.489C236.691 253.693 236.61 253.89 236.465 254.034C236.321 254.179 236.124 254.26 235.92 254.26H231.395C231.293 254.262 231.192 254.243 231.098 254.205C231.003 254.167 230.918 254.11 230.846 254.038C230.774 253.966 230.717 253.88 230.679 253.786C230.64 253.691 230.622 253.59 230.623 253.489Z" fill="#263238"/>
<path id="Vector_79" d="M245.538 245.757C246.438 246.704 246.939 247.96 246.939 249.267C246.939 250.573 246.438 251.829 245.538 252.776C245.117 253.237 244.606 253.607 244.036 253.863C243.466 254.118 242.849 254.253 242.225 254.26C241.587 254.258 240.957 254.125 240.373 253.87C239.789 253.614 239.263 253.242 238.828 252.776C237.942 251.822 237.449 250.568 237.449 249.267C237.449 247.965 237.942 246.711 238.828 245.757C239.262 245.289 239.787 244.916 240.372 244.661C240.956 244.405 241.587 244.273 242.225 244.273C242.85 244.277 243.467 244.411 244.038 244.666C244.608 244.922 245.119 245.293 245.538 245.757ZM245.36 249.261C245.348 248.379 245.01 247.532 244.41 246.886C244.135 246.578 243.798 246.331 243.422 246.161C243.045 245.992 242.638 245.903 242.225 245.9C241.802 245.896 241.384 245.982 240.997 246.152C240.61 246.322 240.264 246.572 239.98 246.886C239.369 247.544 239.03 248.41 239.03 249.308C239.03 250.207 239.369 251.072 239.98 251.731C240.258 252.044 240.599 252.295 240.981 252.467C241.362 252.639 241.776 252.728 242.195 252.728C242.614 252.728 243.028 252.639 243.41 252.467C243.791 252.295 244.132 252.044 244.41 251.731C245.032 251.06 245.372 250.175 245.36 249.261Z" fill="#263238"/>
<path id="Vector_80" d="M249.244 249.284C249.25 248.619 249.388 247.961 249.648 247.349C249.909 246.737 250.288 246.182 250.764 245.717C251.239 245.251 251.802 244.884 252.419 244.636C253.037 244.388 253.697 244.265 254.362 244.273C255.506 244.271 256.618 244.651 257.521 245.353C257.627 245.405 257.72 245.48 257.792 245.573C257.865 245.666 257.916 245.773 257.941 245.888C257.967 246.003 257.966 246.123 257.939 246.237C257.912 246.352 257.859 246.459 257.785 246.55C257.711 246.642 257.617 246.715 257.511 246.766C257.404 246.816 257.288 246.842 257.17 246.841C257.052 246.84 256.936 246.812 256.83 246.761C256.725 246.709 256.632 246.634 256.559 246.541C255.927 246.061 255.156 245.799 254.362 245.793C253.9 245.786 253.442 245.872 253.013 246.045C252.585 246.218 252.196 246.476 251.869 246.802C251.544 247.108 251.284 247.476 251.105 247.884C250.925 248.292 250.83 248.732 250.824 249.177C250.826 249.624 250.92 250.065 251.1 250.473C251.28 250.882 251.541 251.249 251.869 251.552C252.193 251.883 252.582 252.143 253.011 252.319C253.439 252.495 253.899 252.581 254.362 252.574C255.032 252.564 255.687 252.38 256.262 252.039V250.139H254.279C254.072 250.136 253.875 250.053 253.728 249.906C253.582 249.76 253.499 249.562 253.496 249.355C253.494 249.252 253.513 249.149 253.552 249.054C253.591 248.958 253.648 248.871 253.722 248.798C253.795 248.725 253.882 248.667 253.977 248.628C254.073 248.589 254.176 248.57 254.279 248.572H257.034C257.139 248.569 257.244 248.586 257.342 248.624C257.439 248.662 257.529 248.72 257.604 248.793C257.679 248.866 257.739 248.953 257.78 249.05C257.821 249.147 257.842 249.251 257.842 249.355V252.419C257.849 252.498 257.849 252.578 257.842 252.657C257.793 252.793 257.702 252.91 257.581 252.989C256.681 253.69 255.574 254.07 254.434 254.07C253.115 254.109 251.833 253.63 250.863 252.735C249.893 251.841 249.312 250.602 249.244 249.284Z" fill="#263238"/>
<path id="Vector_81" d="M261.071 245.318C261.067 245.217 261.085 245.116 261.122 245.021C261.159 244.927 261.214 244.841 261.285 244.769C261.356 244.697 261.441 244.64 261.535 244.602C261.629 244.563 261.729 244.544 261.831 244.546C262.035 244.546 262.232 244.627 262.377 244.772C262.521 244.917 262.603 245.113 262.603 245.318V253.488C262.603 253.693 262.521 253.889 262.377 254.034C262.232 254.179 262.035 254.26 261.831 254.26C261.729 254.262 261.629 254.243 261.535 254.204C261.441 254.166 261.356 254.109 261.285 254.037C261.214 253.965 261.159 253.879 261.122 253.785C261.085 253.69 261.067 253.589 261.071 253.488V245.318Z" fill="#263238"/>
<path id="Vector_82" d="M266.725 253.488C266.738 253.595 266.729 253.704 266.697 253.807C266.666 253.91 266.612 254.005 266.541 254.086C266.47 254.167 266.382 254.231 266.284 254.276C266.185 254.32 266.079 254.343 265.971 254.343C265.863 254.343 265.757 254.32 265.658 254.276C265.56 254.231 265.472 254.167 265.401 254.086C265.33 254.005 265.276 253.91 265.245 253.807C265.213 253.704 265.203 253.595 265.217 253.488V245.437C265.209 245.275 265.253 245.116 265.343 244.982C265.433 244.848 265.564 244.747 265.716 244.694C265.869 244.64 266.034 244.637 266.188 244.686C266.342 244.734 266.476 244.831 266.571 244.962L271.06 251.161V245.448C271.06 245.25 271.138 245.06 271.279 244.919C271.419 244.779 271.609 244.7 271.808 244.7C272.007 244.7 272.199 244.779 272.341 244.919C272.483 245.059 272.565 245.249 272.568 245.448V253.5C272.568 253.703 272.488 253.897 272.346 254.042C272.204 254.186 272.01 254.269 271.808 254.272C271.698 254.269 271.589 254.242 271.491 254.193C271.392 254.144 271.306 254.073 271.238 253.987C271.205 253.969 271.179 253.939 271.166 253.904L266.725 247.752V253.488Z" fill="#263238"/>
<path id="Vector_83" d="M272.531 322.888H231.109V335.772H272.531V322.888Z" fill="#83CA7D"/>
<path id="Vector_84" d="M241.229 331.249V327.163C241.227 327.112 241.236 327.062 241.254 327.014C241.273 326.967 241.3 326.924 241.336 326.887C241.371 326.85 241.414 326.821 241.46 326.802C241.507 326.782 241.558 326.771 241.609 326.771C241.713 326.771 241.812 326.813 241.886 326.886C241.959 326.96 242.001 327.059 242.001 327.163V330.869H243.877C243.978 330.869 244.074 330.909 244.146 330.98C244.217 331.051 244.257 331.148 244.257 331.249C244.257 331.35 244.217 331.448 244.146 331.521C244.075 331.595 243.979 331.637 243.877 331.64H241.609C241.558 331.64 241.507 331.63 241.46 331.61C241.414 331.591 241.371 331.561 241.336 331.525C241.3 331.488 241.273 331.445 241.254 331.398C241.236 331.35 241.227 331.299 241.229 331.249Z" fill="white"/>
<path id="Vector_85" d="M248.686 327.377C249.15 327.854 249.41 328.493 249.41 329.158C249.41 329.824 249.15 330.463 248.686 330.94C248.475 331.171 248.219 331.357 247.933 331.486C247.647 331.615 247.337 331.683 247.024 331.688C246.705 331.683 246.39 331.615 246.098 331.486C245.807 331.358 245.544 331.172 245.325 330.94C244.869 330.459 244.615 329.821 244.615 329.158C244.615 328.495 244.869 327.858 245.325 327.377C245.545 327.147 245.808 326.963 246.1 326.837C246.392 326.71 246.706 326.643 247.024 326.641C247.336 326.643 247.646 326.709 247.932 326.836C248.218 326.963 248.474 327.147 248.686 327.377ZM248.591 329.134C248.584 328.694 248.415 328.271 248.116 327.947C247.978 327.793 247.81 327.669 247.622 327.583C247.434 327.497 247.23 327.451 247.024 327.448C246.802 327.442 246.581 327.483 246.376 327.569C246.171 327.655 245.987 327.784 245.836 327.947C245.541 328.272 245.376 328.695 245.373 329.134C245.373 329.574 245.539 329.998 245.836 330.322C245.987 330.485 246.171 330.614 246.376 330.7C246.581 330.786 246.802 330.827 247.024 330.821C247.23 330.818 247.434 330.772 247.622 330.686C247.81 330.6 247.978 330.476 248.116 330.322C248.417 329.999 248.587 329.576 248.591 329.134Z" fill="white"/>
<path id="Vector_86" d="M250.598 329.146C250.601 328.814 250.669 328.486 250.799 328.18C250.929 327.875 251.118 327.597 251.355 327.365C251.592 327.132 251.873 326.948 252.181 326.824C252.489 326.7 252.819 326.638 253.151 326.641C253.725 326.642 254.284 326.829 254.742 327.175C254.825 327.243 254.879 327.34 254.892 327.446C254.905 327.552 254.877 327.659 254.813 327.745C254.781 327.786 254.741 327.82 254.695 327.846C254.649 327.871 254.599 327.887 254.547 327.893C254.495 327.898 254.442 327.893 254.392 327.878C254.342 327.863 254.296 327.838 254.255 327.805C253.938 327.562 253.55 327.429 253.151 327.425C252.703 327.433 252.277 327.616 251.963 327.935C251.802 328.088 251.674 328.272 251.587 328.477C251.499 328.681 251.454 328.901 251.454 329.123C251.454 329.345 251.499 329.565 251.587 329.769C251.674 329.973 251.802 330.157 251.963 330.31C252.277 330.629 252.703 330.813 253.151 330.821C253.485 330.818 253.812 330.728 254.101 330.56V329.61H253.115C253.009 329.607 252.908 329.563 252.833 329.488C252.758 329.413 252.714 329.312 252.711 329.206C252.713 329.154 252.725 329.104 252.746 329.057C252.767 329.01 252.797 328.967 252.835 328.932C252.872 328.897 252.916 328.869 252.964 328.851C253.012 328.833 253.064 328.824 253.115 328.826H254.493C254.544 328.824 254.596 328.833 254.644 328.851C254.692 328.869 254.736 328.897 254.773 328.932C254.811 328.967 254.841 329.01 254.862 329.057C254.883 329.104 254.895 329.154 254.897 329.206V330.75C254.902 330.789 254.902 330.829 254.897 330.868C254.872 330.936 254.826 330.994 254.766 331.035C254.393 331.328 253.946 331.512 253.475 331.566C253.004 331.62 252.527 331.541 252.097 331.339C251.668 331.136 251.304 330.819 251.045 330.421C250.787 330.023 250.644 329.561 250.633 329.087L250.598 329.146Z" fill="white"/>
<path id="Vector_87" d="M256.44 327.163C256.438 327.112 256.447 327.062 256.465 327.014C256.483 326.967 256.511 326.924 256.547 326.887C256.582 326.85 256.625 326.821 256.671 326.802C256.718 326.782 256.769 326.771 256.82 326.771C256.924 326.771 257.023 326.813 257.097 326.886C257.17 326.96 257.212 327.059 257.212 327.163V331.249C257.212 331.352 257.17 331.452 257.097 331.526C257.023 331.599 256.924 331.64 256.82 331.64C256.769 331.64 256.718 331.63 256.671 331.61C256.625 331.591 256.582 331.561 256.547 331.525C256.511 331.488 256.483 331.445 256.465 331.398C256.447 331.35 256.438 331.299 256.44 331.249V327.163Z" fill="white"/>
<path id="Vector_88" d="M259.278 331.248C259.278 331.35 259.239 331.448 259.168 331.521C259.097 331.595 259 331.637 258.898 331.64C258.847 331.64 258.797 331.63 258.75 331.61C258.703 331.59 258.661 331.561 258.625 331.525C258.59 331.488 258.562 331.445 258.544 331.398C258.525 331.35 258.517 331.299 258.518 331.248V327.223C258.515 327.161 258.527 327.099 258.554 327.042C258.581 326.986 258.622 326.938 258.673 326.902C258.753 326.845 258.853 326.822 258.951 326.838C259.048 326.853 259.136 326.906 259.195 326.985L261.44 330.097V327.235C261.44 327.134 261.48 327.037 261.551 326.966C261.622 326.895 261.719 326.855 261.82 326.855C261.919 326.858 262.014 326.899 262.085 326.969C262.156 327.04 262.197 327.135 262.2 327.235V331.26C262.2 331.362 262.16 331.46 262.089 331.533C262.018 331.606 261.921 331.649 261.82 331.652C261.764 331.651 261.71 331.638 261.661 331.613C261.611 331.589 261.568 331.553 261.534 331.51L259.314 328.434L259.278 331.248Z" fill="white"/>
</g>
<path id="Vector_89" d="M403.964 276.49C403.424 276.355 403.154 276.085 403.154 275.545C403.424 275.545 403.694 275.545 403.964 275.545C403.964 275.815 403.964 276.22 403.964 276.49Z" fill="#B87C58"/>
<path id="Vector_90" d="M404.507 322.795C404.237 322.525 404.237 322.39 404.507 322.12C404.642 322.255 404.642 322.525 404.507 322.795Z" fill="#B77B57"/>
<path id="Vector_91" d="M410.039 292.69C410.039 292.69 409.904 292.555 409.904 292.42C409.904 292.42 410.039 292.555 410.039 292.69Z" fill="#BD865F"/>
<path id="Vector_92" d="M409.77 292.419C409.77 292.419 409.635 292.284 409.5 292.149C409.635 292.284 409.77 292.284 409.77 292.419Z" fill="#BD865F"/>
<path id="Vector_93" d="M409.5 292.149C409.5 292.149 409.365 292.014 409.23 292.014C409.5 292.014 409.5 292.014 409.5 292.149Z" fill="#BD865F"/>
<g id="Group 8649">
<path id="Vector_94" d="M251.861 223.299C277.429 223.299 298.156 202.572 298.156 177.004C298.156 151.436 277.429 130.709 251.861 130.709C226.293 130.709 205.566 151.436 205.566 177.004C205.566 202.572 226.293 223.299 251.861 223.299Z" fill="#D9D9D9"/>
<path id="Vector_95" d="M279.565 213.997C278.583 214.697 277.58 215.352 276.554 215.985C274.073 217.466 271.462 218.717 268.753 219.723C268.117 219.967 267.471 220.188 266.825 220.409C265.365 220.886 263.861 221.295 262.368 221.626C261.032 221.913 259.673 222.155 258.292 222.331C256.482 219.622 254.961 217.269 253.973 215.452C253.285 214.248 252.375 212.565 251.454 210.67C248.604 204.863 245.601 197.052 248.4 194.93L248.556 194.819L248.779 194.697L248.924 194.631C249.181 194.516 249.456 194.445 249.737 194.421C250.129 194.371 250.526 194.371 250.917 194.423C252.949 194.752 254.905 195.442 256.693 196.46C257.215 196.718 257.749 197.008 258.328 197.332L258.55 197.455C263.289 200.114 271.416 206.9 279.565 213.997Z" fill="#FFC4C0"/>
<path id="Vector_96" d="M283.166 211.213C282.654 211.686 282.118 212.139 281.592 212.58C280.667 213.352 279.716 214.081 278.741 214.79C276.379 216.454 273.87 217.9 271.245 219.108C270.63 219.399 270.002 219.669 269.375 219.938C267.955 220.524 266.487 221.046 265.023 221.489C263.712 221.876 262.375 222.221 261.011 222.501L260.197 222.661C256.962 218.323 254.214 214.395 252.278 211.312L251.949 210.789C251.263 209.671 250.659 208.599 250.136 207.573C249.748 206.858 249.405 206.139 249.105 205.416C248.915 204.962 248.737 204.517 248.571 204.083C248.431 203.702 248.315 203.342 248.2 202.993C248.085 202.645 248.002 202.282 247.918 201.898C247.707 201.089 247.6 200.256 247.601 199.42C247.587 198.815 247.675 198.213 247.859 197.637C247.943 197.372 248.055 197.116 248.194 196.875L248.404 196.547C248.483 196.439 248.569 196.336 248.66 196.238C248.746 196.141 248.84 196.052 248.942 195.971L249.069 195.872L249.216 195.75L249.429 195.611L249.568 195.534C249.79 195.412 250.021 195.309 250.26 195.226C252.2 194.763 254.233 194.872 256.112 195.541C257.19 195.821 258.25 196.172 259.283 196.59C261.31 197.424 263.278 198.397 265.171 199.504C270.445 202.429 276.874 206.766 283.166 211.213Z" fill="#83CA7D"/>
<path id="Vector_97" opacity="0.1" d="M278.272 215.247C275.872 216.856 273.329 218.243 270.677 219.389C270.055 219.666 269.421 219.921 268.788 220.176C267.355 220.728 265.874 221.215 264.401 221.624C263.081 221.981 261.737 222.294 260.367 222.542L259.549 222.684C256.416 218.271 253.761 214.28 251.897 211.152L251.58 210.622C250.92 209.488 250.341 208.402 249.843 207.365C249.472 206.64 249.145 205.913 248.863 205.184C248.684 204.725 248.516 204.277 248.36 203.838C248.229 203.455 248.121 203.092 248.015 202.741C247.908 202.39 247.833 202.025 247.758 201.639C247.577 200.824 247.49 199.99 247.499 199.155C247.499 198.55 247.601 197.949 247.799 197.378C247.889 197.115 248.007 196.862 248.151 196.624L248.369 196.301C248.451 196.195 248.538 196.094 248.632 195.998C248.72 195.903 248.817 195.816 248.92 195.738L249.049 195.642L249.199 195.523L249.415 195.389L249.556 195.315C249.785 195.202 250.023 195.108 250.267 195.034C250.587 194.935 250.916 194.866 251.249 194.828L251.504 195.016L255.609 198.153L258.936 200.661L260.524 201.863L278.272 215.247Z" fill="black"/>
<path id="Vector_98" d="M268.714 220.263C267.282 220.814 265.801 221.302 264.328 221.711C263.008 222.068 261.664 222.381 260.294 222.629L259.476 222.77C252.559 223.908 245.476 223.505 238.733 221.59L238.611 221.596L238.5 221.602L237.957 221.44C233.196 219.97 228.808 217.401 224.735 214.532C225.941 212.141 226.95 210.39 228.005 208.542C228.763 207.21 229.472 206.015 230.153 204.943C233.753 199.186 236.321 196.827 238.355 195.609L238.735 195.4C238.877 195.311 239.026 195.232 239.18 195.165C239.452 195.029 239.714 194.927 239.966 194.825C242.78 193.83 245.76 193.388 248.741 193.522C251.3 193.496 253.813 194.204 255.98 195.564C256.498 195.942 256.95 196.401 257.32 196.923C257.737 197.519 258.14 198.134 258.529 198.769L258.965 199.46C259.475 200.282 259.975 201.126 260.466 202.016C260.503 202.065 260.532 202.12 260.552 202.179C260.797 202.623 261.043 203.068 261.29 203.535C261.536 204.002 261.782 204.447 262.018 204.925C264.474 209.797 266.659 214.8 268.563 219.913C268.624 220.011 268.663 220.131 268.714 220.263Z" fill="#83CA7D"/>
<path id="Vector_99" d="M253.072 219.076C251.859 219.117 250.666 219.39 249.555 219.878C250.708 220.258 251.924 220.408 253.135 220.322C254.351 220.282 255.548 220.01 256.662 219.519C255.504 219.143 254.286 218.993 253.072 219.076ZM232.056 203.906C231.893 203.992 231.743 204.1 231.592 204.197C231.438 204.295 231.29 204.403 231.151 204.52C231.08 204.563 231.015 204.615 230.958 204.675L230.733 204.854C230.391 205.15 230.084 205.466 229.776 205.783C228.948 206.675 228.294 207.714 227.846 208.846C228.116 208.721 228.377 208.577 228.627 208.417C229.392 207.912 230.089 207.311 230.7 206.628C231.531 205.74 232.182 204.7 232.619 203.565L232.056 203.906ZM261.88 203.445C261.634 202.989 261.388 202.533 261.132 202.089L260.819 201.859L260.588 201.704C260.464 201.615 260.333 201.535 260.197 201.467L259.806 201.242L259.578 201.131L259.429 201.06L258.952 200.872C259.075 201.134 259.215 201.387 259.369 201.632C259.879 202.417 260.485 203.135 261.172 203.77L261.951 204.411L262.587 204.858C262.371 204.334 262.125 203.878 261.879 203.422L261.88 203.445ZM261.88 203.445C261.634 202.989 261.388 202.533 261.132 202.089L260.819 201.859L260.588 201.704C260.464 201.615 260.333 201.535 260.197 201.467L259.806 201.242L259.578 201.131L259.429 201.06L258.952 200.872C259.075 201.134 259.215 201.387 259.369 201.632C259.879 202.417 260.485 203.135 261.172 203.77L261.951 204.411L262.587 204.858C262.371 204.334 262.125 203.878 261.879 203.422L261.88 203.445Z" fill="white"/>
<path id="Vector_100" d="M242.7 203.178C242.398 206.482 241.794 209.752 240.898 212.947C240.092 215.976 239.285 218.748 238.489 221.297C233.753 219.841 229.274 217.653 225.216 214.811C224.245 214.135 223.294 213.414 222.39 212.724C223.862 210.542 225.35 208.427 226.83 206.401C231.753 199.674 236.066 195.899 238.969 195.54L239.303 195.523C241.745 195.321 243.076 197.818 242.7 203.178Z" fill="#FFC4C0"/>
<path id="Vector_101" d="M243.372 204.08C243.23 206.101 242.959 208.111 242.561 210.097C241.919 212.96 241.109 215.782 240.134 218.549L239.101 221.489L238.99 221.495L238.447 221.333C233.724 219.861 229.26 217.661 225.217 214.811C224.246 214.135 223.295 213.414 222.391 212.724L221.448 211.935C224.132 208.021 227.154 204.349 230.481 200.964C234.582 196.966 237.431 195.305 239.395 195.117L239.795 195.096C243.171 195.048 243.616 199.887 243.372 204.08Z" fill="#83CA7D"/>
<path id="Vector_102" d="M240.177 218.547C239.881 219.532 239.574 220.518 239.267 221.492L239.144 221.498L239.033 221.504C239.397 220.538 239.76 219.572 240.101 218.595L240.177 218.547Z" fill="#263238"/>
<path id="Vector_103" d="M259.385 151.748C256.441 151.216 253.764 154.077 250.775 153.854C248.962 153.714 247.459 152.447 245.782 151.749C244.468 151.214 243.049 150.992 241.635 151.1C240.221 151.208 238.852 151.644 237.635 152.372C235.365 153.85 233.962 155.352 233.943 158.072C231.602 157.066 228.26 160.248 227.319 163.056C226.377 165.863 227.006 168.585 228.039 171.361C229.83 176.151 232.544 180.543 236.026 184.287C236.336 184.619 236.804 184.97 237.187 184.733C237.305 184.63 237.397 184.501 237.455 184.356C237.513 184.211 237.535 184.054 237.52 183.898C237.637 181.241 237.007 178.608 236.439 176.006C235.871 173.405 235.488 170.691 236.038 168.08C236.587 165.469 238.28 162.964 240.822 162.154C242.743 161.657 244.778 161.853 246.568 162.708C248.378 163.469 250.023 164.578 251.772 165.485C253.483 166.476 255.431 166.986 257.408 166.958C259.37 166.818 261.356 165.654 262.019 163.794C262.681 161.934 261.421 159.524 259.469 159.336C260.347 159.154 261.133 158.672 261.695 157.973C262.256 157.274 262.557 156.402 262.546 155.505C262.536 154.609 262.214 153.744 261.636 153.059C261.058 152.374 260.26 151.91 259.378 151.749L259.385 151.748Z" fill="#263238"/>
<path id="Vector_104" d="M261.186 183.171C260.69 179.564 259.057 172.218 257.509 165.59C256.706 162.15 254.637 159.138 251.714 157.154C248.791 155.171 245.228 154.36 241.735 154.884L241.018 154.996C233.324 156.612 231.35 164.215 233.182 171.858L238.532 193.119C238.911 194.626 239.566 196.049 240.464 197.317L242.16 199.709C243.588 201.724 245.947 202.869 248.414 202.744C252.395 202.542 255.459 199.152 255.257 195.17L255.14 192.862C255.14 192.862 262.211 190.644 261.186 183.171Z" fill="#FFBF9D"/>
<path id="Vector_105" d="M255.139 192.849C251.645 193.48 248.042 193.052 244.793 191.621C244.793 191.621 247.895 196.5 255.233 194.711L255.139 192.849Z" fill="#FF9A6C"/>
<path id="Vector_106" d="M255.038 172.989C255.082 173.266 255.016 173.549 254.854 173.778C254.693 174.008 254.449 174.165 254.174 174.218C254.04 174.249 253.901 174.252 253.765 174.228C253.63 174.205 253.501 174.154 253.385 174.08C253.269 174.006 253.169 173.91 253.09 173.797C253.012 173.684 252.956 173.557 252.927 173.423C252.882 173.145 252.947 172.862 253.109 172.632C253.27 172.402 253.516 172.245 253.792 172.193C253.926 172.162 254.065 172.158 254.201 172.181C254.336 172.205 254.466 172.255 254.582 172.329C254.698 172.403 254.799 172.5 254.877 172.613C254.955 172.726 255.01 172.854 255.038 172.989Z" fill="#263238"/>
<path id="Vector_107" d="M244.921 174.538C244.964 174.816 244.898 175.1 244.735 175.329C244.572 175.559 244.326 175.716 244.05 175.768C243.916 175.799 243.777 175.803 243.642 175.779C243.507 175.756 243.377 175.706 243.262 175.631C243.146 175.557 243.047 175.461 242.969 175.347C242.892 175.234 242.837 175.106 242.81 174.972C242.765 174.694 242.83 174.41 242.992 174.181C243.153 173.951 243.398 173.793 243.675 173.742C243.809 173.711 243.948 173.707 244.084 173.73C244.219 173.753 244.349 173.804 244.465 173.878C244.581 173.952 244.681 174.048 244.76 174.162C244.838 174.275 244.893 174.403 244.921 174.538Z" fill="#263238"/>
<path id="Vector_108" d="M250.678 179.252C251.254 178.975 251.861 178.768 252.487 178.636C252.776 178.567 253.044 178.465 253.067 178.259C253.046 177.952 252.931 177.658 252.738 177.417C252.357 176.755 251.988 176.051 251.542 175.317C249.857 172.329 248.6 169.85 248.72 169.783C248.839 169.716 250.302 172.088 251.979 175.07L253.143 177.192C253.38 177.516 253.494 177.914 253.465 178.314C253.439 178.424 253.387 178.527 253.315 178.615C253.242 178.702 253.151 178.772 253.048 178.819C252.894 178.887 252.731 178.935 252.564 178.959C251.951 179.137 251.316 179.236 250.678 179.252Z" fill="#FF9A6C"/>
<path id="Vector_109" d="M244.763 167.976C244.698 168.306 243.527 168.331 242.21 168.698C240.893 169.065 239.856 169.587 239.639 169.339C239.537 169.215 239.678 168.894 240.075 168.527C240.601 168.064 241.228 167.731 241.907 167.555C242.584 167.373 243.295 167.351 243.982 167.491C244.506 167.614 244.79 167.825 244.763 167.976Z" fill="#263238"/>
<path id="Vector_110" d="M255.848 168.71C255.685 168.997 254.853 168.849 253.899 168.979C252.944 169.109 252.176 169.413 251.946 169.173C251.844 169.049 251.926 168.772 252.251 168.476C252.678 168.11 253.205 167.879 253.763 167.813C254.322 167.747 254.888 167.849 255.388 168.106C255.76 168.319 255.916 168.57 255.848 168.71Z" fill="#263238"/>
<path id="Vector_111" d="M235.666 177.02C235.527 176.98 229.726 176.401 230.657 181.479C231.589 186.557 236.485 184.591 236.47 184.422C236.454 184.252 235.666 177.02 235.666 177.02Z" fill="#FFBF9D"/>
<path id="Vector_112" d="M234.541 182.789C234.541 182.789 234.463 182.868 234.325 182.964C234.227 183.03 234.117 183.076 234.001 183.1C233.885 183.123 233.766 183.123 233.65 183.1C233.284 182.953 232.963 182.711 232.722 182.398C232.481 182.086 232.328 181.714 232.279 181.322C232.187 180.888 232.192 180.439 232.294 180.006C232.311 179.839 232.369 179.679 232.463 179.54C232.557 179.4 232.684 179.287 232.833 179.209C232.93 179.165 233.039 179.155 233.143 179.182C233.246 179.209 233.337 179.271 233.399 179.357C233.494 179.482 233.479 179.592 233.507 179.597C233.534 179.603 233.604 179.49 233.491 179.292C233.437 179.173 233.346 179.075 233.232 179.012C233.073 178.931 232.889 178.916 232.719 178.969C232.517 179.049 232.339 179.179 232.202 179.347C232.065 179.515 231.973 179.715 231.936 179.929C231.8 180.407 231.785 180.912 231.894 181.396C232.109 182.415 232.807 183.272 233.581 183.356C233.724 183.372 233.869 183.355 234.005 183.307C234.141 183.259 234.264 183.18 234.365 183.077C234.547 182.911 234.59 182.828 234.541 182.789Z" fill="#FF9A6C"/>
<path id="Vector_113" d="M256.55 158.612C255.609 157.277 254.348 156.2 252.882 155.479C249.792 153.759 246.239 153.058 242.728 153.478C239.207 153.925 235.996 155.722 233.774 158.49C232.091 160.758 231.105 163.468 230.938 166.287C230.709 169.369 231.036 172.467 231.905 175.432C232.305 176.598 233.044 176.928 234.016 177.683C234.626 178.157 235.585 178.381 236.116 177.829C236.394 177.466 236.542 177.019 236.536 176.561C236.921 172.452 237.259 168.101 235.245 164.529C235.987 163.083 237.017 161.804 238.272 160.771C238.903 160.26 239.629 159.879 240.409 159.651C241.188 159.424 242.005 159.353 242.812 159.444C245.188 159.801 246.925 161.805 248.965 163.072C250.44 163.965 252.106 164.495 253.825 164.619C255.545 164.743 257.269 164.457 258.856 163.784L256.55 158.612Z" fill="#263238"/>
<path id="Vector_114" d="M227.419 169.613C227.417 169.559 227.968 169.544 228.824 169.351C231.064 168.854 233.039 167.539 234.362 165.663C234.871 164.956 235.098 164.447 235.147 164.472C235.031 164.948 234.822 165.397 234.532 165.791C233.902 166.785 233.07 167.636 232.089 168.286C231.107 168.939 229.998 169.374 228.834 169.562C228.37 169.669 227.89 169.686 227.419 169.613Z" fill="#E0E0E0"/>
<path id="Vector_115" d="M227.825 172.114C227.822 172.06 228.395 171.922 229.269 171.564C230.409 171.085 231.466 170.429 232.401 169.62C233.334 168.804 234.13 167.843 234.758 166.775C234.985 166.311 235.235 165.859 235.508 165.421C235.409 165.937 235.224 166.432 234.962 166.887C233.772 169.159 231.77 170.901 229.354 171.764C228.868 171.968 228.351 172.086 227.825 172.114Z" fill="#E0E0E0"/>
<path id="Vector_116" d="M260.956 160.842C260.984 161.15 260.926 161.459 260.79 161.737C260.536 162.435 260.095 163.052 259.517 163.519C258.94 163.982 258.249 164.283 257.516 164.39C257.217 164.466 256.901 164.454 256.608 164.354C256.894 164.272 257.184 164.21 257.478 164.167C258.155 164.005 258.788 163.696 259.333 163.262C259.872 162.821 260.309 162.269 260.615 161.643C260.815 161.163 260.901 160.831 260.956 160.842Z" fill="#E0E0E0"/>
<path id="Vector_117" d="M261.707 161.806C261.726 162.103 261.668 162.399 261.539 162.667C261.285 163.339 260.884 163.946 260.366 164.443C259.847 164.941 259.225 165.317 258.543 165.544C258.27 165.662 257.971 165.703 257.677 165.663C258.577 165.319 259.41 164.821 260.137 164.189C260.793 163.491 261.324 162.685 261.707 161.806Z" fill="#E0E0E0"/>
<path id="Vector_118" d="M247.588 181.105C248.741 181.364 249.87 181.722 250.962 182.175L252.116 182.635C251.72 183.289 251.33 184.344 250.714 184.682C250.366 184.872 249.976 184.969 249.58 184.962C249.184 184.956 248.797 184.847 248.456 184.646C247.998 184.223 247.706 183.651 247.631 183.032C247.546 182.393 247.531 181.747 247.588 181.105Z" fill="#FF9A6C"/>
</g>
<g id="Group 8650">
<path id="Vector_119" d="M310.307 471.025C310.307 471.025 309.084 415.97 333.545 415.97V465.778C333.477 465.778 319.752 461.077 310.307 471.025Z" fill="#F5EBEB"/>
<path id="Vector_120" d="M437.028 468.3C437.028 468.3 438.387 413.245 411.072 413.245V463.053C411.072 463.053 426.428 458.283 437.028 468.3Z" fill="#F5EBEB"/>
<path id="Vector_121" d="M326.733 285.797C330.906 284.916 333.183 284.413 335.712 283.28C338.747 281.896 341.53 280.26 344.185 277.995C344.312 277.87 344.438 277.618 344.944 277.744C345.071 278.247 344.944 278.876 344.944 279.505C344.944 279.883 345.45 280.512 344.944 280.638C344.312 280.889 343.427 282.274 343.047 282.903C338.368 291.207 332.551 297.247 325.342 303.035C325.089 303.287 324.836 303.413 324.583 303.665C321.927 305.678 321.674 305.804 318.892 304.042C313.96 301.022 310.925 296.492 309.66 290.578C310.545 290.578 311.557 290.327 312.316 290.327C313.707 290.327 315.225 290.201 316.616 289.949C319.651 289.32 322.56 288.565 325.468 287.433C326.48 287.055 326.354 286.803 326.733 285.797Z" fill="#EDDCDD"/>
<path id="Vector_122" d="M404.637 280.638C404.637 279.883 404.637 278.247 404.637 277.492C404.637 276.611 404.637 275.856 404.637 274.976C405.269 275.731 406.154 276.486 406.66 277.115C407.166 277.744 407.672 278.373 408.178 279.002C408.304 279.128 408.304 279.254 408.431 279.254C408.557 279.38 408.684 279.505 408.684 279.505C408.81 279.631 408.81 279.757 408.937 279.883C409.063 280.135 409.19 280.26 409.316 280.512C409.316 281.141 409.569 281.77 409.948 282.274C411.972 285.419 414.375 288.439 416.777 291.208C417.41 291.837 418.042 292.34 418.674 292.843C420.951 294.227 423.354 295.486 425.883 296.241C427.274 296.618 428.539 296.996 429.804 297.625C430.942 298.254 431.827 298.002 432.586 297.121C433.471 296.115 434.609 295.737 435.874 295.989C436.127 295.989 436.506 295.989 436.759 295.989C436.127 298.38 434.989 300.393 433.724 302.406C431.7 305.929 429.045 308.824 425.757 310.585C425.124 310.963 424.618 311.088 424.113 310.963C423.354 310.837 422.721 310.333 422.595 310.082C421.583 309.075 416.525 303.79 411.466 295.36C407.293 288.439 405.648 285.419 404.637 280.638Z" fill="#EDDCDD"/>
<path id="Vector_123" d="M331.792 284.79C332.045 284.79 332.298 284.79 332.678 284.79C333.057 284.79 333.183 285.294 333.436 285.419C332.804 286.174 331.919 286.3 330.907 286.678C327.113 288.062 323.319 289.572 319.272 290.327C317.375 290.704 315.478 290.453 313.708 290.578C312.569 290.578 311.305 291.082 310.167 291.082C309.408 289.194 309.408 286.678 309.281 284.79C309.408 284.664 309.534 284.539 309.661 284.539C309.914 284.413 310.167 284.664 310.293 284.664C310.419 284.664 314.087 287.307 328.757 285.419C329.769 285.294 330.781 285.042 331.792 284.79Z" fill="#F0E7E8"/>
<path id="Vector_124" d="M437.012 295.863C436.759 295.863 436.379 295.863 436.126 295.863C434.862 295.737 433.85 296.115 432.838 296.996C431.953 297.876 431.068 298.128 430.056 297.499L425.756 296.492C423.227 295.863 422.341 295.863 420.065 294.479C419.433 294.101 417.662 292.969 417.156 292.214C414.753 289.446 413.362 288.062 411.339 284.916C410.96 284.413 408.051 279.379 408.051 278.625C408.81 278.876 410.833 281.141 411.465 281.644C416.145 285.923 421.33 288.942 427.021 290.452C430.309 291.333 433.723 291.711 437.138 291.082C437.517 291.082 438.023 290.83 438.529 291.082C438.276 293.095 437.644 294.479 437.012 295.863Z" fill="#F0E7E8"/>
<path id="Vector_125" d="M405.902 367.586C405.902 366.956 405.649 363.559 405.523 359.029C405.523 357.142 405.523 355.632 405.523 355.128C405.523 348.46 405.775 337.261 405.523 326.691C404.258 272.962 405.396 266.419 403.626 263.525C401.981 261.134 396.038 260.002 396.038 260.002C394.141 259.876 389.841 259.624 387.691 259.499C387.438 259.499 386.806 259.499 383.138 259.499C380.482 259.499 378.332 259.499 376.435 259.499C370.238 259.499 368.341 259.499 362.145 259.499C360.121 259.499 358.098 259.75 355.948 260.002C354.683 260.002 353.545 260.254 352.407 260.254C352.28 260.254 352.28 260.254 352.154 260.254C352.154 260.254 352.154 260.254 352.154 260.128C351.521 260.128 347.095 261.134 346.21 262.77C346.083 262.896 346.083 263.273 345.83 263.651C345.325 264.28 345.325 265.161 345.198 265.916C344.945 273.843 344.566 281.896 344.186 289.823C343.807 299.135 343.428 308.32 342.922 317.631C342.542 325.433 342.416 329.585 342.036 335.877C342.036 336.128 341.784 340.155 341.657 344.056C340.645 365.195 341.404 349.592 341.025 357.897C340.645 366.201 340.898 368.215 340.392 371.235C339.381 377.4 336.725 378.281 336.978 380.546C338.622 391.745 413.771 393.132 411.242 381.556C410.483 377.655 406.408 375.513 405.902 367.586Z" fill="#EDDCDD"/>
<path id="Vector_126" d="M346.194 262.83C346.194 262.956 345.44 264.339 345.188 264.213V264.087C344.937 261.321 347.325 259.184 349.085 257.927C349.965 257.298 350.343 256.67 349.965 255.538C350.594 255.413 351.097 255.287 351.223 254.658C351.977 255.538 352.983 255.413 353.988 255.287C357.886 254.784 361.909 254.533 365.932 254.533C369.954 254.533 374.103 254.533 378.126 254.784C382.903 255.036 387.555 255.413 392.332 256.167C396.104 256.796 400.504 257.173 402.515 260.693C402.892 261.321 403.269 261.95 403.521 262.579C403.772 263.333 404.024 263.71 403.898 264.464C403.395 264.464 403.018 264.339 402.515 263.961C402.012 263.584 401.132 262.83 400.504 262.453C400.504 262.453 399.875 262.201 398.995 261.95C397.235 261.824 387.681 261.321 374.732 260.944C352.731 260.944 347.325 261.07 346.194 262.83Z" fill="#F0E7E8"/>
<path id="Vector_127" d="M387.944 272.962C389.968 273.088 391.738 273.843 393.256 275.101C395.026 276.485 396.291 278.373 397.176 280.512C397.429 281.267 397.303 281.644 396.797 281.896C396.291 282.148 395.912 281.896 395.532 281.267C395.153 280.638 394.9 280.008 394.52 279.379C392.497 276.108 389.715 274.22 385.668 274.849C385.035 274.975 384.53 274.724 384.403 274.22C384.277 273.717 384.656 273.34 385.288 273.088C386.174 272.836 387.059 272.836 387.944 272.962Z" fill="#875A44"/>
<path id="Vector_128" d="M359.361 274.849C360.12 274.598 360.879 274.346 361.637 274.094C361.89 273.969 362.017 273.969 362.27 273.969C363.029 273.843 363.408 274.094 363.534 274.598C363.661 275.101 363.408 275.479 362.776 275.73C362.017 275.982 361.132 276.108 360.499 276.485C357.464 277.366 355.441 279.379 354.176 282.273C354.176 282.399 354.049 282.525 354.049 282.651C353.797 283.532 353.417 283.909 352.785 283.657C352.279 283.532 352.026 282.902 352.279 282.022C352.658 280.638 353.291 279.505 354.176 278.498C355.567 276.863 357.464 275.73 359.361 274.849Z" fill="#875A44"/>
<path id="Vector_129" d="M354.43 344.936C349.877 340.155 347.98 334.241 347.221 331.599C345.957 327.446 345.83 324.426 345.704 323.545C345.324 318.638 345.577 314.737 349.245 309.83C349.751 309.201 352.027 306.936 355.315 306.559C356.453 306.433 357.212 306.559 357.465 306.559C374.285 307.439 374.791 307.188 383.011 306.307C383.644 306.181 389.461 305.426 392.623 306.433C393.635 306.81 394.52 307.188 394.52 307.188C395.532 307.817 396.417 308.698 397.176 309.704C398.946 312.095 400.084 314.36 400.337 317.254C400.464 318.638 400.59 320.148 400.59 321.532C400.59 325.055 400.337 325.81 399.958 326.943C398.946 330.718 397.934 334.367 395.911 337.89C393.255 342.546 390.094 345.314 387.564 347.705C385.035 349.97 383.77 351.102 382 352.109C374.285 356.261 361.512 352.36 354.43 344.936Z" fill="#D6B4B5"/>
<path id="Vector_130" d="M370.996 323.294C370.996 324.049 370.996 324.678 370.743 325.182C370.111 326.188 369.479 326.44 368.467 325.811C367.835 325.433 367.202 324.93 366.696 324.427C365.052 322.288 363.535 320.274 362.27 317.884C361.258 316.122 362.017 313.48 365.052 313.354C367.076 313.228 368.593 314.36 369.479 316.248C370.111 317.758 370.49 319.519 370.743 321.155C370.87 322.036 371.123 322.791 370.996 323.294Z" fill="#161616"/>
<path id="Vector_131" d="M381.367 324.678C381.62 322.413 381.62 319.897 382.505 317.506C383.138 315.996 383.897 314.738 385.667 314.36C387.564 313.857 390.346 315.493 390.852 317.38C390.979 318.009 390.852 318.638 390.599 319.268C390.22 320.274 389.714 321.155 388.955 322.036C387.943 323.294 386.932 324.678 386.046 325.936C385.667 326.44 385.288 326.817 384.908 327.195C384.276 327.824 383.391 328.076 382.632 327.698C381.873 327.321 381.494 326.566 381.494 325.685C381.367 325.307 381.367 325.182 381.367 324.678Z" fill="#161616"/>
<path id="Vector_132" d="M349.371 309.83C350.889 307.188 354.556 306.559 355.441 306.559C356.58 306.433 357.465 306.559 357.591 306.559C374.411 307.439 374.917 307.188 383.138 306.307C383.77 306.181 389.587 305.426 392.749 306.433C393.761 306.81 394.646 307.188 394.646 307.188C396.29 307.943 397.428 309.201 397.302 309.704C397.175 310.837 386.805 307.439 375.17 310.208C372.767 310.711 371.882 311.214 370.112 311.466C363.662 312.095 361.638 308.32 355.947 309.075C352.28 309.578 349.371 312.095 348.865 311.34C348.865 310.837 349.118 310.333 349.371 309.83Z" fill="#D8BDBE"/>
<path id="Vector_133" d="M399.832 371.109C387.186 374.884 375.045 375.135 369.227 375.135C369.227 375.135 348.993 373.877 346.464 372.493C346.337 372.367 347.222 366.579 347.222 366.579C347.222 364.566 347.096 364.818 347.096 362.804C347.096 362.427 347.096 362.049 347.096 361.672C347.222 361.168 347.222 360.917 347.349 360.791C347.602 360.539 348.108 360.791 348.234 360.917C349.625 361.672 359.49 364.818 377.574 364.692C381.621 364.692 393.509 363.056 400.465 359.533C401.223 359.281 401.982 358.904 402.741 358.4C403.626 357.897 404.512 357.519 405.27 357.016C405.27 358.149 405.27 359.91 405.397 362.049C405.65 365.069 405.523 364.566 405.65 367.082C405.903 367.963 402.362 370.354 399.832 371.109Z" fill="#161616"/>
<path id="Vector_134" opacity="0.1" d="M340.028 367.232C340.028 367.232 375.222 387.196 404.57 369.753C404.57 369.753 405.301 375.408 401.891 377.861C398.481 380.246 378.571 382.29 369.803 384.13C361.035 385.97 346.239 372.615 343.56 372.479C340.88 372.342 339.724 371.388 340.028 367.232Z" fill="#7F7D7C"/>
<path id="Vector_135" d="M336.725 366.453C336.725 363.181 337.104 360.036 337.357 356.764C337.483 355.632 337.61 354.625 337.61 353.492C337.736 351.982 338.875 351.228 339.886 350.221C340.139 349.969 340.645 350.095 341.024 349.969C342.795 349.969 344.566 350.095 346.336 350.221C346.842 350.221 347.348 350.347 347.854 350.598C348.739 350.85 349.245 351.731 349.245 352.612C348.865 359.155 348.865 365.824 348.739 372.493C348.739 373.122 348.612 373.751 348.612 374.38C348.486 375.387 348.107 375.89 347.095 376.142C345.451 376.519 343.933 376.267 342.289 376.016C339.507 375.512 337.483 373.248 336.978 370.479C336.725 369.221 336.725 367.837 336.725 366.453Z" fill="#7AC16E"/>
<path id="Vector_136" d="M344.311 364.943C344.311 362.552 344.438 359.532 344.691 356.513C344.691 356.135 344.691 355.758 344.944 355.38C345.07 355.128 345.197 355.128 345.45 355.128C345.702 355.128 345.829 355.38 345.829 355.632C345.829 356.009 345.829 356.513 345.829 356.89C345.576 360.287 345.45 363.811 345.45 367.208C345.45 369.347 345.576 371.486 345.702 373.499C345.702 373.751 345.702 373.877 345.702 374.129C345.702 374.632 345.829 375.261 345.197 375.261C344.564 375.261 344.691 374.632 344.564 374.254C344.311 371.36 344.185 368.466 344.311 364.943Z" fill="#629B56"/>
<path id="Vector_137" d="M341.151 352.36C342.542 352.36 343.807 352.612 344.945 352.989C345.198 353.115 345.577 353.241 345.83 353.367C345.957 353.493 346.083 353.744 345.957 353.996C345.83 354.248 345.577 354.374 345.198 354.248C343.68 353.619 342.036 353.493 340.392 353.367C340.139 353.367 339.76 353.241 339.76 352.864C339.76 352.612 340.013 352.36 340.266 352.36C340.645 352.36 340.898 352.36 341.151 352.36Z" fill="#629B56"/>
<path id="Vector_138" d="M332.594 461.827C332.594 461.827 306.503 459.033 308.541 479.61C310.58 500.188 341.087 491.466 341.087 491.466C341.087 491.466 332.051 471.843 332.594 461.827Z" fill="#1E1E1E"/>
<path id="Vector_139" d="M413.518 457.67C413.518 457.67 438.387 455.49 439.881 477.566C439.881 477.566 441.036 494.669 412.023 492.897C412.023 492.965 415.013 480.019 413.518 457.67Z" fill="#1E1E1E"/>
<path id="Vector_140" d="M376.655 493.574L423.517 492.568C423.517 492.568 427.243 406.165 413.043 383.649C412.363 382.594 408.385 376.471 407.638 375.768C407.638 375.768 385.001 398.287 337.574 378.445C337.574 378.445 327.906 394.837 325.596 420.729C324.033 437.616 324.508 464.2 329.672 490.796L364.094 493.574H376.655Z" fill="#EDDCDD"/>
<path id="Vector_141" d="M369.013 466.733C369.896 460.396 371.595 442.135 364.053 425.986L369.013 466.733Z" fill="#CEBABB"/>
<path id="Vector_142" d="M386.067 426.736C386.067 426.736 379.409 440.023 384.708 465.915L386.067 426.736Z" fill="#CEBABB"/>
<path id="Vector_143" d="M369.829 485.132C369.829 485.132 370.237 467.962 348.154 467.689C330.013 467.417 327.838 485.609 327.702 492.15C327.634 493.445 328.654 494.467 329.945 494.467H367.587C368.81 494.467 369.829 493.445 369.829 492.219V485.132Z" fill="#333333"/>
<path id="Vector_144" d="M383.35 484.179C383.35 484.179 382.942 467.008 405.025 466.735C423.167 466.463 425.341 484.656 425.477 491.197C425.545 492.423 424.526 493.445 423.235 493.445H385.592C384.369 493.445 383.35 492.423 383.35 491.197V484.179Z" fill="#333333"/>
<path id="Vector_145" d="M384.777 470.344C384.777 470.344 370.168 462.644 369.829 470.003C369.489 477.362 369.829 487.719 369.829 489.286C369.829 490.853 373.226 490.989 374.517 490.717C375.808 490.512 383.35 492.829 383.35 491.534C383.35 489.081 382.874 479.133 386.068 475.318C389.397 471.229 384.777 470.344 384.777 470.344Z" fill="#EAAC98"/>
<path id="Vector_146" d="M373.906 477.226C374.957 477.226 375.809 476.372 375.809 475.318C375.809 474.264 374.957 473.41 373.906 473.41C372.856 473.41 372.004 474.264 372.004 475.318C372.004 476.372 372.856 477.226 373.906 477.226Z" fill="#C6998D"/>
<path id="Vector_147" d="M381.719 478.316C382.77 478.316 383.621 477.462 383.621 476.408C383.621 475.354 382.77 474.5 381.719 474.5C380.668 474.5 379.816 475.354 379.816 476.408C379.816 477.462 380.668 478.316 381.719 478.316Z" fill="#C6998D"/>
<path id="Vector_148" d="M372.945 485.943C373.996 485.943 374.848 485.089 374.848 484.035C374.848 482.982 373.996 482.127 372.945 482.127C371.895 482.127 371.043 482.982 371.043 484.035C371.043 485.089 371.895 485.943 372.945 485.943Z" fill="#C6998D"/>
<path id="Vector_149" d="M380.758 487.033C381.809 487.033 382.66 486.179 382.66 485.125C382.66 484.071 381.809 483.217 380.758 483.217C379.707 483.217 378.855 484.071 378.855 485.125C378.855 486.179 379.707 487.033 380.758 487.033Z" fill="#C6998D"/>
<path id="Vector_150" d="M364.908 290.926C364.908 291.917 364.648 293.327 363.921 294.684C362.57 297.086 359.921 297.034 358.674 294.893C356.856 291.865 356.7 288.681 358.362 285.548C359.609 283.147 362.103 283.147 363.609 285.444C364.596 286.906 364.908 288.628 364.908 290.926Z" fill="#161616"/>
<path id="Vector_151" d="M387.404 291.656C389.118 291.551 390.781 291.447 392.495 291.343C392.755 291.343 393.015 291.29 393.275 291.29C393.95 291.343 394.365 291.708 394.365 292.282C394.365 292.804 393.95 293.222 393.326 293.274C392.236 293.379 391.197 293.431 390.106 293.483C387.716 293.588 385.274 293.796 382.884 294.057C382.417 294.11 381.897 294.11 381.43 294.057C380.858 294.005 380.391 293.692 380.287 293.118C380.235 292.543 380.547 292.178 381.014 291.969C381.69 291.656 382.417 291.395 383.144 291.134C385.482 290.194 387.716 289.15 389.846 287.793C390.781 287.218 391.716 286.592 392.443 285.652C392.807 285.234 393.223 285.026 393.742 285.391C394.21 285.704 394.314 286.279 394.002 286.853C393.69 287.375 393.275 287.74 392.807 288.106C391.352 289.307 389.742 290.246 388.028 291.082C387.82 291.186 387.56 291.343 387.352 291.447C387.352 291.499 387.352 291.604 387.404 291.656Z" fill="#161616"/>
<path id="Vector_152" d="M358.479 329.01C357.855 329.271 357.751 329.74 357.544 330.106C357.284 330.576 356.92 330.732 356.401 330.576C355.933 330.419 355.725 330.001 355.777 329.479C355.777 329.062 355.985 328.696 356.193 328.383C356.972 327.339 358.011 326.66 359.154 326.138C360.037 325.773 360.765 326.243 360.661 327.182C360.609 327.809 360.817 328.226 361.18 328.644C363.622 331.881 366.843 333.917 370.739 334.961C377.025 336.632 382.947 335.64 388.506 332.351C388.87 332.142 389.182 331.881 389.545 331.724C390.013 331.515 390.428 331.568 390.74 332.038C391 332.455 390.948 332.925 390.584 333.238C390.324 333.499 390.013 333.708 389.701 333.865C387.519 335.222 385.233 336.266 382.74 336.841C382.168 336.997 381.597 337.049 381.545 337.832C381.545 337.989 381.389 338.146 381.285 338.302C377.077 342.949 371.934 343.836 366.999 340.652C364.921 339.294 363.362 337.519 361.959 335.483C360.557 333.499 359.466 331.307 358.479 329.01ZM370.116 338.668C372.298 340.495 375.103 340.599 376.558 339.033C374.428 339.033 372.401 339.085 370.116 338.668Z" fill="#161616"/>
</g>
</svg>
