<svg width="17" height="17" viewBox="0 0 17 17" fill="none" xmlns="http://www.w3.org/2000/svg">
<path d="M13.6348 7.14304C13.6348 8.5772 13.1618 9.90199 12.3651 10.9768L16.3837 14.9356C16.7805 15.3262 16.7805 15.9604 16.3837 16.351C15.987 16.7416 15.3426 16.7416 14.9458 16.351L10.9271 12.3922C9.83515 13.1796 8.48925 13.642 7.03224 13.642C3.38497 13.642 0.429688 10.7331 0.429688 7.14304C0.429688 3.55297 3.38497 0.644043 7.03224 0.644043C10.6795 0.644043 13.6348 3.55297 13.6348 7.14304ZM7.03224 11.6423C7.63251 11.6423 8.22691 11.526 8.78149 11.2999C9.33607 11.0737 9.83997 10.7423 10.2644 10.3245C10.6889 9.90673 11.0256 9.41073 11.2553 8.86485C11.485 8.31897 11.6032 7.7339 11.6032 7.14304C11.6032 6.55218 11.485 5.96711 11.2553 5.42123C11.0256 4.87535 10.6889 4.37935 10.2644 3.96155C9.83997 3.54375 9.33607 3.21234 8.78149 2.98622C8.22691 2.76011 7.63251 2.64373 7.03224 2.64373C6.43197 2.64373 5.83758 2.76011 5.283 2.98622C4.72842 3.21234 4.22451 3.54375 3.80006 3.96155C3.3756 4.37935 3.0389 4.87535 2.80919 5.42123C2.57947 5.96711 2.46124 6.55218 2.46124 7.14304C2.46124 7.7339 2.57947 8.31897 2.80919 8.86485C3.0389 9.41073 3.3756 9.90673 3.80006 10.3245C4.22451 10.7423 4.72842 11.0737 5.283 11.2999C5.83758 11.526 6.43197 11.6423 7.03224 11.6423Z" fill="#808080"/>
</svg>
