<svg id="sidebar3" xmlns="http://www.w3.org/2000/svg">
<path d="M0.309082 0.944214C0.309082 0.421946 0.731028 0 1.2533 0H12.5839C13.1061 0 13.5281 0.421946 13.5281 0.944214C13.5281 1.46648 13.1061 1.88843 12.5839 1.88843H1.2533C0.731028 1.88843 0.309082 1.46648 0.309082 0.944214ZM0.309082 5.66528C0.309082 5.14301 0.731028 4.72107 1.2533 4.72107H12.5839C13.1061 4.72107 13.5281 5.14301 13.5281 5.66528C13.5281 6.18755 13.1061 6.6095 12.5839 6.6095H1.2533C0.731028 6.6095 0.309082 6.18755 0.309082 5.66528ZM13.5281 10.3864C13.5281 10.9086 13.1061 11.3306 12.5839 11.3306H1.2533C0.731028 11.3306 0.309082 10.9086 0.309082 10.3864C0.309082 9.86408 0.731028 9.44214 1.2533 9.44214H12.5839C13.1061 9.44214 13.5281 9.86408 13.5281 10.3864Z" fill="#ffffff"/>
</svg>
