<svg width="21" height="18" viewBox="0 0 21 18" id="sidebar" xmlns="http://www.w3.org/2000/svg" fill="#41b883">
      <path d="M4.70272 13.528C4.33377 13.528 4.01793 13.3967 3.75519 13.1339C3.49245 12.8712 3.36108 12.5553 3.36108 12.1864C3.36108 11.8174 3.49245 11.5016 3.75519 11.2389C4.01793 10.9761 4.33377 10.8447 4.70272 10.8447C5.07167 10.8447 5.38751 10.9761 5.65025 11.2389C5.91299 11.5016 6.04436 11.8174 6.04436 12.1864C6.04436 12.5553 5.91299 12.8712 5.65025 13.1339C5.38751 13.3967 5.07167 13.528 4.70272 13.528ZM8.72763 13.528C8.35868 13.528 8.04284 13.3967 7.7801 13.1339C7.51736 12.8712 7.38599 12.5553 7.38599 12.1864C7.38599 11.8174 7.51736 11.5016 7.7801 11.2389C8.04284 10.9761 8.35868 10.8447 8.72763 10.8447C9.09658 10.8447 9.41243 10.9761 9.67516 11.2389C9.9379 11.5016 10.0693 11.8174 10.0693 12.1864C10.0693 12.5553 9.9379 12.8712 9.67516 13.1339C9.41243 13.3967 9.09658 13.528 8.72763 13.528ZM12.7525 13.528C12.3836 13.528 12.0677 13.3967 11.805 13.1339C11.5423 12.8712 11.4109 12.5553 11.4109 12.1864C11.4109 11.8174 11.5423 11.5016 11.805 11.2389C12.0677 10.9761 12.3836 10.8447 12.7525 10.8447C13.1215 10.8447 13.4373 10.9761 13.7001 11.2389C13.9628 11.5016 14.0942 11.8174 14.0942 12.1864C14.0942 12.5553 13.9628 12.8712 13.7001 13.1339C13.4373 13.3967 13.1215 13.528 12.7525 13.528ZM4.70272 9.50311C4.33377 9.50311 4.01793 9.37174 3.75519 9.109C3.49245 8.84627 3.36108 8.53042 3.36108 8.16147C3.36108 7.79252 3.49245 7.47668 3.75519 7.21394C4.01793 6.95121 4.33377 6.81984 4.70272 6.81984C5.07167 6.81984 5.38751 6.95121 5.65025 7.21394C5.91299 7.47668 6.04436 7.79252 6.04436 8.16147C6.04436 8.53042 5.91299 8.84627 5.65025 9.109C5.38751 9.37174 5.07167 9.50311 4.70272 9.50311ZM8.72763 9.50311C8.35868 9.50311 8.04284 9.37174 7.7801 9.109C7.51736 8.84627 7.38599 8.53042 7.38599 8.16147C7.38599 7.79252 7.51736 7.47668 7.7801 7.21394C8.04284 6.95121 8.35868 6.81984 8.72763 6.81984C9.09658 6.81984 9.41243 6.95121 9.67516 7.21394C9.9379 7.47668 10.0693 7.79252 10.0693 8.16147C10.0693 8.53042 9.9379 8.84627 9.67516 9.109C9.41243 9.37174 9.09658 9.50311 8.72763 9.50311ZM12.7525 9.50311C12.3836 9.50311 12.0677 9.37174 11.805 9.109C11.5423 8.84627 11.4109 8.53042 11.4109 8.16147C11.4109 7.79252 11.5423 7.47668 11.805 7.21394C12.0677 6.95121 12.3836 6.81984 12.7525 6.81984C13.1215 6.81984 13.4373 6.95121 13.7001 7.21394C13.9628 7.47668 14.0942 7.79252 14.0942 8.16147C14.0942 8.53042 13.9628 8.84627 13.7001 9.109C13.4373 9.37174 13.1215 9.50311 12.7525 9.50311ZM4.70272 5.4782C4.33377 5.4782 4.01793 5.34683 3.75519 5.08409C3.49245 4.82136 3.36108 4.50551 3.36108 4.13656C3.36108 3.76761 3.49245 3.45177 3.75519 3.18903C4.01793 2.92629 4.33377 2.79493 4.70272 2.79493C5.07167 2.79493 5.38751 2.92629 5.65025 3.18903C5.91299 3.45177 6.04436 3.76761 6.04436 4.13656C6.04436 4.50551 5.91299 4.82136 5.65025 5.08409C5.38751 5.34683 5.07167 5.4782 4.70272 5.4782ZM8.72763 5.4782C8.35868 5.4782 8.04284 5.34683 7.7801 5.08409C7.51736 4.82136 7.38599 4.50551 7.38599 4.13656C7.38599 3.76761 7.51736 3.45177 7.7801 3.18903C8.04284 2.92629 8.35868 2.79493 8.72763 2.79493C9.09658 2.79493 9.41243 2.92629 9.67516 3.18903C9.9379 3.45177 10.0693 3.76761 10.0693 4.13656C10.0693 4.50551 9.9379 4.82136 9.67516 5.08409C9.41243 5.34683 9.09658 5.4782 8.72763 5.4782ZM12.7525 5.4782C12.3836 5.4782 12.0677 5.34683 11.805 5.08409C11.5423 4.82136 11.4109 4.50551 11.4109 4.13656C11.4109 3.76761 11.5423 3.45177 11.805 3.18903C12.0677 2.92629 12.3836 2.79493 12.7525 2.79493C13.1215 2.79493 13.4373 2.92629 13.7001 3.18903C13.9628 3.45177 14.0942 3.76761 14.0942 4.13656C14.0942 4.50551 13.9628 4.82136 13.7001 5.08409C13.4373 5.34683 13.1215 5.4782 12.7525 5.4782Z" fill="#41b883" />

</svg>
