<svg xmlns="http://www.w3.org/2000/svg" fill="none" id="trash" viewBox="0 0 24 24" stroke="currentColor" class="size-6" stroke-width="1.5">
    <path stroke-linecap="round" stroke-linejoin="round" stroke="currentColor" d="
        m 14.74 9 -0.346 9
        m -4.788 0
        L 9.26 9
        m 9.968 -3.21
        c 0.342.052.682.107 1.022.166
        m -1.022 -0.165
        L 18.16 19.673
        a 2.25 2.25 0 0 1 -2.244 2.077
        H 8.084
        a 2.25 2.25 0 0 1 -2.244 -2.077
        L 4.772 5.79
        m 14.456 0
        a 48.108 48.108 0 0 0 -3.478 -0.397
        m -12 0.562
        c 0.34 -0.059.68 -0.114 1.022 -0.165
        m 0 0
        a 48.11 48.11 0 0 1 3.478 -0.397
        m 7.5 0v -0.916
        c 0 -1.18 -0.91 -2.164 -2.09 -2.201
        a 51.964 51.964 0 0 0 -3.32 0
        c -1.18.037 -2.09 1.022 -2.09 2.201
        v 0.916
        m 7.5 0
        a 48.667 48.667 0 0 0 -7.5 0"
    />
</svg>
