<svg width="59" height="60" viewBox="0 0 59 60" fill="none" xmlns="http://www.w3.org/2000/svg">
<circle cx="29.7248" cy="29.4831" r="29.0099" fill="#4D4D4D"/>
<path d="M41.3533 55.8184C41.7517 55.6659 42.1501 55.4943 42.5674 55.3418C42.5485 55.6468 42.4157 55.8756 42.207 56.0853C41.2774 57.0385 40.1392 57.6295 38.9061 58.1252C37.7109 58.6018 36.4589 58.9068 35.1878 59.0784C34.4669 59.1928 33.7271 59.2881 32.9683 59.3072C32.4181 59.3262 31.849 59.3834 31.2988 59.3834C30.3503 59.3834 29.4208 59.2881 28.4722 59.2118C27.2391 59.0974 26.025 58.8687 24.8298 58.5827C23.5209 58.2586 22.2498 57.8201 21.0547 57.191C21.2254 57.0766 21.3962 56.9623 21.5669 56.8479C22.762 57.1338 23.9572 57.3626 25.1713 57.4961C26.3096 57.6295 27.4478 57.7439 28.605 57.7439C29.8191 57.7439 31.0333 57.782 32.2284 57.6867C32.8355 57.6295 33.4615 57.6104 34.0875 57.5532C35.3396 57.4198 36.5727 57.2863 37.8058 57.0385C38.7923 56.8288 39.7787 56.6382 40.7462 56.3522C41.0118 56.2569 41.2395 56.1044 41.3533 55.8184Z" fill="#F5EBEB"/>
<path d="M39.3809 14.1821C39.4757 14.2584 39.5895 14.3346 39.6844 14.43C39.7034 14.6206 39.8172 14.7159 39.9879 14.7731C40.0069 14.8684 40.0259 14.9638 40.0448 15.0591C39.931 15.1544 39.7982 15.2307 39.7223 15.3641C39.4188 15.021 39.4378 14.5825 39.3809 14.1821Z" fill="#BD865F"/>
<path d="M39.9891 14.7728C39.8183 14.7157 39.7045 14.6203 39.6855 14.4297C39.7804 14.4297 39.8563 14.4488 39.9511 14.4488C39.9891 14.5441 39.9891 14.6585 39.9891 14.7728Z" fill="#B87C58"/>
<path d="M29.3269 31.3206C23.1804 23.8284 37.9016 40.6811 37.9586 40.643C37.9586 41.0624 39.1727 42.0537 39.2486 42.4541C39.3814 43.331 39.5331 44.1889 39.6849 45.0659C39.8367 45.8666 39.8556 46.6863 40.235 47.4298C40.2919 47.5252 40.2919 47.6586 40.2919 47.773C40.273 48.0399 40.3299 48.2877 40.4058 48.5546C40.6524 49.5269 40.899 50.4801 41.1267 51.4524C41.3164 52.2531 41.563 53.0157 41.6768 53.8354C40.5955 54.2548 39.4572 54.4836 38.319 54.6742C34.6007 55.3034 30.8635 55.4749 27.0884 55.2462C25.4759 55.1508 23.8633 54.9602 22.2888 54.5599C21.6817 54.4073 21.3592 54.3692 21.3782 53.7401C21.4161 52.8441 21.5489 51.9099 21.5869 51.0139C21.5869 50.9186 21.5869 50.8233 21.511 50.747C21.2075 50.4229 21.1316 50.1942 20.6573 50.1179C19.9364 50.0035 19.1966 49.9654 18.4567 49.9463C18.1152 49.9273 18.1152 49.9272 18.1152 49.5841C18.1911 47.8302 18.267 46.0763 18.3429 44.3224C18.4946 41.0052 18.6464 37.7071 18.7792 34.3899C18.931 30.9012 19.0827 27.4124 19.2345 23.9237C19.3673 20.9306 19.1586 17.9947 19.2914 15.0016C19.3104 14.6966 19.2155 14.0484 19.4242 13.8006C19.5001 13.7243 19.6139 13.4574 19.6519 13.343C19.8795 12.733 20.5814 12.6567 21.0747 12.2183C21.3402 12.3708 21.511 12.6377 21.7386 12.8283C22.3078 13.8387 22.8579 14.8301 23.427 15.8405C23.6357 16.2217 24.1669 17.2703 24.2997 17.6897C23.5029 17.9947 23.0097 18.1663 22.4216 18.7954C22.0422 19.1958 21.9283 18.967 21.7386 19.4817C21.6248 19.8058 21.4161 20.149 21.6248 20.2443C21.8335 20.3396 21.53 20.2824 21.6627 19.9393C21.6817 19.9011 21.7007 19.8439 21.7197 19.8058C22.2888 18.681 23.1614 17.9757 24.3945 17.7088C24.3945 17.9185 24.4894 18.09 24.5653 18.2616C24.8688 18.9479 25.1154 19.6533 25.3431 20.3587C25.4189 20.5684 25.6656 22.3604 25.6656 22.5892C25.2292 22.7036 25.7414 22.3985 25.4189 22.7226C25.2292 22.9133 25.381 23.142 25.1913 23.0086C24.4704 22.4748 25.5707 22.2842 24.9636 22.9514C24.5273 23.4089 25.362 22.6083 25.4189 23.2564C53.173 18.7001 24.2807 22.9514 25.0016 23.4852C25.4948 23.6377 24.9447 24.4003 25.4189 24.1143C25.8553 23.8665 25.4759 25.1057 25.8742 24.8197C26.045 25.3726 26.4623 26.9358 26.7279 27.4887" fill="#EDDCDD"/>
<path d="M27.3726 29.3C27.8468 29.2238 26.9362 27.8893 26.7276 27.4699C26.462 26.917 25.9118 25.0869 25.7411 24.534C26.0067 24.2099 24.8874 24.0383 25.1151 23.657C25.5704 22.8945 26.0067 23.2186 25.7411 22.3607C25.4945 21.579 26.462 21.6362 25.3806 21.8078C25.3806 21.579 25.3996 20.5877 25.3237 20.378C25.0771 19.6726 24.8495 18.9672 24.5459 18.2809C24.489 18.0903 24.489 18.2237 24.489 18.014C24.7736 17.8425 24.6598 17.9187 24.9633 17.8234C25.2479 17.7281 25.2668 17.9759 25.2289 17.7662C25.172 17.5565 25.3806 17.4802 25.0961 17.5184C25.0202 17.5184 24.8495 17.5184 24.7736 17.5374C24.4511 17.6137 24.6029 17.6137 24.2804 17.6899C24.1665 17.2705 23.6353 16.222 23.4077 15.8407C22.8576 14.8303 22.2884 13.839 21.7383 12.8286C21.7573 12.6379 21.909 12.6189 22.0608 12.6189C22.4971 12.6189 22.9334 12.5426 23.3698 12.5045C24.1286 12.4473 24.8874 12.3329 25.6462 12.3329C27.9417 12.3329 30.2371 12.3329 32.5326 12.3329C32.9879 12.3329 33.4432 12.2376 33.8795 12.1804C34.3158 12.1232 34.7522 12.066 35.1505 12.3138C35.2644 12.3901 35.3782 12.4282 35.53 12.4282C36.3836 12.4282 37.2373 12.5617 38.091 12.6189C38.8878 12.657 39.3241 13.0002 39.9881 13.4005C40.1019 13.4768 40.6141 14.0677 40.7469 13.9724L40.9176 14.2775C40.9745 14.7159 40.9745 14.5825 40.9745 14.6206C40.8607 15.4404 40.9556 16.2601 40.9935 17.0608C41.0125 17.6899 41.0504 18.3 41.0315 18.9291C40.8987 19.0435 40.9366 19.196 40.9366 19.3485C40.9366 19.9205 40.9745 20.4924 41.0125 21.0643C41.0884 22.1128 41.0315 23.1423 41.1073 24.1908C41.2022 25.5253 41.1263 26.8598 41.2212 28.2134C41.2781 28.9188 41.2401 29.6051 41.297 30.3104C41.354 31.1874 41.3919 32.0644 41.4109 32.9413C41.4298 33.6467 41.5816 34.333 41.5247 35.0384C41.5247 35.0765 41.5626 35.1146 41.5816 35.1718C41.6195 35.9916 41.6575 36.8113 41.6954 37.6311C41.8092 41.177 41.9231 44.723 42.0369 48.288C42.0938 49.8703 42.1507 51.4527 42.2076 53.054C42.2266 53.6641 42.2266 53.6832 41.6195 53.8547C41.5057 53.035 41.2591 52.2724 41.0694 51.4717C40.8417 50.4994 40.5762 49.5462 40.3485 48.574C40.2916 48.3261 40.2347 48.0592 40.2347 47.7923C40.2347 47.6779 40.2347 47.5445 40.1778 47.4492C39.7984 46.7057 39.7794 45.8859 39.6276 45.0852C39.4759 44.2273 39.3241 43.3504 39.1913 42.4734C39.1344 42.0731 37.6736 40.8148 37.6736 40.4145C37.6736 40.262 38.5273 38.6224 38.6032 38.489C39.4 35.6484 40.1778 35.1146 39.7604 32.2359C39.5897 31.0539 37.2183 30.8633 36.5354 29.8529C35.9283 28.9569 35.5869 29.4907 34.5245 29.2238C33.7277 29.0331 34.1641 29.1857 33.3483 29.281C31.8686 29.4716 32.3239 29.6623 30.8063 29.7195C29.8577 29.7576 29.5732 29.8529 28.6246 29.7195C28.3021 29.6623 27.733 29.4716 27.3726 29.3ZM34.9798 23.5808C34.7522 23.5617 35.0557 23.5808 34.847 23.6761C34.1261 24.0193 33.9364 23.2567 33.9933 24.0574C34.1072 25.4872 33.4811 23.7524 34.866 24.1146C35.2075 24.2099 34.7711 24.4005 35.1126 24.248C36.2319 23.7333 34.6952 24.9725 35.2264 23.8477C35.5869 23.066 35.2833 24.7437 34.9419 23.9811C34.5814 23.1804 36.4026 23.1232 35.5489 23.3139C35.1695 23.4092 35.6438 23.047 35.3782 23.3139C35.1505 23.5236 35.4541 23.6761 35.2454 23.4855C35.0177 23.2948 35.3403 23.5617 34.9798 23.5808ZM34.9608 17.3087C34.6194 17.3087 34.1641 17.8043 34.0123 17.6518C33.7467 17.7281 34.3348 17.099 34.3917 17.2896C34.4297 17.4993 34.6763 17.3849 34.9608 17.3087C36.5544 16.9464 36.3836 17.3087 37.2753 18.586C37.446 18.8147 37.5788 18.9672 37.7306 19.196C37.8823 19.4439 38.0531 19.7489 38.2428 19.6345C38.4325 19.5392 38.0531 19.0626 37.9203 18.7957C37.5219 17.9568 37.1045 18.1475 36.3457 17.6137C35.6817 17.1561 35.7576 17.3277 34.9608 17.3087Z" fill="#EDDCDD"/>
<path d="M42.2081 50.8804C42.2081 51.4904 42.2081 52.0242 42.2081 52.539C42.2081 53.0918 42.1891 53.6447 42.2081 54.2166C42.2081 54.4644 42.1322 54.5979 41.9425 54.7313C41.4113 55.0936 40.8232 55.3033 40.2162 55.4939C39.1159 55.8371 37.9966 56.0468 36.8584 56.2183C36.2513 56.3137 35.6253 56.3518 34.9992 56.4281C32.7797 56.695 30.5411 56.5806 28.3216 56.5806C27.7904 56.5806 27.2592 56.5043 26.728 56.4471C26.1589 56.3899 25.6088 56.3137 25.0396 56.2374C24.129 56.104 23.2564 55.8752 22.4027 55.5892C22.0043 55.4558 20.9609 55.1698 20.9609 54.7313C20.9609 54.0641 20.9609 53.4159 20.9609 52.7487C20.9609 52.6343 20.9609 52.5008 20.9799 52.3864C21.0368 52.0624 21.0748 52.0433 21.3973 52.1386C22.213 52.3483 24.0532 52.6915 24.8689 52.8249C25.7226 52.9584 26.5952 53.0156 27.4489 53.0537C29.0235 53.1299 30.598 53.0918 32.1726 53.0537C32.533 53.0537 32.8935 53.0156 33.235 52.9774C33.7282 52.9202 34.2404 52.9012 34.7526 52.8249C35.2648 52.7677 35.777 52.6915 36.3082 52.6343C37.731 52.4436 39.1159 52.1386 40.4818 51.7001C41.0509 51.4904 41.5821 51.2235 42.2081 50.8804Z" fill="#161616"/>
<path d="M17.1465 53.0922C17.1655 51.9102 17.2793 50.7282 17.3931 49.5462C17.431 49.1459 17.469 48.7455 17.5069 48.3261C17.5638 47.7732 17.9812 47.4873 18.3227 47.1441C18.4175 47.0488 18.5883 47.0869 18.721 47.0679C19.3661 47.0679 19.9921 47.1251 20.6371 47.1823C20.8268 47.2013 20.9975 47.2394 21.1872 47.3157C21.5097 47.4301 21.6994 47.7161 21.6805 48.0592C21.5477 50.4804 21.5477 52.9015 21.4908 55.3417C21.4908 55.5705 21.4528 55.8183 21.4339 56.0471C21.3959 56.4284 21.2631 56.5809 20.9027 56.6762C20.3146 56.8287 19.7265 56.7144 19.1384 56.619C18.133 56.4475 17.3741 55.6086 17.2224 54.5982C17.1465 54.1216 17.1465 53.6069 17.1465 53.0922ZM20.068 52.6156C20.049 53.8738 20.03 54.7889 20.1439 55.8183C20.1628 55.9899 20.0111 56.2568 20.2387 56.2568C20.4853 56.2378 20.4284 56.028 20.4284 55.8565C20.4284 55.7802 20.4094 55.723 20.4094 55.6468C20.3525 54.8842 20.2766 54.1216 20.2956 53.3591C20.2956 52.1199 20.3525 50.8807 20.4664 49.6415C20.4853 49.489 20.4853 49.3365 20.4853 49.184C20.4853 49.0887 20.4284 49.0315 20.3336 49.0124C20.2387 48.9934 20.1628 49.0315 20.1249 49.1077C20.049 49.2221 20.2008 49.5272 20.1818 49.6606C20.068 50.7663 20.049 51.7577 20.068 52.6156ZM18.6452 48.1164C18.5693 48.1164 18.4555 48.0401 18.3606 48.0592C18.2468 48.0783 18.0571 48.0211 18.0571 48.1355C18.0571 48.2499 18.2468 48.1927 18.3606 48.1927C18.9297 48.2308 19.1384 48.1355 19.6696 48.3642C19.7834 48.4214 19.8972 48.4596 19.9541 48.3642C19.9921 48.2689 20.1818 48.4024 20.1249 48.3261C20.049 48.2308 19.9352 48.1927 19.8213 48.1545C19.385 48.0211 19.1194 48.1355 18.6452 48.1164Z" fill="#7AC16E"/>
<path d="M52.6031 24.8391C52.3565 25.7161 51.9392 26.4596 51.4839 27.184C50.725 28.4613 49.7955 29.5289 48.5813 30.1962C48.1261 30.444 47.8225 30.4059 47.4241 30.0437C45.8116 28.5185 44.4837 26.6693 43.3454 24.6485C42.6246 23.3902 41.8657 22.132 41.3535 20.7213C41.3535 20.7022 41.3346 20.6831 41.3346 20.6641C40.8413 20.1875 40.9362 19.5011 40.9362 18.872C40.9172 18.3382 40.9362 17.8044 40.9362 17.1562C41.1828 17.4422 41.3725 17.69 41.5622 17.9188C41.7519 18.1476 41.9416 18.3764 42.1313 18.6051C42.1693 18.6433 42.1882 18.6814 42.2262 18.7195C42.2641 18.7576 42.3021 18.7958 42.34 18.8339C42.3779 18.872 42.3969 18.9292 42.4349 18.9673C42.4728 19.0436 42.5297 19.1199 42.5676 19.1771C42.5487 19.4249 42.6625 19.6346 42.7763 19.8252C43.5351 20.9882 44.3888 22.0748 45.2805 23.1043C45.4891 23.3521 45.7357 23.5428 45.9824 23.6953C46.836 24.21 47.6897 24.6866 48.6193 24.9344C49.1125 25.0679 49.6058 25.2013 50.0611 25.4492C50.4594 25.6589 50.7819 25.6017 51.0855 25.2585C51.4269 24.8963 51.8253 24.7629 52.2806 24.8201C52.3755 24.8391 52.4893 24.8391 52.6031 24.8391Z" fill="#EDDCDD"/>
<path d="M41.0311 55.8184C40.9173 56.1043 40.7086 56.2759 40.4051 56.3522C39.4566 56.6381 38.4891 56.8288 37.5216 57.0385C36.3074 57.2863 35.0933 57.4388 33.8602 57.5532C33.2532 57.6104 32.6461 57.6295 32.039 57.6867C30.8439 57.801 29.6487 57.7438 28.4536 57.7438C27.3154 57.7438 26.1961 57.6104 25.0768 57.496C23.8817 57.3626 22.7055 57.1338 21.5293 56.8478C21.7949 56.5809 21.9467 56.2568 21.9277 55.8946C22.0036 55.8565 22.0794 55.8565 22.1364 55.8756C23.3884 56.3522 24.6974 56.5809 26.0064 56.7334C28.1311 57.0003 30.2748 57.0766 32.4185 57.0003C35.0174 56.905 37.6164 56.6762 40.1395 56.0281C40.4431 55.9709 40.7466 55.8946 41.0311 55.8184Z" fill="#CFB6A9"/>
<path d="M52.6043 24.8388C52.4905 24.8388 52.3956 24.8579 52.2818 24.8388C51.8265 24.7816 51.4281 24.9151 51.0867 25.2773C50.7831 25.6014 50.4416 25.6776 50.0622 25.4679C49.6069 25.2201 49.1137 25.0866 48.6205 24.9532C47.6909 24.7054 46.8183 24.2288 45.9835 23.714C45.7369 23.5615 45.4903 23.3709 45.2816 23.123C44.39 22.0936 43.5363 21.0069 42.7775 19.844C42.6447 19.6533 42.5499 19.4627 42.5688 19.1958C42.8344 19.2911 43.0241 19.5008 43.2328 19.6915C44.9212 21.2738 46.8183 22.3795 48.924 22.9133C50.1381 23.2183 51.3712 23.3709 52.6233 23.1612C52.775 23.1421 52.9458 23.0849 53.1165 23.1802C53.0596 23.7903 52.832 24.305 52.6043 24.8388Z" fill="#F0E7E8"/>
<path d="M40.2912 34.1806C40.2722 34.1425 40.2343 34.1044 40.2343 34.0663C40.2722 33.4181 40.1394 32.789 40.1205 32.1408C40.1015 31.3401 40.0636 30.5203 40.0066 29.7196C39.9687 29.0714 39.9877 28.4233 39.9308 27.7941C39.8359 26.574 39.9118 25.3349 39.8169 24.1147C39.76 23.1615 39.8169 22.1893 39.7411 21.2361C39.7031 20.7213 39.6652 20.1875 39.6652 19.6728C39.6652 19.5393 39.6272 19.4059 39.76 19.2915C39.779 19.5012 39.8169 19.7109 39.8169 19.9206C39.8928 22.2083 39.9687 24.477 40.0446 26.7647C40.0825 28.0038 40.1394 29.224 40.1774 30.4631C40.1774 30.5584 40.1774 30.6728 40.1774 30.7682C40.1015 30.8444 40.1015 30.9397 40.1774 31.016C40.2343 32.0836 40.3291 33.1321 40.2912 34.1806Z" fill="#E5D1D3"/>
<path d="M13.5231 22.3799C13.4283 22.4943 13.2955 22.4371 13.1816 22.4562C13.2955 22.3799 13.4093 22.3609 13.5231 22.3799Z" fill="#B77B57"/>
<path d="M40.197 31.0159C40.1212 30.9396 40.1022 30.8443 40.197 30.7681C40.216 30.8443 40.216 30.9396 40.197 31.0159Z" fill="#B77B57"/>
<path d="M42.093 20.4536C42.0741 20.4157 42.0364 20.3968 42.0176 20.3589C42.0741 20.3778 42.1119 20.3968 42.093 20.4536Z" fill="#BD865F"/>
<path d="M42.0181 20.3776C41.9804 20.3586 41.9615 20.3207 41.9238 20.3018C41.9804 20.3018 42.0181 20.3207 42.0181 20.3776Z" fill="#BD865F"/>
<path d="M41.9231 20.2823C41.9042 20.2634 41.8665 20.2255 41.8477 20.2065C41.8854 20.2065 41.9231 20.2444 41.9231 20.2823Z" fill="#BD865F"/>
<path d="M48.8657 9.39689C48.7329 9.37782 48.6191 9.35876 48.4863 9.33969C48.6191 9.24437 48.7519 9.18718 48.8657 9.39689Z" fill="#CFB6A9"/>
<path d="M24.1295 17.5563C24.414 17.4801 24.6986 17.4229 25.0021 17.3466C25.078 17.3276 25.1539 17.3085 25.2298 17.3085C25.4953 17.2894 25.6471 17.3657 25.6851 17.5563C25.723 17.747 25.6281 17.8804 25.3626 17.9567C25.078 18.0329 24.7555 18.0329 24.5089 18.1855C23.3706 18.4333 22.5739 19.0815 22.0427 20.1109C22.0237 20.1491 22.0047 20.1872 21.9858 20.2444C21.853 20.5494 21.7012 20.6638 21.5115 20.5685C21.3218 20.4922 21.2649 20.2825 21.3787 19.9775C21.5495 19.5009 21.834 19.1005 22.1945 18.7383C22.7256 18.1664 23.4086 17.8232 24.1295 17.5563Z" fill="#875A44"/>
<path d="M34.9409 17.0417C35.6807 17.0417 36.3447 17.2895 36.9518 17.7089C37.6537 18.1855 38.1469 18.8337 38.5073 19.5963C38.6212 19.8441 38.5832 20.0157 38.4125 20.111C38.2418 20.2063 38.071 20.1491 37.9382 19.9204C37.8054 19.7106 37.6916 19.4628 37.5398 19.2722C36.7051 18.1093 35.6428 17.4992 34.182 17.8424C33.9354 17.8995 33.7647 17.8042 33.7078 17.6327C33.6509 17.4611 33.7647 17.2895 34.0113 17.2132C34.3148 17.0798 34.6184 17.0226 34.9409 17.0417Z" fill="#875A44"/>
<path d="M19.9556 52.5201C19.9367 51.6431 19.9936 50.5374 20.0884 49.4317C20.1074 49.2982 20.0884 49.1457 20.1643 49.0313C20.2023 48.9551 20.2781 48.9169 20.354 48.936C20.4299 48.9551 20.4868 49.0123 20.4868 49.1076C20.4868 49.2601 20.4868 49.4126 20.4678 49.5651C20.354 50.8234 20.3161 52.0816 20.3161 53.3589C20.3161 54.1405 20.373 54.9222 20.4299 55.6847C20.4299 55.761 20.4489 55.8182 20.4489 55.8944C20.4489 56.066 20.4868 56.2948 20.2781 56.2948C20.0695 56.3139 20.0884 56.0851 20.0695 55.9135C19.9556 54.865 19.9177 53.8164 19.9556 52.5201Z" fill="#629B56"/>
<path d="M18.4372 47.9448C18.9304 47.9639 19.3857 48.0592 19.822 48.1736C19.9358 48.2117 20.0497 48.2498 20.1445 48.3261C20.2014 48.3833 20.2394 48.4596 20.2014 48.5358C20.1445 48.6311 20.0497 48.6693 19.9358 48.6311C19.3667 48.4214 18.7786 48.3452 18.1716 48.3261C18.0577 48.3261 17.9629 48.2689 17.9629 48.1545C17.9629 48.0592 18.0388 47.9829 18.1526 47.9639C18.2664 47.9448 18.3613 47.9448 18.4372 47.9448Z" fill="#629B56"/>
<path d="M24.2242 28.2895C24.9261 28.2704 25.609 28.3657 26.292 28.461C26.6334 28.5182 26.9749 28.4992 27.3354 28.5373C28.0562 28.5945 28.7582 28.747 29.498 28.6136C29.9912 28.5182 30.5224 28.5373 31.0346 28.5182C31.8883 28.4801 32.7041 28.2895 33.5388 28.1751C34.7149 28.0035 35.9101 27.8701 37.0673 28.2132C37.7692 28.4229 38.3194 28.8423 38.7367 29.4143C39.3628 30.2721 39.6853 31.2063 39.7991 32.2358C39.856 32.7314 39.9508 33.2462 39.9888 33.7418C40.0457 34.4091 39.9129 35.0763 39.7801 35.7245C39.4956 37.1353 39.0213 38.4698 38.3004 39.7471C37.5226 41.1387 36.4792 42.3017 35.2461 43.3311C34.5821 43.884 33.9371 44.4369 33.2352 44.9325C32.5523 45.4091 31.7935 45.7142 30.9777 45.8667C30.5414 45.9429 30.1051 46.0192 29.6687 45.9429C29.3273 45.8857 28.9668 45.9429 28.6254 45.9048C28.227 45.8667 27.8665 45.6951 27.5061 45.5426C25.7608 44.7991 24.2811 43.7315 23.048 42.3589C21.758 40.9481 20.9043 39.2895 20.4111 37.4594C20.1265 36.5061 19.9747 35.5148 19.8799 34.5235C19.7281 32.7124 20.2403 31.0538 21.1889 29.5096C21.6821 28.6898 22.4978 28.3848 23.4274 28.2895C23.693 28.2704 23.9586 28.2895 24.2242 28.2895Z" fill="#D6B4B5"/>
<path d="M32.419 34.3328C32.5138 33.513 32.5328 32.5789 32.8553 31.7019C33.064 31.1491 33.3675 30.6915 33.9936 30.539C34.6955 30.3674 35.7009 30.9394 35.8717 31.6447C35.9286 31.8926 35.8527 32.1213 35.7578 32.331C35.6061 32.6933 35.4164 33.0364 35.1697 33.3414C34.8093 33.818 34.4489 34.2947 34.0884 34.7713C33.9556 34.9428 33.8039 35.0763 33.6521 35.2288C33.4055 35.4576 33.1209 35.5338 32.8174 35.4004C32.5328 35.2669 32.3811 35 32.4 34.6569C32.419 34.5997 32.419 34.5234 32.419 34.3328Z" fill="#161616"/>
<path d="M27.8282 34.0281C27.8282 34.314 27.8472 34.5237 27.7333 34.7144C27.5247 35.0957 27.2591 35.1719 26.8797 34.9622C26.652 34.8288 26.4244 34.6572 26.2536 34.4475C25.6466 33.6849 25.0774 32.9033 24.6221 32.0263C24.2617 31.3591 24.5463 30.4249 25.6466 30.3677C26.4054 30.3296 26.9555 30.73 27.2591 31.4353C27.5057 32.0073 27.6385 32.6364 27.7333 33.2464C27.7713 33.5515 27.8851 33.8184 27.8282 34.0281Z" fill="#161616"/>
<path d="M26.8024 23.6188C26.8024 23.9811 26.7076 24.4958 26.442 24.9915C25.9487 25.8684 24.9812 25.8494 24.5259 25.0677C23.862 23.962 23.805 22.7991 24.4121 21.6552C24.8674 20.7783 25.778 20.7783 26.3281 21.6171C26.6886 22.1509 26.8024 22.78 26.8024 23.6188Z" fill="#161616"/>
<path d="M36.5055 23.6188C36.5055 23.9811 36.4107 24.4958 36.1451 24.9915C35.6519 25.8684 34.6844 25.8494 34.2291 25.0677C33.5651 23.962 33.5082 22.7991 34.1152 21.6552C34.5705 20.7783 35.4811 20.7783 36.0313 21.6171C36.3917 22.1509 36.5055 22.78 36.5055 23.6188Z" fill="#161616"/>
<path d="M24.4503 36.6778C24.2226 36.7731 24.1847 36.9447 24.1088 37.0782C24.0139 37.2497 23.8811 37.3069 23.6914 37.2497C23.5207 37.1925 23.4448 37.04 23.4638 36.8494C23.4638 36.6969 23.5397 36.5634 23.6156 36.449C23.9001 36.0678 24.2795 35.8199 24.6969 35.6293C25.0194 35.4958 25.285 35.6674 25.247 36.0106C25.2281 36.2393 25.3039 36.3918 25.4367 36.5444C26.3284 37.7263 27.5045 38.4698 28.9273 38.8511C31.2228 39.4612 33.3854 39.099 35.4153 37.8979C35.5481 37.8217 35.6619 37.7263 35.7947 37.6691C35.9655 37.5929 36.1172 37.612 36.231 37.7835C36.3259 37.936 36.3069 38.1076 36.1741 38.222C36.0793 38.3173 35.9655 38.3936 35.8516 38.4508C35.0549 38.9465 34.2202 39.3277 33.3096 39.5374C33.1009 39.5946 32.8922 39.6137 32.8732 39.8997C32.8732 39.9569 32.8163 40.014 32.7784 40.0712C31.2418 41.768 29.3637 42.092 27.5614 40.9291C26.8026 40.4335 26.2335 39.7853 25.7213 39.0418C25.2091 38.3173 24.8107 37.5166 24.4503 36.6778ZM28.6997 40.2047C29.4965 40.8719 30.5209 40.9101 31.0521 40.3381C30.2743 40.3381 29.5344 40.3572 28.6997 40.2047Z" fill="#161616"/>
<path d="M40.9171 14.2775L40.8981 14.2966L40.8791 14.2775C40.6894 14.2775 40.5376 14.2203 40.3859 14.0869C39.9496 13.6865 39.4184 13.4196 38.8303 13.3243C38.5078 13.2671 38.2232 13.2099 37.8818 13.2671C37.3885 13.3434 36.8763 13.229 36.3831 13.2099C34.6188 13.1527 32.8735 13.1718 31.1092 13.1146C28.2067 13.0383 25.3042 13.0955 22.3827 13.0765C21.8326 13.0765 21.2824 13.229 20.7323 13.1909C20.5805 13.1718 20.4477 13.2671 20.3149 13.3624C20.1821 13.4578 20.0303 13.5721 19.8976 13.6675C19.7458 13.7818 19.632 13.8009 19.5371 13.6293C19.8027 12.8858 20.3149 12.333 20.9409 11.8754C21.2445 11.6467 21.3962 11.4179 21.2824 11.0175C21.4911 10.9794 21.6808 10.9222 21.7377 10.6744C22.0033 11.0175 22.3827 10.9413 22.7242 10.9032C24.1849 10.7125 25.6457 10.6363 27.1064 10.6172C28.5861 10.6172 30.0658 10.6363 31.5645 10.7316C33.2908 10.846 35.0172 10.9603 36.7245 11.2272C38.1094 11.4369 39.5512 11.7038 40.291 13.0002C40.4428 13.248 40.5946 13.534 40.6894 13.6484C40.8412 13.8772 40.974 14.0106 40.9171 14.2775Z" fill="#F0E7E8"/>
<path d="M38.7738 29.357C38.5651 29.3951 38.3754 29.3379 38.2047 29.2426C37.332 28.8232 36.4404 28.8995 35.5298 29.071C34.8658 29.1854 34.2019 29.2998 33.5189 29.3761C32.9498 29.4332 32.3807 29.5667 31.8116 29.6239C31.3183 29.6811 30.8061 29.8145 30.3129 29.7955C30.0283 29.7764 29.7627 29.9289 29.4782 29.9099C28.5486 29.8145 27.6001 29.8527 26.6515 29.7192C26.6136 29.7192 26.5757 29.7001 26.5377 29.7001C25.3046 29.7192 24.0905 29.5095 22.8574 29.5858C22.2124 29.6239 21.6243 29.8527 21.0742 30.1768C20.9603 30.253 20.8655 30.3865 20.6758 30.2339C20.8845 29.8336 21.1311 29.4714 21.4536 29.1473C21.6053 28.9948 21.833 28.8804 21.7951 28.5944C22.6108 28.2513 23.4834 28.2703 24.3371 28.3466C25.4564 28.4419 26.5757 28.5754 27.676 28.6897C28.6624 28.8041 29.6299 28.6326 30.6164 28.5944C31.6598 28.5563 32.6652 28.3275 33.6897 28.1559C34.7141 27.9653 35.7385 27.889 36.7819 28.0988C37.4079 28.2322 37.977 28.5182 38.4513 28.9376C38.622 29.052 38.7738 29.1473 38.7738 29.357Z" fill="#D8BDBE"/>
<path d="M15.9712 20.0155C15.7625 20.4539 15.3072 20.5111 14.9468 20.6446C13.5429 21.1402 12.177 21.7122 10.6973 21.9791C10.0144 22.1125 9.33144 22.0363 8.6485 22.0553C8.23114 22.0744 7.75687 22.2269 7.33952 22.2269C7.07393 21.5406 7.05496 20.6255 6.99805 19.9392C7.13084 19.7676 7.24467 19.8248 7.35849 19.8629C9.65394 20.5874 12.0063 20.6255 14.3776 20.3014C14.4725 20.2824 14.5673 20.3014 14.6812 20.3014C14.8709 20.2824 15.0796 20.3586 15.2503 20.187C15.4779 20.1108 15.7056 19.9964 15.9712 20.0155Z" fill="#F0E7E8"/>
<path d="M13.8457 20.3779C14.7942 20.0347 15.7617 19.7869 16.6913 19.3675C17.7916 18.8718 18.8349 18.2618 19.7645 17.442C19.8214 17.3848 19.8783 17.2895 20.0491 17.3276C20.106 17.5182 20.068 17.728 20.068 17.9567C20.068 18.1092 20.0111 18.2236 19.8594 18.2808C19.6127 18.3761 19.4989 18.6049 19.3661 18.8337C17.6777 21.8649 15.572 24.5148 12.9351 26.6309C12.8402 26.7072 12.7643 26.7644 12.6695 26.8406C11.7209 27.5841 11.6071 27.6032 10.6017 26.9932C8.79946 25.9065 7.75608 24.2098 7.30078 22.0555C7.62328 22.0555 7.94578 22.0746 8.24931 22.0555C8.76152 22.0365 9.2927 22.0937 9.80491 21.9983C10.9242 21.7696 11.9865 21.293 13.0489 20.8926C13.3335 20.7782 13.6939 20.7401 13.8457 20.3779Z" fill="#EDDCDD"/>
<ellipse cx="23.3118" cy="41.618" rx="1.78249" ry="1.29422" fill="#666666"/>
<path d="M19.3942 18.8657C16.3277 26.458 12.7069 41.6933 22.7556 41.8969" stroke="#666666"/>
</svg>
